<?xml version="1.0" encoding="UTF-8" standalone="no"?>
<svg
   xmlns:dc="http://purl.org/dc/elements/1.1/"
   xmlns:cc="http://creativecommons.org/ns#"
   xmlns:rdf="http://www.w3.org/1999/02/22-rdf-syntax-ns#"
   xmlns:svg="http://www.w3.org/2000/svg"
   xmlns="http://www.w3.org/2000/svg"
   xmlns:xlink="http://www.w3.org/1999/xlink"
   xmlns:sodipodi="http://sodipodi.sourceforge.net/DTD/sodipodi-0.dtd"
   xmlns:inkscape="http://www.inkscape.org/namespaces/inkscape"
   id="7d1857de-4e1d-4ad3-937b-baacafe47dc3"
   data-name="Layer 1"
   width="1030.01"
   height="729.86"
   viewBox="0 0 1030.01 729.86"
   version="1.1"
   sodipodi:docname="Web%3A%0AFront-End.svg"
   inkscape:version="0.92.4 (5da689c313, 2019-01-14)">
  <metadata
     id="metadata275">
    <rdf:RDF>
      <cc:Work
         rdf:about="">
        <dc:format>image/svg+xml</dc:format>
        <dc:type
           rdf:resource="http://purl.org/dc/dcmitype/StillImage" />
      </cc:Work>
    </rdf:RDF>
  </metadata>
  <sodipodi:namedview
     pagecolor="#ffffff"
     bordercolor="#666666"
     borderopacity="1"
     objecttolerance="10"
     gridtolerance="10"
     guidetolerance="10"
     inkscape:pageopacity="0"
     inkscape:pageshadow="2"
     inkscape:window-width="1920"
     inkscape:window-height="1017"
     id="namedview273"
     showgrid="false"
     inkscape:zoom="0.70710678"
     inkscape:cx="300.50485"
     inkscape:cy="162.41578"
     inkscape:window-x="-8"
     inkscape:window-y="-8"
     inkscape:window-maximized="1"
     inkscape:current-layer="7d1857de-4e1d-4ad3-937b-baacafe47dc3" />
  <defs
     id="defs10">
    <linearGradient
       id="a5312bde-8c7e-4767-9e17-08a43f21bf92"
       x1="889.13"
       y1="701.85"
       x2="889.13"
       y2="363.3"
       gradientUnits="userSpaceOnUse">
      <stop
         offset="0"
         stop-color="gray"
         stop-opacity="0.25"
         id="stop2" />
      <stop
         offset="0.54"
         stop-color="gray"
         stop-opacity="0.12"
         id="stop4" />
      <stop
         offset="1"
         stop-color="gray"
         stop-opacity="0.1"
         id="stop6" />
    </linearGradient>
    <linearGradient
       id="016d359d-0d48-4404-968f-1612e9b5c7a7"
       x1="376.53"
       y1="777.06"
       x2="376.53"
       y2="381.85"
       xlink:href="#a5312bde-8c7e-4767-9e17-08a43f21bf92"
       gradientTransform="matrix(0.86851328,0,0,0.85656255,-8.7615011,-19.114727)" />
    <linearGradient
       inkscape:collect="always"
       xlink:href="#a5312bde-8c7e-4767-9e17-08a43f21bf92"
       id="linearGradient946"
       gradientUnits="userSpaceOnUse"
       x1="889.13"
       y1="701.85"
       x2="889.13"
       y2="363.3"
       gradientTransform="matrix(0.86851328,0,0,0.85656255,-8.7615011,-19.114727)" />
  </defs>
  <title
     id="title12">static_assets</title>
  <ellipse
     cx="772.59644"
     cy="555.03058"
     rx="183.56897"
     ry="35.187592"
     id="ellipse14"
     style="opacity:0.1;fill:#969696;fill-opacity:1;stroke-width:0.86251724" />
  <g
     id="g30"
     style="opacity:0.5;fill:#323232;fill-opacity:1"
     transform="matrix(0.86851328,0,0,0.85656255,65.053442,53.753052)">
    <path
       d="m 718.61,188.63 c -2.85,0.81 -6.34,2.92 -8.06,8.69 -3.37,11.31 4.46,19 1.88,30.79 a 23,23 0 0 1 -4,8.64 c -3.15,4.27 -6.57,6.29 -9.89,9.28 a 29.5,29.5 0 0 0 -8.69,14.27 39.5,39.5 0 0 0 -0.39,18.55 c 1.18,5.12 3.19,8.85 4.95,13 a 96,96 0 0 1 5.11,16.37 39.87,39.87 0 0 1 1.12,8.32 73.21,73.21 0 0 1 -1,11.12 l -4.79,33.42 a 100.43,100.43 0 0 0 -1.31,13.21 65.61,65.61 0 0 0 1.53,13.19 c 1.68,8.84 3.49,18 7.34,22.68 3.85,4.68 10.41,3 14.44,-6.47 3.83,-9.06 3.92,-21.15 7.3,-30.83 5.33,-15.25 15.92,-17.3 21.8,-31.85 5.64,-14 3.91,-31.08 6.77,-47 2,-11.41 6.41,-21.81 9,-33.08 3.72,-16.23 3.35,-33.08 0.38,-45.56 a 60.55,60.55 0 0 0 -14.18,-27.54 c -2.49,-2.75 -5.16,-5.2 -8.29,-5.45 -3.33,-0.26 -6.24,3.93 -9.53,5.19 -3.8,1.49 -7.62,-0.04 -11.49,1.06 z"
       transform="translate(-84.99,-85.07)"
       id="path16"
       style="fill:#323232;fill-opacity:1"
       inkscape:connector-curvature="0" />
    <path
       d="m 736.64,183.23 c 0,0 -5.64,144.34 -29.36,229.45"
       transform="translate(-84.99,-85.07)"
       stroke-miterlimit="10"
       id="path18"
       style="fill:#323232;fill-opacity:1;stroke:#535461;stroke-width:2;stroke-miterlimit:10"
       inkscape:connector-curvature="0" />
    <path
       d="m 710.41,198 c 0,0 25.35,23.08 20.54,67"
       transform="translate(-84.99,-85.07)"
       stroke-miterlimit="10"
       id="path20"
       style="fill:#323232;fill-opacity:1;stroke:#535461;stroke-width:2;stroke-miterlimit:10"
       inkscape:connector-curvature="0" />
    <path
       d="m 689.14,263.68 c 0,0 41.61,8.37 38.52,33.26"
       transform="translate(-84.99,-85.07)"
       stroke-miterlimit="10"
       id="path22"
       style="fill:#323232;fill-opacity:1;stroke:#535461;stroke-width:2;stroke-miterlimit:10"
       inkscape:connector-curvature="0" />
    <path
       d="m 762.17,215.07 c 0,0 -16.84,14.74 -31.84,56.49"
       transform="translate(-84.99,-85.07)"
       stroke-miterlimit="10"
       id="path24"
       style="fill:#323232;fill-opacity:1;stroke:#535461;stroke-width:2;stroke-miterlimit:10"
       inkscape:connector-curvature="0" />
    <path
       d="m 745.72,341.25 c 0,0 -11.49,9 -20.71,-22.51"
       transform="translate(-84.99,-85.07)"
       stroke-miterlimit="10"
       id="path26"
       style="fill:#323232;fill-opacity:1;stroke:#535461;stroke-width:2;stroke-miterlimit:10"
       inkscape:connector-curvature="0" />
    <path
       d="m 696.14,359.66 c 0,0 23.43,-3.06 25.59,-17.73"
       transform="translate(-84.99,-85.07)"
       stroke-miterlimit="10"
       id="path28"
       style="fill:#323232;fill-opacity:1;stroke:#535461;stroke-width:2;stroke-miterlimit:10"
       inkscape:connector-curvature="0" />
  </g>
  <path
     d="m 664.55342,59.534842 c -5.03738,0.73665 -11.0996,3.0408 -13.59223,10.1417 -4.88973,13.92771 9.97053,24.472 6.54859,39.024988 a 22.173144,21.868042 0 0 1 -6.20119,10.4929 c -5.21108,5.06228 -11.16908,7.27221 -16.81442,10.70703 -5.64533,3.43481 -11.5078,8.83972 -14.15676,17.13125 -2.54475,7.9746 -1.44173,16.78006 1.20723,23.35846 2.64897,6.5784 6.65281,11.4865 10.23109,16.89998 a 116.11154,114.51385 0 0 1 10.84773,21.15709 40.768014,40.207046 0 0 1 2.88346,10.56142 c 0.46032,4.45412 -0.12159,9.24231 -0.70349,13.92771 l -5.16766,41.74885 c -0.68612,5.55053 -1.38093,11.18671 -0.9901,16.53166 0.44294,6.15869 2.29287,11.5379 4.11675,16.78863 3.92568,11.32375 8.12929,23.12719 15.5377,29.36296 7.40842,6.23578 19.02913,4.89954 25.29111,-6.69832 5.958,-11.04109 4.86368,-26.27934 9.94448,-38.14273 8.00769,-18.69876 26.83706,-20.21487 35.89565,-37.96285 8.68513,-17.02846 3.83015,-38.81085 7.32157,-58.59744 2.50132,-14.17611 9.27572,-26.85324 12.74977,-40.80664 5.01133,-20.10353 2.60554,-41.38911 -4.01253,-57.389688 -6.61807,-16.00059 -17.08365,-27.41001 -28.31353,-36.17264 -4.75945,-3.72605 -9.80552,-7.09234 -15.45954,-7.70906 -6.01011,-0.65956 -10.81299,4.32564 -16.5886,5.58478 -6.72229,1.37907 -13.73988,-0.94221 -20.57508,0.06 z"
     id="path32"
     style="fill:#323232;fill-opacity:1;stroke-width:0.86251724"
     inkscape:connector-curvature="0" />
  <path
     d="m 696.41049,54.549652 c 0,0 4.74208,181.497038 -29.14731,286.451648"
     stroke-miterlimit="10"
     id="path34"
     inkscape:connector-curvature="0"
     style="fill:none;stroke:#535461;stroke-width:1.72503448;stroke-miterlimit:10" />
  <path
     d="m 650.77011,70.550242 c 0,0 47.94194,31.692808 43.83387,86.649868"
     stroke-miterlimit="10"
     id="path36"
     inkscape:connector-curvature="0"
     style="fill:none;stroke:#535461;stroke-width:1.72503448;stroke-miterlimit:10" />
  <path
     d="m 619.30388,151.21273 c 0,0 75.66487,14.78427 72.67719,45.86036"
     stroke-miterlimit="10"
     id="path38"
     inkscape:connector-curvature="0"
     style="fill:none;stroke:#535461;stroke-width:1.72503448;stroke-miterlimit:10" />
  <path
     d="m 745.57702,97.309252 c 0,0 -28.75647,16.882848 -51.4073,68.019628"
     stroke-miterlimit="10"
     id="path40"
     inkscape:connector-curvature="0"
     style="fill:none;stroke:#535461;stroke-width:1.72503448;stroke-miterlimit:10" />
  <path
     d="m 728.97974,254.80541 c 0,0 -19.71526,10.27875 -39.54341,-30.50219"
     stroke-miterlimit="10"
     id="path42"
     inkscape:connector-curvature="0"
     style="fill:none;stroke:#535461;stroke-width:1.72503448;stroke-miterlimit:10" />
  <path
     d="m 641.75495,272.9731 c 0,0 41.80154,-1.48185 44.18127,-19.76946"
     stroke-miterlimit="10"
     id="path44"
     inkscape:connector-curvature="0"
     style="fill:none;stroke:#535461;stroke-width:1.72503448;stroke-miterlimit:10" />
  <path
     d="m 123.46096,549.35157 c 0,0 7.27814,9.42219 -3.36115,23.55547 -10.63928,14.13328 -19.42864,26.14229 -15.85905,34.98201 0,0 16.05013,-26.32216 29.11257,-26.69048 13.06244,-0.36833 4.48152,-16.01772 -9.89237,-31.847 z"
     id="path46"
     style="fill:#323232;fill-opacity:1;stroke-width:0.86251724"
     inkscape:connector-curvature="0" />
  <path
     d="m 123.46096,549.35157 a 11.785725,11.623554 0 0 1 1.52858,2.94658 c 12.74978,14.76713 19.53287,28.54922 7.28683,28.90042 -11.41227,0.32549 -25.10003,20.44614 -28.38302,25.53412 a 11.064859,10.912607 0 0 0 0.39084,1.15636 c 0,0 16.05012,-26.32216 29.11256,-26.69048 13.06244,-0.36833 4.4381,-16.01772 -9.93579,-31.847 z"
     id="path48"
     style="opacity:0.1;fill:#323232;fill-opacity:1;stroke-width:0.86251724"
     inkscape:connector-curvature="0" />
  <path
     d="m 136.9924,561.31775 c 0,3.30633 -0.37346,5.99594 -0.86852,5.99594 -0.49505,0 -0.86851,-2.68104 -0.86851,-5.99594 0,-3.3149 0.469,-1.71313 0.92931,-1.71313 0.46031,0 0.80772,-1.5932 0.80772,1.71313 z"
     id="path50"
     inkscape:connector-curvature="0"
     style="fill:#ffd037;stroke-width:0.86251724" />
  <path
     d="m 141.63894,565.25794 c -2.94426,1.58464 -5.50637,2.56968 -5.7235,2.13284 -0.21713,-0.43685 1.98021,-2.01292 4.92447,-3.589 2.94426,-1.57608 1.78045,-0.42828 2.00627,0 0.22581,0.42828 1.72834,-0.12848 -1.20724,1.45616 z"
     id="path52"
     inkscape:connector-curvature="0"
     style="fill:#ffd037;stroke-width:0.86251724" />
  <path
     d="m 85.037932,549.35157 c 0,0 -7.27814,9.42219 3.36115,23.55547 10.63929,14.13328 19.411268,26.13372 15.859048,34.97345 0,0 -16.050118,-26.32217 -29.112558,-26.69049 -13.06244,-0.36832 -4.4989,-16.00915 9.89236,-31.83843 z"
     id="path54"
     style="fill:#323232;fill-opacity:1;stroke-width:0.86251724"
     inkscape:connector-curvature="0" />
  <path
     d="m 85.037932,549.35157 a 11.785725,11.623554 0 0 0 -1.48516,2.94658 c -12.74977,14.76713 -19.53286,28.54922 -7.28682,28.90042 11.41226,0.32549 25.100028,20.44614 28.383008,25.53412 a 11.064859,10.912607 0 0 1 -0.39083,1.15636 c 0,0 -16.050118,-26.32216 -29.112558,-26.69048 -13.06244,-0.36833 -4.4989,-16.01772 9.89236,-31.847 z"
     id="path56"
     style="opacity:0.1;fill:#323232;fill-opacity:1;stroke-width:0.86251724"
     inkscape:connector-curvature="0" />
  <path
     d="m 71.489122,561.31775 c 0,3.30633 0.37347,5.99594 0.86852,5.99594 0.49505,0 0.86851,-2.68104 0.86851,-5.99594 0,-3.3149 -0.469,-1.71313 -0.92931,-1.71313 -0.46031,0 -0.80772,-1.5932 -0.80772,1.71313 z"
     id="path58"
     inkscape:connector-curvature="0"
     style="fill:#ffd037;stroke-width:0.86251724" />
  <path
     d="m 66.842582,565.25794 c 2.94426,1.58464 5.50637,2.56968 5.7235,2.13284 0.21713,-0.43685 -1.98021,-2.01292 -4.92447,-3.589 -2.94426,-1.57608 -1.78045,-0.42828 -2.00627,0 -0.22581,0.42828 -1.72834,-0.12848 1.20724,1.45616 z"
     id="path60"
     inkscape:connector-curvature="0"
     style="fill:#ffd037;stroke-width:0.86251724" />
  <path
     d="m 73.808052,606.6556 c 0,0 20.34927,-0.61672 26.480968,-4.92523 6.13171,-4.30851 31.26648,-9.42219 32.82112,-2.56969 1.55464,6.8525 30.58035,34.35673 7.60818,34.5366 -22.97218,0.17988 -53.378828,-3.52903 -59.501848,-7.20369 -6.12302,-3.67465 -7.40842,-19.83799 -7.40842,-19.83799 z"
     id="path62"
     inkscape:connector-curvature="0"
     style="fill:#a8a8a8;stroke-width:0.86251724" />
  <path
     d="m 141.12652,631.31604 c -22.97218,0.17988 -53.378828,-3.52904 -59.501848,-7.20369 -4.66391,-2.80096 -6.52253,-12.84844 -7.13917,-17.48244 h -0.67745 c 0,0 1.2854,16.18903 7.40842,19.86368 6.12302,3.67466 36.529668,7.39214 59.501848,7.20369 6.63544,-0.0514 8.91963,-2.38124 8.79804,-5.82462 -0.92063,2.10714 -3.448,3.40912 -8.38984,3.44338 z"
     id="path64"
     inkscape:connector-curvature="0"
     style="opacity:0.2;stroke-width:0.86251724" />
  <path
     d="m 918.24615,545.45421 a 10.13555,9.9960849 0 0 0 3.32641,-4.95093 c 0.43425,-1.9701 -0.41689,-4.32564 -2.32762,-5.04515 -2.13654,-0.80517 -4.42073,0.65098 -6.14907,2.13284 -1.72835,1.48185 -3.71724,3.16071 -5.98406,2.84378 a 9.1020192,8.9767755 0 0 0 2.81398,-8.40287 3.5609045,3.5119064 0 0 0 -0.78166,-1.71313 c -1.18986,-1.25058 -3.33509,-0.71095 -4.75945,0.2741 -4.51627,3.13502 -5.77562,9.18235 -5.80167,14.63009 -0.45163,-1.96153 -0.0695,-4.00871 -0.0868,-5.99594 -0.0174,-1.98722 -0.57322,-4.28281 -2.29288,-5.32782 a 6.9481063,6.8525004 0 0 0 -3.47405,-0.81373 c -2.03232,-0.0771 -4.29046,0.12848 -5.68008,1.5932 -1.73702,1.81592 -1.27671,4.87384 0.22582,6.8525 1.50252,1.97866 3.77803,3.25494 5.87983,4.64257 a 13.027699,12.848438 0 0 1 4.20361,3.94876 3.9691057,3.9144908 0 0 1 0.31266,0.70238 h 12.72372 a 35.461397,34.973449 0 0 0 7.85136,-5.37065 z"
     id="path66"
     style="fill:#323232;fill-opacity:1;stroke-width:0.86251724"
     inkscape:connector-curvature="0" />
  <path
     d="m 194.66168,465.0701 c 27.63609,34.65652 16.90127,85.28793 -0.66007,125.82904 -5.87984,13.57651 -12.53265,27.94107 -10.0487,42.49406 3.03111,17.79937 19.10729,30.83626 36.06067,37.68876 30.83222,12.57433 67.74404,9.57637 96.06626,-7.80329 24.48338,-15.02411 42.01867,-39.45327 66.91894,-53.79213 41.68864,-23.98375 94.72006,-14.92988 139.9696,1.59321 32.0134,11.69208 67.01449,26.90463 98.82813,14.68148 22.38159,-8.56562 37.85849,-29.52571 46.29176,-51.71068 4.07333,-10.7156 7.02627,-22.27063 14.76472,-30.83625 4.6205,-5.04515 10.64798,-8.63415 16.83179,-11.64925 56.45337,-27.58988 127.67145,-12.84844 182.45727,-43.41059 37.00735,-20.66029 60.70037,-59.64245 71.21807,-100.28634 10.5177,-40.6439 9.2671,-83.26645 6.6007,-125.11809 -1.8933,-29.74842 -5.2892,-61.5012 -24.5615,-84.46564 -20.38404,-24.28355 -55.37644,-33.32028 -86.99901,-28.70341 -31.62257,4.61687 -60.30088,21.14853 -85.48776,40.52398 -31.51835,24.21502 -60.74382,54.37459 -99.44477,64.19079 -26.35069,6.68119 -54.07364,3.02367 -81.2581,1.76452 -45.44062,-2.11571 -90.88992,2.56969 -136.07867,7.70906 -43.26064,4.9338 -86.85132,10.36441 -128.04491,24.24072 -29.16468,9.82478 -52.54505,27.64984 -80.08561,40.10426 -17.95217,8.12022 -37.52846,10.36441 -54.51658,20.70312 -20.93985,12.73708 -40.12531,34.89636 -34.74053,60.81594 5.05475,24.67757 31.24042,37.04633 45.9183,55.43673 z"
     id="path68"
     style="opacity:0.1;fill:#969696;fill-opacity:1;stroke-width:0.86251724"
     inkscape:connector-curvature="0" />
  <ellipse
     cx="544.77673"
     cy="429.97244"
     rx="371.43707"
     ry="35.187592"
     id="ellipse70"
     style="opacity:0.1;fill:#969696;fill-opacity:1;stroke-width:0.86251724" />
  <ellipse
     cx="259.30511"
     cy="632.97778"
     rx="183.56897"
     ry="35.187592"
     id="ellipse72"
     style="opacity:0.1;fill:#969696;fill-opacity:1;stroke-width:0.86251724" />
  <path
     d="m 446.9561,418.99988 -2.90952,4.17146 c 0,0 3.17008,4.17146 3.47406,4.69396 0.30398,0.52251 9.24966,-0.25696 9.24966,-0.25696 l 0.79035,-3.12646 -1.32014,-3.64895 z"
     id="path74"
     inkscape:connector-curvature="0"
     style="fill:#e6e6f0;stroke-width:0.86251724" />
  <polygon
     points="324.65,433.11 329.22,435.54 333.48,438.58 334.7,435.24 331.65,428.84 327.09,423.67 320.39,424.88 "
     id="polygon76"
     transform="matrix(0.86851328,0,0,0.85656255,65.053442,53.753052)"
     style="fill:#fdc2cc" />
  <path
     d="m 444.31582,348.85597 c 0,0 30.93644,7.29792 36.7468,15.41813 0,0 5.28924,4.43699 0,12.51438 -5.28925,8.07738 -12.68898,26.3393 -12.68898,26.3393 0,0 -5.28925,17.73084 -7.39973,19.03282 -2.11049,1.30197 -14.27836,2.34698 -15.33795,-2.56969 0,0 6.86994,-10.6899 6.86994,-15.6494 0,-4.95949 11.36884,-28.42074 11.36884,-28.42074 0,0 -25.90775,-2.86949 -34.10652,-1.04501 -8.19876,1.82448 3.70856,-28.48927 14.5476,-25.61979 z"
     id="path78"
     style="fill:#969696;fill-opacity:1;stroke-width:0.86251724"
     inkscape:connector-curvature="0" />
  <path
     d="m 444.31582,348.85597 c 0,0 30.93644,7.29792 36.7468,15.41813 0,0 5.28924,4.43699 0,12.51438 -5.28925,8.07738 -12.68898,26.3393 -12.68898,26.3393 0,0 -5.28925,17.73084 -7.39973,19.03282 -2.11049,1.30197 -14.27836,2.34698 -15.33795,-2.56969 0,0 6.86994,-10.6899 6.86994,-15.6494 0,-4.95949 11.36884,-28.42074 11.36884,-28.42074 0,0 -25.90775,-2.86949 -34.10652,-1.04501 -8.19876,1.82448 3.70856,-28.48927 14.5476,-25.61979 z"
     id="path80"
     style="opacity:0.1;fill:#000000;fill-opacity:1;stroke-width:0.86251724"
     inkscape:connector-curvature="0" />
  <path
     d="m 437.96699,355.89692 c -0.0608,1.51611 -0.22581,3.22067 -0.46031,5.05372 -1.6936,13.27672 -7.20866,33.02048 -7.20866,33.02048 0,0 -5.5498,11.73491 -7.13918,19.29836 -1.58938,7.56345 -12.42843,9.42219 -12.42843,9.42219 0,0 -29.6163,3.42625 -35.69589,2.09001 -6.0796,-1.33624 -15.63324,3.91449 -20.35795,3.12645 -4.72472,-0.78804 -7.66898,-11.7349 -7.66898,-11.7349 a 57.321877,56.533128 0 0 0 23.79727,-4.95094 c 12.15918,-5.47343 29.6163,-2.86948 29.6163,-2.86948 a 9.9444771,9.8076411 0 0 0 6.07959,-4.95093 c 1.84994,-3.91449 1.84994,-27.64128 1.32014,-29.20879 -3.47405,-10.27875 -3.18744,-16.87428 -2.18865,-20.72024 a 10.482955,10.33871 0 0 1 2.18865,-4.57405 z"
     id="path82"
     style="fill:#969696;fill-opacity:1;stroke-width:0.86251724"
     inkscape:connector-curvature="0" />
  <path
     d="m 437.96699,355.89692 c -0.0608,1.51611 -0.22581,3.22067 -0.46031,5.05372 -2.65765,0.20557 -10.1095,0.40258 -15.63324,-2.96371 -5.21108,-3.15215 -12.7932,-4.22285 -16.20646,-4.55691 a 10.482955,10.33871 0 0 1 2.18865,-4.57405 z"
     id="path84"
     inkscape:connector-curvature="0"
     style="opacity:0.1;stroke-width:0.86251724" />
  <path
     d="m 441.62343,352.63342 c -1.23329,3.42625 -3.12665,7.44352 -3.12665,7.44352 0,0 -9.77946,1.30198 -16.65808,-2.86948 -6.87863,-4.17146 -17.97823,-4.69396 -17.97823,-4.69396 1.79783,-1.08784 3.01374,-4.39417 3.76935,-7.28935 a 46.838921,46.194418 0 0 0 0.99011,-4.96806 c 0,0 32.51713,6.51844 33.87201,7.56344 0.50374,0.41115 -0.0347,2.48404 -0.86851,4.81389 z"
     id="path86"
     inkscape:connector-curvature="0"
     style="fill:#e6e6f0;stroke-width:0.86251724" />
  <path
     d="m 499.57064,242.72788 -39.43919,23.47837 -3.917,2.32986 v -11.46938 l 2.71845,-1.28484 33.238,-15.66653 c 0,0 1.58938,-28.42075 5.81904,-23.98375 4.22966,4.43699 1.5807,26.59627 1.5807,26.59627 z"
     id="path88"
     style="fill:#646464;fill-opacity:1;stroke-width:0.86251724"
     inkscape:connector-curvature="0" />
  <path
     d="m 460.13145,266.20625 -3.917,2.32986 v -11.46938 l 2.71845,-1.28484 a 85.583299,84.405673 0 0 0 1.19855,10.42436 z"
     id="path90"
     inkscape:connector-curvature="0"
     style="opacity:0.1;stroke-width:0.86251724" />
  <path
     d="m 429.77691,270.40341 28.28748,-16.16333 c 0,0 0.52979,15.64939 3.69986,17.98781 0,0 -11.62939,3.42625 -16.12829,10.6899 z"
     id="path92"
     style="fill:#969696;fill-opacity:1;stroke-width:0.86251724"
     inkscape:connector-curvature="0" />
  <path
     d="m 430.97111,269.86806 28.28748,-16.16334 c 0,0 0.5298,15.6494 3.69987,17.98782 0,0 -11.62939,3.42625 -16.12829,10.6899 z"
     id="path94"
     style="opacity:0.1;fill:#323232;fill-opacity:1;stroke-width:0.86251724"
     inkscape:connector-curvature="0" />
  <path
     d="m 499.31877,284.1855 c 0,0 -13.45327,5.7818 -22.36422,7.90608 a 17.561339,17.319695 0 0 1 -6.1925,0.70238 c -6.07959,-1.04501 1.58938,-8.56563 1.58938,-8.56563 l 3.19613,-0.48824 17.16182,-2.63821 c 0,0 1.84993,-26.07377 5.02001,-23.98375 3.17007,2.09001 1.58938,27.06737 1.58938,27.06737 z"
     id="path96"
     style="fill:#646464;fill-opacity:1;stroke-width:0.86251724"
     inkscape:connector-curvature="0" />
  <path
     d="m 442.46589,260.71569 c 0,0 -11.36884,8.34292 -7.13918,18.77585 4.22966,10.43293 -21.94733,-6.26147 -21.94733,-6.26147 0,0 8.45932,-12.51438 10.30925,-21.90231 1.84993,-9.38792 18.77726,9.38793 18.77726,9.38793 z"
     id="path98"
     style="fill:#646464;fill-opacity:1;stroke-width:0.86251724"
     inkscape:connector-curvature="0" />
  <path
     d="m 441.62343,352.63342 a 59.927417,59.102816 0 0 0 -15.28583,-3.51191 c -7.64292,-0.85656 -14.64314,-2.30415 -18.69909,-3.89736 a 46.838921,46.194418 0 0 0 0.9901,-4.96806 c 0,0 32.51714,6.51844 33.87202,7.56344 0.49505,0.41115 -0.0434,2.48404 -0.8772,4.81389 z"
     id="path100"
     inkscape:connector-curvature="0"
     style="opacity:0.1;stroke-width:0.86251724" />
  <path
     d="m 476.94587,292.09158 a 17.561339,17.319695 0 0 1 -6.1925,0.70238 c -6.0796,-1.04501 1.58938,-8.56563 1.58938,-8.56563 l 3.19612,-0.48824 c 1.33751,2.03005 2.70108,5.19933 1.407,8.35149 z"
     id="path102"
     inkscape:connector-curvature="0"
     style="opacity:0.1;stroke-width:0.86251724" />
  <path
     d="m 423.95787,265.40965 c 0,0 -10.30925,-0.25697 -14.00912,3.91449 -3.69987,4.17146 -2.90952,15.41813 -2.90952,15.41813 0,0 -0.77298,22.51903 5.02001,35.11906 a 1.7370266,1.7131251 0 0 1 0.0608,1.29341 c -0.0608,0.15418 -0.0608,0.06 -0.0608,0.06 0,0 -3.69987,16.42887 -7.39974,19.29836 -3.69986,2.86948 7.92953,6.26147 21.71284,7.82041 13.7833,1.55895 19.29836,5.47344 19.29836,5.47344 0,0 2.37973,-2.56969 2.60554,-8.34292 0.22582,-5.77323 -3.67381,-47.7191 -3.67381,-47.7191 0,0 14.53891,3.64895 23.26747,-0.77947 0,0 3.96911,2.09001 7.66897,-3.64896 3.69987,-5.73897 -2.60554,-11.99188 -2.60554,-11.99188 0,0 -5.81903,5.73897 -21.94733,-1.82447 -16.12829,-7.56345 -22.01681,-14.34743 -27.02813,-14.09046 z"
     id="path104"
     style="fill:#969696;fill-opacity:1;stroke-width:0.86251724"
     inkscape:connector-curvature="0" />
  <path
     d="m 344.90579,417.1754 h -3.17007 v 4.437 l 3.17007,7.04094 c 0,0 4.22966,0.77947 4.4989,0.77947 0.26924,0 3.69987,-0.77947 3.69987,-0.77947 l 1.05958,-1.82448 c 0,0 -11.63808,-4.44556 -9.25835,-9.65346 z"
     id="path106"
     inkscape:connector-curvature="0"
     style="fill:#e6e6f0;stroke-width:0.86251724" />
  <path
     d="m 444.31582,421.34686 -4.75945,10.43293 20.0974,9.42219 15.86773,0.52251 c 0,0 1.32014,-3.64896 -3.9691,-5.47344 l -4.22966,-0.77947 c 0,0 -5.5498,-9.91043 -6.07959,-14.56156 0,0 -5.28925,1.045 -6.0796,4.95093 -0.009,-0.0857 -7.40842,3.5633 -10.84773,-4.51409 z"
     id="path108"
     style="fill:#323232;fill-opacity:1;stroke-width:0.86251724"
     inkscape:connector-curvature="0" />
  <path
     d="m 342.52606,416.1304 -1.61543,1.30197 -7.10444,5.73897 16.38885,21.41406 c 0,0 9.24966,3.9145 13.48801,0 0,0 2.60554,-2.56968 -3.17008,-4.69396 0,0 -4.49889,0.77947 -4.49889,-3.64895 0,-4.42843 1.05958,-9.1224 2.60554,-10.1674 0,0 -3.96911,-1.30198 -5.02001,-0.25697 a 16.779677,16.548788 0 0 0 -2.11917,2.86948 c 0,0 -9.48417,-3.69178 -8.95438,-12.5572 z"
     id="path110"
     inkscape:connector-curvature="0"
     style="fill:#b45181;stroke-width:0.86251724" />
  <path
     d="m 423.16752,251.85027 a 32.134991,31.692814 0 0 1 -1.05958,3.90592 13.748565,13.559385 0 0 0 17.60476,7.46066 21.869164,21.568245 0 0 1 2.23208,-1.97866 c 0,0 -16.92732,-18.77585 -18.77726,-9.38792 z"
     id="path112"
     inkscape:connector-curvature="0"
     style="opacity:0.1;stroke-width:0.86251724" />
  <path
     d="m 421.70842,286.6781 c 0,0 8.19877,10.6899 20.0974,10.95543"
     id="path114"
     inkscape:connector-curvature="0"
     style="opacity:0.1;stroke-width:0.86251724" />
  <g
     id="g124"
     transform="matrix(0.86851328,0,0,0.85656255,65.053442,53.753052)"
     style="opacity:0.1">
    <path
       d="m 552.06,369.22 a 3.44,3.44 0 0 1 -0.56,-0.21 q -0.44,0.23 -0.9,0.43 a 5.69,5.69 0 0 0 1.46,-0.22 z"
       transform="translate(-84.99,-85.07)"
       id="path116"
       inkscape:connector-curvature="0" />
    <path
       d="m 555.3,352 a 15.06,15.06 0 0 0 -1.06,-1.22 c 0,0 -2,2 -6.94,2.38 a 16.8,16.8 0 0 0 8,-1.16 z"
       transform="translate(-84.99,-85.07)"
       id="path118"
       inkscape:connector-curvature="0" />
    <path
       d="m 524.71,369.92 0.06,0.65 a 60.46,60.46 0 0 0 12.18,1 63.38,63.38 0 0 1 -12.24,-1.65 z"
       transform="translate(-84.99,-85.07)"
       id="path120"
       inkscape:connector-curvature="0" />
    <path
       d="m 503.71,429 c -15.83,-1.83 -29.22,-5.78 -25,-9.13 4.22,-3.35 8.52,-22.53 8.52,-22.53 0,0 0,0.11 0.07,-0.07 a 2,2 0 0 0 -0.07,-1.51 c -6.67,-14.75 -5.78,-41 -5.78,-41 0,0 -0.91,-13.09 3.35,-18 3.17,-3.63 10.56,-4.38 14.13,-4.53 a 6.47,6.47 0 0 0 -1,0 c 0,0 -11.87,-0.3 -16.13,4.57 -4.26,4.87 -3.35,18 -3.35,18 0,0 -0.89,26.29 5.78,41 a 2,2 0 0 1 0.07,1.51 c -0.07,0.18 -0.07,0.07 -0.07,0.07 0,0 -4.23,19.12 -8.53,22.47 -4.3,3.35 9.13,7.31 25,9.13 15.87,1.82 22.22,6.39 22.22,6.39 a 7.8,7.8 0 0 0 0.84,-1.23 c -3.09,-1.49 -9.45,-3.94 -20.05,-5.14 z"
       transform="translate(-84.99,-85.07)"
       id="path122"
       inkscape:connector-curvature="0" />
  </g>
  <ellipse
     cx="435.32669"
     cy="250.02579"
     id="circle126"
     style="fill:#646464;fill-opacity:1;stroke-width:0.86251724"
     rx="13.748566"
     ry="13.559385" />
  <path
     d="m 454.89431,243.96133 c -1.13775,2.80952 -4.53364,3.87166 -7.51264,4.59974 -4.25571,1.02787 -8.84146,2.03862 -12.91479,0.44541 a 2.8226682,2.7838283 0 0 0 -1.73703,-0.33406 2.3102453,2.2784564 0 0 0 -1.14643,0.98505 c -4.49022,6.3043 -3.76067,14.70718 -4.92447,22.33058 -0.36478,2.37268 -0.98142,4.82245 -2.60554,6.59553 -3.16139,3.42625 -9.12808,3.29777 -12.0376,6.93816 -1.91941,2.39838 -1.93678,5.7304 -1.91941,8.78833 q 0,4.89097 -0.0868,9.79051 c -0.0521,2.14141 -0.15634,4.35991 -1.13776,6.26147 -1.66754,3.22068 -5.38478,4.75393 -8.81541,5.99594 -2.13654,0.78804 -4.34256,1.58464 -6.63544,1.3705 -2.29287,-0.21414 -4.58575,-1.71312 -4.88104,-3.97445 -0.4082,-3.06649 2.79661,-5.2079 5.00263,-7.41783 3.52617,-3.52047 4.97659,-8.64272 5.10686,-13.59365 a 14.764726,14.561563 0 0 0 -0.86851,-5.88458 c -0.80772,-1.9444 -2.24945,-3.58043 -3.11796,-5.49913 -2.67502,-5.91029 0.62533,-12.74565 4.57706,-17.91929 3.95174,-5.17364 8.80673,-10.21879 9.64918,-16.63445 a 23.389063,23.067229 0 0 1 0.59928,-4.12006 c 0.60796,-1.86731 2.04969,-7.02382 3.63907,-8.20587 a 18.907534,18.647367 0 0 1 8.68513,-3.5633 c 2.44052,-0.35119 4.93316,-0.22271 7.35631,-0.68525 2.83135,-0.53964 5.46295,-1.86731 8.2943,-2.36411 6.12302,-1.07071 12.76715,5.94454 15.45085,11.47793 0.73824,1.696 2.67502,2.89518 1.98021,4.61688 z"
     id="path128"
     inkscape:connector-curvature="0"
     style="opacity:0.1;stroke-width:0.86251724" />
  <path
     d="m 454.89431,243.43882 c -1.13775,2.80953 -4.53364,3.87167 -7.51264,4.59974 -4.25571,1.02788 -8.84146,2.03862 -12.91479,0.44542 a 2.8226682,2.7838283 0 0 0 -1.73703,-0.33406 2.3102453,2.2784564 0 0 0 -1.14643,0.98504 c -4.49022,6.3043 -3.76067,14.70718 -4.92447,22.33059 -0.36478,2.37268 -0.98142,4.82245 -2.60554,6.59553 -3.16139,3.42625 -9.12808,3.29777 -12.0376,6.93816 -1.91941,2.39837 -1.93678,5.7304 -1.91941,8.78833 q 0,4.89097 -0.0868,9.79051 c -0.0521,2.14141 -0.15634,4.3599 -1.13776,6.26147 -1.66754,3.22068 -5.38478,4.75392 -8.81541,5.99594 -2.13654,0.78804 -4.34256,1.58464 -6.63544,1.3705 -2.29287,-0.21414 -4.58575,-1.71313 -4.88104,-3.97445 -0.4082,-3.0665 2.79661,-5.2079 5.00263,-7.41783 3.52617,-3.52048 4.97659,-8.64272 5.10686,-13.59365 a 14.764726,14.561563 0 0 0 -0.86851,-5.88459 c -0.80772,-1.94439 -2.24945,-3.58043 -3.11796,-5.49913 -2.67502,-5.91028 0.62533,-12.74565 4.57706,-17.91929 3.95174,-5.17363 8.80673,-10.21879 9.64918,-16.63444 a 23.389063,23.067229 0 0 1 0.59928,-4.12007 c 0.60796,-1.8673 2.04969,-7.02381 3.63907,-8.20586 a 18.907534,18.647367 0 0 1 8.68513,-3.56331 c 2.44052,-0.35119 4.93316,-0.2227 7.35631,-0.68525 2.83135,-0.53963 5.46295,-1.8673 8.2943,-2.36411 6.12302,-1.0707 12.76715,5.94455 15.45085,11.47794 0.73824,1.69599 2.67502,2.89518 1.98021,4.61687 z"
     id="path130"
     style="fill:#323232;fill-opacity:1;stroke-width:0.86251724"
     inkscape:connector-curvature="0" />
  <path
     d="M 499.31877,217.37362 H 727.88541 V 442.77806 H 499.31877 Z"
     id="path132"
     style="fill:#323232;fill-opacity:1;stroke-width:0.86251724"
     inkscape:connector-curvature="0" />
  <path
     d="m 562.71155,419.25685 17.49186,-10.4415 c 3.37852,5.90172 6.44437,10.89548 13.80936,10.89548 7.06101,0 11.5078,-2.72387 11.5078,-13.31098 V 334.3715 h 21.47834 v 72.31958 c 0,21.93656 -13.0277,31.92408 -32.06552,31.92408 -17.17919,0 -27.14972,-8.77976 -32.21315,-19.36688 m 75.9428,-2.26989 17.48317,-9.98752 c 4.60312,7.41784 10.58718,12.84844 21.17435,12.84844 8.90227,0 14.57366,-4.3856 14.57366,-10.44149 0,-7.26365 -5.82773,-9.83334 -15.63324,-14.07333 l -5.36741,-2.26989 c -15.49428,-6.50131 -25.77748,-14.67291 -25.77748,-31.92408 0,-15.88924 12.2721,-27.99247 31.44887,-27.99247 13.65303,0 23.44986,4.69396 30.52824,16.94281 l -16.71888,10.59568 c -3.6825,-6.50988 -7.66897,-9.07956 -13.80936,-9.07956 -6.28804,0 -10.2832,3.93162 -10.2832,9.07956 0,6.35569 3.98648,8.92538 13.19272,12.84844 l 5.36741,2.26989 c 18.23878,7.70906 28.53935,15.58087 28.53935,33.28602 0,19.06708 -15.1903,29.50858 -35.60905,29.50858 -19.9758,0 -32.8298,-9.42219 -39.0831,-21.63677"
     id="path134"
     inkscape:connector-curvature="0"
     style="fill:#ffffff;fill-opacity:1;stroke-width:0.86251724" />
  <path
     d="m 828.14658,567.87045 c 0,0 -8.91963,0.61673 -14.426,-8.80546 a 32.03077,31.590027 0 0 0 -3.79541,-5.31925 18.238779,17.987813 0 0 1 -2.66633,-9.55068 c 0.30398,-6.98098 -7.07839,-45.21793 -7.07839,-45.21793 0,0 0.92063,-14.56157 -6.46173,-23.66683 -4.86368,-5.99593 -11.85521,-23.12719 -16.0675,-34.19397 a 2.3189305,2.287022 0 0 0 0.9901,0.51393 l -0.1737,-0.95078 h 0.1737 l -2.17996,-11.812 a 54.612115,53.860653 0 0 1 -7.95559,-11.88909 l 0.49506,-0.10278 6.53122,-1.35337 c 0,0 10.61323,-14.87849 11.29067,-22.19354 h 0.86851 1.22461 a 255.34291,251.82939 0 0 1 29.40786,1.51612 v 0 c 0,-0.0428 -0.0695,-0.23127 -0.15634,-0.53107 v 0 a 36.911815,36.403908 0 0 1 -0.95536,-4.47982 h 0.60796 l 6.07959,-0.39402 c 0,0 20.92249,-23.05867 13.22746,-27.30722 -7.69503,-4.24855 -15.69404,19.11848 -15.69404,19.11848 l -2.60554,0.46254 -0.70349,0.12849 c 0.0695,-0.10279 0.13896,-0.19701 0.21713,-0.29123 0.0782,-0.0942 -34.14995,-1.50755 -39.42182,-9.71342 0,0 -15.07739,-11.8377 -15.69404,-19.70094 a 9.023853,8.8996848 0 0 0 -5.41952,-7.57201 11.829151,11.666382 0 0 0 -5.98406,-1.10497 l -7.06101,0.47968 0.49505,0.85656 h -0.19975 a 23.753838,23.426986 0 0 1 -1.1117,-3.08363 h 0.14765 c -0.0521,-0.21414 -0.0955,-0.42828 -0.13897,-0.64242 a 16.614659,16.386041 0 0 0 12.23736,-20.18061 6.6441266,6.5527035 0 0 0 2.07574,-0.06 c 2.60554,-0.5225 4.43811,-3.12645 4.50759,-5.73041 0,-0.17131 0,-0.34262 0,-0.50537 0,0 0,-0.0685 0,-0.10278 a 8.9283166,8.805463 0 0 0 -3.43063,-6.76685 c -1.40699,-1.15636 -3.09191,-1.97866 -4.34257,-3.2635 -1.5199,-1.53325 -2.35367,-3.589 -3.53485,-5.39635 a 16.241198,16.01772 0 0 0 -8.33772,-6.39852 c -2.54475,-0.85656 -5.6714,-0.94222 -7.62555,0.85656 -1.00748,0.93366 -1.58938,2.28703 -2.71845,3.07506 -1.62412,1.1478 -3.83014,0.80517 -5.81904,1.03644 a 11.0996,10.946869 0 0 0 -8.36378,6.17582 14.426006,14.227504 0 0 0 -1.37225,6.52701 17.674245,17.431048 0 0 0 0.55585,4.58261 c 0.38214,1.49042 0.94668,2.92944 1.36356,4.41986 0.86852,3.08362 1.06828,6.33 2.06707,9.37079 a 11.959428,11.794866 0 0 0 3.84751,5.76467 l -0.29529,1.25058 c -0.19108,0 -4.98527,1.05357 -8.29431,8.18874 -2.60554,5.62761 -11.47306,11.43511 -15.37268,13.78209 a 6.409628,6.3214316 0 0 0 -2.90084,3.97445 20.93117,20.643157 0 0 0 -0.49505,5.04515 c -0.0695,3.65753 0.7035,8.71981 3.6825,15.13546 6.76572,14.56157 11.69019,20.93439 11.69019,20.93439 0,0 0.37346,4.46269 0.39951,9.16522 0,3.50334 -0.26055,6.98955 -1.01616,8.73694 -0.6427,1.47329 -0.86851,5.2336 -0.8164,9.53354 0,8.24013 0.8164,18.98999 0.8164,18.98999 0,0 2.35367,0.44542 5.99274,0.96792 l 2.26682,39.33335 a 19.176773,18.912901 0 0 1 -4.34256,13.13967 29.477341,29.071733 0 0 1 -5.46295,5.13938 c -6.46174,4.54834 -20.30584,52.49871 -20.30584,52.49871 0,0 0.67744,0 1.78914,0.12849 l -4.25572,11.70921 c 0,0 17.00549,12.84844 27.34948,9.33653 a 10.022643,9.8847318 0 0 1 3.47406,-0.47968 c 2.041,0 6.40962,-1.5932 3.97779,-3.69178 a 157.65253,155.48323 0 0 1 -13.2622,-13.60221 7.0523279,6.9552879 0 0 1 0.95536,0.55676 v -0.0942 l 0.14765,0.0942 c 0,0 0,-0.47111 0.11291,-1.24201 l -0.14765,-0.0514 c 0.31267,-3.15215 1.30277,-11.13531 3.26561,-12.0604 2.45789,-1.21632 20.61851,-36.72083 20.61851,-36.72083 l 18.15192,-46.1259 c 0,0 14.46075,24.58335 26.76758,28.82333 v 10.27875 c 0,0 6.76572,30.34801 9.2323,33.68004 2.46658,3.33203 0,16.68584 0,16.68584 a 8.433264,8.3172223 0 0 0 1.65886,1.43903 l -1.97153,10.99826 c 0,0 14.15677,-0.60816 38.15379,6.67262 -0.0174,0.0428 9.21493,-3.89736 1.5199,-8.75407 z m -56.60969,-158.70391 -2.99637,0.73665 -0.59059,0.14561 c -0.0608,-0.36832 -0.10423,-0.58246 -0.10423,-0.58246 a 6.079593,5.9959378 0 0 1 -2.17996,0.5225 40.081888,39.530361 0 0 1 -1.82388,-10.23592 69.93269,68.970416 0 0 1 -1.83256,-12.67712 c 0,-2.20994 0.37346,-4.1372 1.21591,-5.22504 l 0.99879,0.0771 0.69481,0.65099 0.0521,0.0428 0.35609,0.31693 v 0 l 0.37346,0.32549 0.0608,0.0514 0.39952,0.35119 0.0695,0.06 0.4082,0.34262 v 0 l 0.46031,0.37689 0.10422,0.0856 0.48637,0.38546 v 0 l 0.47768,0.37689 0.11291,0.0856 0.52979,0.39402 0.11291,0.0771 0.50374,0.36832 0.0869,0.06 0.57322,0.40259 0.13896,0.0942 0.60796,0.41115 h 0.0521 l 0.59059,0.38545 0.13896,0.0942 0.63402,0.40259 0.13896,0.0856 0.59059,0.35976 0.1129,0.0685 0.67745,0.39401 0.16501,0.0942 0.7035,0.38545 h 0.0521 l 0.68612,0.35976 0.16502,0.0856 0.72955,0.35976 0.14765,0.0685 0.67744,0.30837 0.13028,0.06 0.76429,0.32549 0.18239,0.0771 0.79034,0.31693 v 0 c -4.9071,5.32782 -7.42578,17.74797 -7.42578,17.74797 z"
     id="path136"
     style="fill:url(#linearGradient946);stroke-width:0.86251724"
     inkscape:connector-curvature="0" />
  <path
     d="m 695.6462,553.2061 -5.70614,15.70079 c 0,0 15.63324,11.82057 25.79485,9.3708 a 28.391699,28.00103 0 0 1 4.66391,-0.74521 c 2.10181,-0.15418 5.72351,-1.6703 3.47406,-3.589 -7.20866,-6.21864 -16.82311,-17.77367 -16.82311,-17.77367 z"
     id="path138"
     inkscape:connector-curvature="0"
     style="fill:#4f4d59;stroke-width:0.86251724" />
  <path
     d="m 790.56601,551.72425 -2.70107,15.10976 c 0,0 13.81804,-0.59103 37.25053,6.51844 0,0 9.01517,-3.85453 1.50253,-8.56562 0,0 -8.68513,0.59103 -14.11334,-8.56563 -5.42821,-9.15665 -8.68514,-8.00029 -8.68514,-8.00029 z"
     id="path140"
     inkscape:connector-curvature="0"
     style="fill:#4f4d59;stroke-width:0.86251724" />
  <path
     d="m 719.05263,442.1185 2.60554,45.98028 a 19.280995,19.015689 0 0 1 -4.59444,13.44803 28.261422,27.872545 0 0 1 -4.95921,4.56548 c -6.3054,4.44556 -19.82816,51.24814 -19.82816,51.24814 0,0 15.32058,0.85656 19.52418,3.85453 0,0 0.86852,-11.84626 3.30035,-13.03688 2.43184,-1.19062 20.12346,-35.84714 20.12346,-35.84714 l 17.72635,-45.0295 c 0,0 14.11334,23.98375 26.13357,28.14665 v 10.07317 c 0,0 6.60938,29.6285 9.01516,32.88344 2.40579,3.25494 0,16.27469 0,16.27469 0,0 6.94811,8.56562 22.82453,-0.59103 0,0 -5.10685,-5.62762 -4.80288,-12.44585 0.30398,-6.81824 -6.9481,-44.13867 -6.9481,-44.13867 0,0 0.86851,-14.21894 -6.30541,-23.12719 -7.17392,-8.90825 -19.0986,-42.93948 -19.0986,-42.93948 l -8.26825,-17.5424 z"
     id="path142"
     style="fill:#323232;fill-opacity:1;stroke-width:0.86251724"
     inkscape:connector-curvature="0" />
  <g
     id="g148"
     style="opacity:0.1;fill:#969696;fill-opacity:1"
     transform="matrix(0.86851328,0,0,0.85656255,65.053442,53.753052)">
    <path
       d="m 810.53,673 c 0,0 15.56,-54.64 22.83,-59.83 a 33,33 0 0 0 6,-5.68 22,22 0 0 0 5,-15.34 l -3.05,-53.69 51,-31.44 -0.69,-1.49 -53.42,32.94 3.05,53.69 a 22,22 0 0 1 -5,15.34 33,33 0 0 1 -6,5.68 C 823,618.36 807.42,673 807.42,673 c 0,0 17.64,1 22.48,4.5 0,0 0,-0.54 0.13,-1.41 -6.81,-2.34 -19.5,-3.09 -19.5,-3.09 z"
       transform="translate(-84.99,-85.07)"
       id="path144"
       style="fill:#969696;fill-opacity:1"
       inkscape:connector-curvature="0" />
    <path
       d="m 920.86,669.89 c 0,0 2.77,-15.22 0,-19 -2.77,-3.78 -10.38,-38.39 -10.38,-38.39 v -11.78 c -13.83,-4.84 -30.09,-32.86 -30.09,-32.86 l -1.2,3.14 c 4.69,7.44 17.2,25.9 28.19,29.74 v 11.76 c 0,0 7.61,34.59 10.38,38.39 2.77,3.8 0,19 0,19 0,0 3.86,4.86 12.38,4.2 -6.37,-0.53 -9.28,-4.2 -9.28,-4.2 z"
       transform="translate(-84.99,-85.07)"
       id="path146"
       style="fill:#969696;fill-opacity:1"
       inkscape:connector-curvature="0" />
  </g>
  <path
     d="m 822.40571,390.57057 -5.89721,0.38545 -3.10927,0.20558 v -7.40927 l 4.08201,-0.72808 2.52737,-0.45397 c 0,0 7.81662,-22.81026 15.32058,-18.6645 7.50395,4.14576 -12.92348,26.66479 -12.92348,26.66479 z"
     id="path150"
     inkscape:connector-curvature="0"
     style="fill:#714b4f;stroke-width:0.86251724" />
  <path
     d="m 727.78987,329.50623 c 0,0 -3.90831,14.80996 -5.10686,23.98375 -1.19854,9.17378 27.93139,1.78165 27.93139,1.78165 0,0 -11.11697,-13.32811 -4.80288,-20.43758 z"
     id="path152"
     style="fill:#646464;fill-opacity:1;stroke-width:0.86251724"
     inkscape:connector-curvature="0" />
  <path
     d="m 759.32559,391.17873 0.59927,5.62762 -9.31046,-0.59103 -9.31046,-8.0003 -9.31046,-25.78253 -5.99275,-9.19091 -4.50758,-5.62762 1.80651,-6.8525 c 0,0 0.82509,0.71095 2.21471,1.75595 4.57706,3.42625 15.3032,10.62994 23.14588,8.64272 a 9.3452029,9.216613 0 0 0 1.06827,-0.33406 l 11.71624,19.84655 z"
     id="path154"
     inkscape:connector-curvature="0"
     style="fill:#e6e6f0;stroke-width:0.86251724" />
  <path
     d="m 725.68807,339.02264 c 0,0 -4.80288,0.85656 -8.11191,8.00029 -2.53606,5.46487 -11.11697,11.13531 -14.94712,13.42234 a 6.409628,6.3214316 0 0 0 -2.90952,3.99158 c -0.77297,3.37485 -1.06827,9.67059 3.13534,18.72445 6.60938,14.21894 11.41226,20.43759 11.41226,20.43759 0,0 1.19855,14.21894 -0.59927,18.3647 -1.79783,4.14576 0,26.95602 0,26.95602 0,0 31.53571,5.92741 42.05341,0 10.51769,-5.92741 9.01517,-28.73767 9.01517,-28.73767 0,0 9.90973,20.73738 13.51406,21.32841 l -2.1018,-11.55503 c 0,0 -11.71624,-12.44586 -12.31552,-28.43788 0,0 -3.60433,-14.51873 -0.59927,-18.3647 0,0 50.7646,4.14576 53.76966,0.59103 0,0 -33.34223,-1.48186 -38.44909,-9.48215 0,0 -14.7213,-11.55503 -15.32057,-19.25553 a 8.633022,8.5142317 0 0 0 -4.50758,-6.98098 11.75967,11.597857 0 0 0 -6.73098,-1.48185 l -6.78309,0.46254 c 0,0 11.71624,20.43758 11.11697,23.12719 -0.59928,2.6896 0.59927,24.29211 0.59927,24.29211 0,0 -13.55749,-28.73767 -19.52418,-31.99261 -5.96668,-3.25494 -12.92347,-16.65157 -12.92347,-16.65157 l 1.19854,-6.76685"
     id="path156"
     inkscape:connector-curvature="0"
     style="opacity:0.1;stroke-width:0.86251724" />
  <path
     d="m 759.32559,391.17873 0.59927,5.62762 -9.31046,-0.59103 -9.31046,-8.0003 -9.31046,-25.78253 -5.99275,-9.19091 -4.50758,-5.62762 1.80651,-6.8525 c 0,0 0.82509,0.71095 2.21471,1.75595 l -0.41689,2.33842 c 0,0 6.94811,13.3795 12.91479,16.64301 5.96669,3.2635 19.52418,31.99261 19.52418,31.99261 0,0 -1.19855,-21.62821 -0.59927,-24.29211 0.4082,-1.80735 -4.85499,-11.79487 -8.27693,-18.03921 a 9.3452029,9.216613 0 0 0 1.06827,-0.33406 l 11.71624,19.84655 z"
     id="path158"
     inkscape:connector-curvature="0"
     style="opacity:0.1;stroke-width:0.86251724" />
  <path
     d="m 816.5085,390.95602 -3.10927,0.20558 v -7.40927 l 4.08201,-0.72808 c -1.42436,1.85875 -1.37225,5.14795 -0.97274,7.93177 z"
     id="path160"
     inkscape:connector-curvature="0"
     style="opacity:0.1;stroke-width:0.86251724" />
  <path
     d="m 725.68807,338.14038 c 0,0 -4.80288,0.85656 -8.11191,8.00029 -2.53606,5.46487 -11.11697,11.13531 -14.94712,13.42234 a 6.409628,6.3214316 0 0 0 -2.90952,3.99158 c -0.77297,3.37485 -1.06827,9.67059 3.13534,18.72446 6.60938,14.21893 11.41226,20.43758 11.41226,20.43758 0,0 1.19855,14.21894 -0.59927,18.3647 -1.79783,4.14576 0,26.95602 0,26.95602 0,0 31.53571,5.92741 42.05341,0 10.51769,-5.92741 9.01517,-28.73767 9.01517,-28.73767 0,0 9.90105,20.70312 13.51406,21.33697 l -2.1018,-11.55503 c 0,0 -11.71624,-12.44585 -12.31552,-28.43787 0,0 -3.60433,-14.51874 -0.59927,-18.3647 0,0 11.71624,12.44585 24.93502,12.14605 a 248.70746,245.28525 0 0 1 28.83464,1.48186 c 0,0 -3.00506,-9.48215 0,-13.03689 0,0 -33.34223,-1.48185 -38.44909,-9.48214 0,0 -14.7213,-11.55503 -15.32057,-19.25553 a 8.633022,8.5142317 0 0 0 -4.50758,-6.98098 11.75967,11.597857 0 0 0 -6.73098,-1.48186 l -6.78309,0.46255 c 0,0 11.71624,20.43758 11.11697,23.12718 -0.59928,2.68961 0.59927,24.29212 0.59927,24.29212 0,0 -13.55749,-28.75481 -19.52418,-32.00974 -5.96668,-3.25494 -12.92347,-16.61732 -12.92347,-16.61732 l 1.19854,-6.76684"
     id="path162"
     style="fill:#969696;fill-opacity:1;stroke-width:0.86251724"
     inkscape:connector-curvature="0" />
  <path
     d="m 719.05263,369.24216 c 0,0 7.20866,23.98375 11.41226,26.95603 4.20361,2.97227 29.7379,18.07347 37.25054,14.51873 0,0 1.80651,8.89112 -0.86852,10.964 0,0 -28.00955,-1.07927 -28.23536,-1.18205 0,0 -18.32563,-2.37268 -21.33069,-11.25524 -3.00505,-8.88255 -6.60938,-23.98375 -6.60938,-23.98375 z"
     id="path164"
     inkscape:connector-curvature="0"
     style="opacity:0.1;stroke-width:0.86251724" />
  <ellipse
     cx="757.52777"
     cy="394.87051"
     rx="1.0509011"
     ry="1.4818532"
     id="ellipse166"
     style="fill:#ba7855;stroke-width:0.86251724" />
  <ellipse
     cx="760.52411"
     cy="405.23492"
     rx="1.0509011"
     ry="1.4818532"
     id="ellipse168"
     style="fill:#ba7855;stroke-width:0.86251724" />
  <g
     id="g178"
     transform="matrix(0.86851328,0,0,0.85656255,65.053442,53.753052)"
     style="opacity:0.1">
    <path
       d="m 834.23,545 c 0,0 -2.08,-26.63 0,-31.47 2.08,-4.84 0.69,-21.44 0.69,-21.44 0,0 -5.53,-7.26 -13.14,-23.86 -4.85,-10.57 -4.5,-17.92 -3.61,-21.86 a 7.38,7.38 0 0 1 3.35,-4.66 c 4.41,-2.7 14.28,-9.29 17.21,-15.67 2.15,-4.68 4.84,-7.05 6.78,-8.23 l 0.13,-0.76 c 0,0 -5.53,1 -9.34,9.34 -2.92,6.38 -12.8,13 -17.21,15.67 a 7.38,7.38 0 0 0 -3.35,4.66 c -0.89,3.94 -1.23,11.29 3.61,21.86 7.61,16.6 13.14,23.86 13.14,23.86 0,0 1.38,16.6 -0.69,21.44 -2.07,4.84 0,31.47 0,31.47 0,0 25.94,4.94 41.28,2.29 -15.49,1.85 -38.85,-2.64 -38.85,-2.64 z"
       transform="translate(-84.99,-85.07)"
       id="path170"
       inkscape:connector-curvature="0" />
    <path
       d="m 880.91,453.39 c -0.47,2.13 0,14.66 0.39,22.34 1.67,3.41 2.72,5.68 2.72,5.68 0,0 -1.38,-25.25 -0.69,-28.36 0.66,-3 -11.49,-24.66 -12.7,-26.8 l -2.52,0.17 c 0,0 13.5,23.86 12.8,26.97 z"
       transform="translate(-84.99,-85.07)"
       id="path172"
       inkscape:connector-curvature="0" />
    <path
       d="m 920,482.44 c -15.22,0.35 -28.71,-14.18 -28.71,-14.18 a 5.54,5.54 0 0 0 -0.87,1.87 c 4,3.72 15,12.93 27.16,12.65 a 286.36,286.36 0 0 1 33.2,1.73 c 0,0 -0.07,-0.23 -0.18,-0.62 A 275.32,275.32 0 0 0 920,482.44 Z"
       transform="translate(-84.99,-85.07)"
       id="path174"
       inkscape:connector-curvature="0" />
    <path
       d="m 893,511.49 c 0,0 0.14,2.16 0.06,5.4 3.6,7.14 10.15,19.35 13.08,19.84 l -0.51,-2.84 C 900.6,527.57 893,511.49 893,511.49 Z"
       transform="translate(-84.99,-85.07)"
       id="path176"
       inkscape:connector-curvature="0" />
  </g>
  <path
     d="m 775.24544,416.01904 -6.38357,1.32768 -5.03738,1.045 2.70107,-7.40926 1.88468,-0.46255 2.92689,-0.71951 c 0,0 4.2036,-20.73738 12.6195,-19.25553 8.41589,1.48186 -8.71119,25.47417 -8.71119,25.47417 z"
     id="path180"
     style="fill:#646464;fill-opacity:1;stroke-width:0.86251724"
     inkscape:connector-curvature="0" />
  <path
     d="m 768.87055,417.37241 -5.03738,1.04501 2.70108,-7.40927 1.88467,-0.46254 a 29.998449,29.58567 0 0 1 0.45163,6.8268 z"
     id="path182"
     inkscape:connector-curvature="0"
     style="opacity:0.1;stroke-width:0.86251724" />
  <path
     d="m 719.05263,368.65114 c 0,0 7.20866,23.98375 11.41226,26.95602 4.20361,2.97227 29.7379,18.07347 37.25054,14.51873 0,0 1.80651,8.89112 -0.86852,10.964 0,0 -28.00955,-1.07926 -28.23536,-1.18205 0,0 -18.32563,-2.37268 -21.33069,-11.25523 -3.00505,-8.88256 -6.60938,-23.98376 -6.60938,-23.98376 z"
     id="path184"
     style="fill:#969696;fill-opacity:1;stroke-width:0.86251724"
     inkscape:connector-curvature="0" />
  <path
     d="m 728.08517,330.14008 c 0,0 -0.60796,2.32129 -1.42437,5.69614 a 16.215143,15.992023 0 0 0 17.90006,8.13735 c -0.72086,-3.0408 -0.56453,-6.11586 1.54596,-8.4971 z"
     id="path186"
     inkscape:connector-curvature="0"
     style="opacity:0.1;stroke-width:0.86251724" />
  <ellipse
     cx="740.70465"
     cy="327.7674"
     id="circle188"
     style="fill:#646464;fill-opacity:1;stroke-width:0.86251724"
     rx="16.223829"
     ry="16.000589" />
  <path
     d="m 754.79195,323.36467 a 8.6851328,8.5656255 0 0 0 3.61302,0.22271 5.949316,5.8674534 0 0 0 4.39467,-5.59335 8.6851328,8.5656255 0 0 0 -3.34377,-6.6041 c -1.37225,-1.13066 -3.01374,-1.92727 -4.27309,-3.18641 -1.48516,-1.49899 -2.30156,-3.50334 -3.47405,-5.26786 a 15.850367,15.632266 0 0 0 -8.13797,-6.24434 c -2.48395,-0.85657 -5.53243,-0.92509 -7.44316,0.85656 -0.98142,0.91652 -1.55464,2.22706 -2.64897,3.00653 -1.58938,1.11353 -3.74329,0.78804 -5.68007,1.01075 a 10.830361,10.681335 0 0 0 -8.16403,5.99593 15.294519,15.084066 0 0 0 -0.79903,10.27876 c 0.37346,1.45615 0.92931,2.86091 1.32883,4.28281 0.86851,3.0151 1.04221,6.17581 2.01495,9.14809 0.97273,2.97227 2.979,5.88458 6.01879,6.77541 a 19.029126,18.767285 0 0 1 1.93679,-9.6706 2.813983,2.7752626 0 0 1 1.37225,-1.50755 3.3177207,3.2720689 0 0 1 1.65017,0 16.501752,16.274688 0 0 0 10.9867,-2.1928 c 1.15512,-0.68525 2.95294,-3.04936 4.17755,-3.28063 1.58069,-0.26553 4.82024,1.61034 6.47042,1.97009 z"
     id="path190"
     inkscape:connector-curvature="0"
     style="opacity:0.1;stroke-width:0.86251724" />
  <path
     d="m 754.79195,322.77365 a 8.6851328,8.5656255 0 0 0 3.61302,0.2227 5.949316,5.8674534 0 0 0 4.39467,-5.59335 8.6851328,8.5656255 0 0 0 -3.34377,-6.6041 c -1.37225,-1.13066 -3.01374,-1.92726 -4.27309,-3.18641 -1.48516,-1.49899 -2.30156,-3.50334 -3.47405,-5.26786 a 15.850367,15.632266 0 0 0 -8.13797,-6.24434 c -2.48395,-0.85656 -5.53243,-0.92509 -7.44316,0.85656 -0.98142,0.91652 -1.55464,2.22706 -2.64897,3.00653 -1.58938,1.11354 -3.74329,0.78804 -5.68007,1.01075 a 10.830361,10.681335 0 0 0 -8.16403,5.99594 15.294519,15.084066 0 0 0 -0.79903,10.27875 c 0.37346,1.45615 0.92931,2.86092 1.32883,4.28281 0.86851,3.0151 1.04221,6.17582 2.01495,9.14809 0.97273,2.97227 2.979,5.88458 6.01879,6.77541 a 19.029126,18.767285 0 0 1 1.95416,-9.66203 2.813983,2.7752626 0 0 1 1.37225,-1.50755 3.3177207,3.2720689 0 0 1 1.65017,0 16.501752,16.274688 0 0 0 10.9867,-2.1928 c 1.15512,-0.68525 2.95294,-3.04936 4.17755,-3.28063 1.56332,-0.2741 4.80287,1.60177 6.45305,1.96153 z"
     id="path192"
     style="fill:#323232;fill-opacity:1;stroke-width:0.86251724"
     inkscape:connector-curvature="0" />
  <path
     d="M 916.6394,269.96656 903.40326,416.18179 843.9101,432.45648 784.58196,416.18179 771.36318,269.96656 Z"
     id="path194"
     style="fill:#323232;fill-opacity:1;stroke-width:0.86251724"
     inkscape:connector-curvature="0" />
  <path
     d="m 843.99695,420.01919 48.07221,-13.13967 11.29067,-124.95534 h -59.36288 z"
     id="path196"
     style="fill:#646464;fill-opacity:1;stroke-width:0.86251724"
     inkscape:connector-curvature="0" />
  <path
     d="m 818.27159,317.79702 h 25.72536 V 299.8606 H 798.4 l 0.43426,4.81388 4.47284,49.42366 h 40.69853 v -17.93642 h -24.0665 z m 4.13412,45.26933 h -18.23878 l 2.54474,28.16377 37.20711,10.22736 h 0.0869 v -18.71589 h -0.0782 l -20.25373,-5.39634 z"
     id="path198"
     inkscape:connector-curvature="0"
     style="fill:#ebebeb;stroke-width:0.86251724" />
  <path
     d="m 784.88594,230.22206 h 9.24098 v 9.00247 h 8.45063 v -9.00247 h 9.24098 v 27.27295 h -9.24098 v -9.13095 h -8.45063 v 9.13095 h -9.24098 z m 39.08309,9.0453 h -8.13797 v -9.0453 h 25.51692 v 9.0453 h -8.13797 v 18.22765 h -9.23229 v -18.22765 0 z m 21.43491,-9.0453 h 9.6405 l 5.93194,9.58494 5.92326,-9.58494 h 9.6405 v 27.27295 h -9.20624 v -13.51655 l -6.35752,9.69628 h -0.15633 l -6.3662,-9.69628 v 13.51655 h -9.04991 z m 35.73064,0 h 9.24098 v 18.25335 h 13.0277 v 9.01104 h -22.24263 v -27.26439 z"
     id="path200"
     inkscape:connector-curvature="0"
     style="stroke-width:0.86251724" />
  <path
     d="m 843.93615,354.09814 h 22.39028 l -2.11049,23.26424 -20.27979,5.39634 v 18.69876 l 37.28528,-10.19309 0.26924,-3.03223 4.27308,-47.2223 0.44294,-4.81388 h -42.27054 v 17.93642 z m 0,-36.34395 v 0.0428 h 43.92941 l 0.36477,-4.03441 0.86851,-9.0967 0.43426,-4.81388 h -45.59695 v 17.89359 z"
     id="path202"
     inkscape:connector-curvature="0"
     style="fill:#ffffff;stroke-width:0.86251724" />
  <path
     d="m 383.56332,377.91058 c -1.6936,-4.89098 -4.13413,-11.13532 -6.0796,-12.55721 a 1.8151928,1.7902157 0 0 0 -0.38214,-0.23127 h -0.24319 v -6.03877 l -4.56838,0.71951 a 43.660163,43.059399 0 0 1 -1.65886,-6.68975 3.1527032,3.109322 0 0 0 3.43063,0.67669 c -0.0782,-0.11992 -0.13896,-0.24841 -0.20844,-0.37689 l 0.20844,-0.0857 a 8.4853748,8.3686161 0 0 1 -1.10301,-4.10293 15.146872,14.938451 0 0 1 0.63401,-3.87167 c 0.81641,-2.78382 2.19734,-5.38777 2.97032,-8.18017 a 20.166878,19.889382 0 0 0 0.69481,-5.53339 20.444803,20.163482 0 0 0 -2.13654,-9.12239 5.4021526,5.327819 0 0 0 -1.61544,-2.08145 20.844319,20.557501 0 0 0 -1.98021,-0.95078 10.691399,10.544285 0 0 1 -2.87478,-2.82666 25.829585,25.47417 0 0 0 -12.48053,-8.21444 7.3041967,7.203691 0 0 0 -3.98648,-0.30836 c -3.06585,0.85656 -4.18623,4.56548 -6.67018,6.52701 -2.19734,1.71312 -5.21108,1.91013 -7.95558,2.4926 a 13.531437,13.345244 0 0 0 -7.40842,3.82883 8.042433,7.9317692 0 0 0 -1.9889,5.29356 5.3934675,5.3192534 0 0 0 2.19734,4.72822 6.8873103,6.792541 0 0 0 5.81904,0.81374 19.793418,19.52106 0 0 0 14.98186,24.54051 l 0.53847,0.94222 v 0 a 40.985142,40.421187 0 0 1 3.70856,9.56781 c -4.20361,2.35554 -8.79804,4.55691 -11.5686,4.76248 a 19.498123,19.229829 0 0 1 -0.59927,3.16072 17.691616,17.448179 0 0 1 -3.63908,7.06664 c -3.76934,4.18002 -20.73141,35.78718 -20.73141,35.78718 0,0 -0.53848,1.25915 -1.40699,3.42625 -10.53506,1.27628 -27.72294,3.11789 -32.52582,2.16711 l -18.84674,-17.66232 c 0,0 -6.07959,4.58261 -5.55848,10.15026 l -3.39589,-3.18641 c 0,0 -17.90875,13.47373 10.37005,22.27063 l 43.02615,4.92523 c -4.09939,12.19745 -7.92085,26.39069 -6.73967,34.11689 h 0.35609 a 16.267254,16.043416 0 0 0 2.4579,-0.18845 l -0.0782,1.3705 -4.14281,73.17614 c 0,0 -0.94668,13.47373 11.77704,19.52106 0,0 15.55507,45.08089 9.42337,50.19457 0,0 0.72955,0.37688 1.95415,0.90795 l -12.7932,11.13532 c 0,0 -9.42336,2.32128 -14.60839,1.85874 a 3.7432923,3.6917846 0 0 0 -4.13412,2.74956 c 0,0.0942 0,0.18845 -0.0521,0.29123 v 0.11992 c 0,0.0942 0,0.19701 0,0.2998 0,0.10279 0,0.0771 0,0.11135 0,0.0343 0,0.17132 0,0.25697 v 0.11136 c 0,0.10278 0,0.197 0.0608,0.29979 v 0.11136 q 0.0434,0.16274 0.10422,0.31692 v 0.10279 c 0.0434,0.10279 0.0955,0.20558 0.14765,0.30836 v 0.0685 c 0.0608,0.10279 0.12159,0.20557 0.19107,0.30836 l 0.0608,0.0857 q 0.11291,0.16274 0.25187,0.32549 l 0.0695,0.0857 c 0.0955,0.11135 0.19976,0.21414 0.31267,0.32549 h 0.0521 l 0.3474,0.29123 0.0782,0.06 0.42557,0.2998 0.10422,0.0685 0.49505,0.28267 h 0.0782 l 0.52979,0.25697 h 0.0782 l 0.61664,0.2484 0.13028,0.0514 0.68613,0.22271 h 0.1129 l 0.73824,0.18844 h 0.0608 l 0.86852,0.16275 h 0.16502 l 0.86851,0.12849 h 0.16502 l 0.99879,0.0942 c 1.93678,0.14561 4.55101,0.19701 7.57343,0.18844 v 0 c 0,0 0,0.0771 0,0.11135 0,0.0343 0,0.17132 0,0.25697 v 0.11136 c 0,0.10278 0,0.19701 0.0608,0.29979 v 0.11136 q 0.0434,0.16274 0.10422,0.31692 v 0.10279 c 0.0434,0.10279 0.0955,0.20558 0.14765,0.30836 v 0.0685 c 0.0608,0.10279 0.12159,0.20557 0.19107,0.30836 l 0.0608,0.0857 q 0.1129,0.16275 0.25186,0.32549 l 0.0695,0.0857 c 0.0955,0.11135 0.19975,0.21414 0.31266,0.32549 h 0.0434 l 0.3474,0.29123 0.0782,0.06 0.42557,0.2998 0.10422,0.0685 0.48637,0.28267 h 0.0782 l 0.5298,0.25697 h 0.0782 l 0.61665,0.2484 0.13028,0.0514 0.68612,0.2227 h 0.11291 l 0.73823,0.18845 h 0.0608 l 0.86851,0.16274 h 0.16502 l 0.86851,0.12849 h 0.16502 l 0.99879,0.0942 c 12.25472,0.93365 51.36388,-1.85874 51.36388,-1.85874 v -0.11135 0 -0.13705 0 c 0.39083,-1.79879 2.26682,-12.25741 -4.40337,-19.99217 0.19976,-0.20558 0.39084,-0.41972 0.57322,-0.64243 0,0 -5.21108,-8.83116 -2.35367,-11.61498 2.85741,-2.78383 -13.80067,-50.69138 -13.80067,-50.69138 0,0 -8.95438,-13.94483 -3.76935,-29.74841 5.18502,-15.80358 -0.469,-32.99479 -0.469,-32.99479 0,0 12.37632,-3.6147 12.60213,-18.63024 0,-0.45398 0,-0.92509 0,-1.39619 a 5.0026365,4.9338003 0 0 0 0.78166,0.0514 3.6564409,3.6061283 0 0 0 0.52111,0 c 0,0 -2.35367,-8.36862 0.469,-14.40738 2.82266,-6.03877 8.95437,-0.46255 14.60839,-25.09729 4.0907,-17.82506 7.68634,-38.3226 9.37126,-48.30156 a 25.786159,25.431342 0 0 0 -1.03372,-12.34314 z m -107.53932,52.25031 -4.29914,-4.02584 c 1.42436,0.58246 3.00506,1.14779 4.76814,1.71312 l 16.19777,1.87587 c -7.22603,0.64243 -13.97438,1.00218 -16.66677,0.46255 z"
     id="path204"
     style="fill:url(#016d359d-0d48-4404-968f-1612e9b5c7a7);stroke-width:0.86251724"
     inkscape:connector-curvature="0" />
  <path
     d="m 317.04388,427.81391 c 0,0 -33.33353,4.56548 -40.28164,3.19498 l -18.5167,-17.35396 c 0,0 -17.59608,13.24246 10.18766,21.91944 l 51.85024,5.93598 z"
     id="path206"
     style="fill:#646464;fill-opacity:1;stroke-width:0.86251724"
     inkscape:connector-curvature="0" />
  <path
     d="m 317.04388,427.81391 c 0,0 -33.33353,4.56548 -40.28164,3.19498 l -18.5167,-17.35396 c 0,0 -17.59608,13.24246 10.18766,21.91944 l 51.85024,5.93598 z"
     id="path208"
     style="opacity:0.05;fill:#ffffff;fill-opacity:1;stroke-width:0.86251724"
     inkscape:connector-curvature="0" />
  <path
     d="M 251.79248,439.33468 179.75799,419.63374 163.70786,242.06832 h 176.38637 l -16.0675,177.53972 z"
     id="path210"
     style="fill:#323232;fill-opacity:1;stroke-width:0.86251724"
     inkscape:connector-curvature="0" />
  <path
     d="m 310.26948,408.30998 13.7312,-151.71436 h -72.08661 v 167.63786 z"
     id="path212"
     style="fill:#646464;fill-opacity:1;stroke-width:0.86251724"
     inkscape:connector-curvature="0" />
  <path
     d="m 200.5502,322.42245 1.98021,21.77382 h 49.4184 v -21.77382 z m -3.97779,-44.0787 2.00626,21.77382 h 53.36146 v -21.77382 h -55.41115 z m 55.36772,100.63753 h -0.0955 l -24.59629,-6.5527 -1.57201,-17.37109 h -22.20789 l 3.09191,34.19397 45.23217,12.4116 h 0.10422 z"
     id="path214"
     inkscape:connector-curvature="0"
     style="fill:#ebebeb;stroke-width:0.86251724" />
  <path
     d="m 205.2228,193.79246 h 26.74152 v 11.03252 h -15.56375 v 11.03253 h 15.56375 v 11.03252 H 205.2228 Z m 32.13499,0 h 26.74153 v 9.5935 h -15.5985 v 1.9187 h 15.56375 v 22.06505 h -26.7502 v -10.07318 h 15.56375 v -1.9187 h -15.56375 v -21.58537 z m 32.13499,0 h 26.74153 v 9.5935 h -15.64193 v 1.9187 h 15.56376 v 22.06505 h -26.75021 v -10.07318 h 15.56376 v -1.9187 h -15.56376 v -21.58537 z"
     id="path216"
     inkscape:connector-curvature="0"
     style="stroke-width:0.86251724" />
  <path
     d="m 303.15636,322.42245 3.98647,-44.0787 h -55.35035 v 21.77382 h 31.11883 l -2.00626,22.27062 h -29.11257 v 21.77382 h 27.19315 l -2.60554,28.26657 -24.58761,6.56983 v 22.65608 l 45.26691,-12.37733 0.33004,-3.68322 5.21108,-57.33829 0.53848,-5.85033 z"
     id="path218"
     inkscape:connector-curvature="0"
     style="fill:#ffffff;stroke-width:0.86251724" />
  <path
     d="m 329.09016,613.19118 -16.20645,14.15041 c 0,0 -9.25836,2.28702 -14.34784,1.82448 -5.08949,-0.46255 -7.40842,7.76045 4.62917,8.67698 12.0376,0.91652 50.46062,-1.82448 50.46062,-1.82448 0,0 3.69987,-14.61296 -7.40841,-22.82739 z"
     id="path220"
     style="fill:#969696;fill-opacity:1;stroke-width:0.86251724"
     inkscape:connector-curvature="0" />
  <path
     d="m 329.09016,613.19118 -16.20645,14.15041 c 0,0 -9.25836,2.28702 -14.34784,1.82448 -5.08949,-0.46255 -7.40842,7.76045 4.62917,8.67698 12.0376,0.91652 50.46062,-1.82448 50.46062,-1.82448 0,0 3.69987,-14.61296 -7.40841,-22.82739 z"
     id="path222"
     style="opacity:0.05;fill:#969696;fill-opacity:1;stroke-width:0.86251724"
     inkscape:connector-curvature="0" />
  <path
     d="m 354.19888,629.7057 a 25.534291,25.182939 0 0 1 -0.5819,4.95093 c 0,0 -38.42303,2.741 -50.46062,1.82448 -5.79299,-0.43684 -8.25088,-2.56969 -8.68514,-4.6083 -0.52979,2.34698 1.57201,5.43917 8.68514,5.99593 12.03759,0.91653 50.46062,-1.82447 50.46062,-1.82447 a 26.750209,26.382126 0 0 0 0.5819,-6.33857 z"
     id="path224"
     inkscape:connector-curvature="0"
     style="opacity:0.3;fill:#ffffff;stroke-width:0.86251724" />
  <path
     d="m 348.05849,354.34654 c 0,0 10.18767,14.15041 6.47911,23.74391 -3.70855,9.59351 19.44602,-10.04747 19.44602,-10.04747 0,0 -7.40842,-12.83988 -3.69987,-26.54488 z"
     id="path226"
     style="fill:#646464;fill-opacity:1;stroke-width:0.86251724"
     inkscape:connector-curvature="0" />
  <path
     d="m 345.27925,618.67318 -16.18909,14.15041 c 0,0 -9.25835,2.28702 -14.34784,1.82448 -5.08948,-0.46255 -7.40841,7.76045 4.62918,8.67698 12.03759,0.91652 50.46062,-1.82448 50.46062,-1.82448 0,0 3.69987,-14.61296 -7.40842,-22.82739 z"
     id="path228"
     style="fill:#969696;fill-opacity:1;stroke-width:0.86251724"
     inkscape:connector-curvature="0" />
  <path
     d="m 349.93448,615.4782 c -2.41446,2.93801 -5.81904,4.06867 -9.37994,4.23998 -8.09454,0.37689 -17.00549,-4.23998 -17.00549,-4.23998 6.0188,-5.01946 -9.25835,-49.31231 -9.25835,-49.31231 -12.49791,-5.93598 -11.57728,-19.17843 -11.57728,-19.17843 l 4.04727,-71.8656 1.02484,-18.05634 12.96691,-7.76046 10.21371,7.70907 9.69261,7.33217 a 38.961506,38.425396 0 0 1 1.21592,7.1266 c 1.12907,16.78006 -12.3242,20.72882 -12.3242,20.72882 0,0 5.55848,16.89141 0.46031,32.42089 -5.09817,15.52948 3.69986,29.22591 3.69986,29.22591 0,0 16.66677,47.48783 13.89622,50.22883 -2.77056,2.741 2.32761,11.40085 2.32761,11.40085 z"
     id="path230"
     style="fill:#323232;fill-opacity:1;stroke-width:0.86251724"
     inkscape:connector-curvature="0" />
  <path
     d="m 349.93448,615.4782 c -2.41446,2.93801 -5.81904,4.06867 -9.37994,4.23998 -8.09454,0.37689 -17.00549,-4.23998 -17.00549,-4.23998 6.0188,-5.01946 -9.25835,-49.31231 -9.25835,-49.31231 -12.49791,-5.93598 -11.57728,-19.17843 -11.57728,-19.17843 l 4.04727,-71.8656 1.02484,-18.05634 12.96691,-7.76046 10.21371,7.70907 9.69261,7.33217 a 38.961506,38.425396 0 0 1 1.21592,7.1266 c 1.12907,16.78006 -12.3242,20.72882 -12.3242,20.72882 0,0 5.55848,16.89141 0.46031,32.42089 -5.09817,15.52948 3.69986,29.22591 3.69986,29.22591 0,0 16.66677,47.48783 13.89622,50.22883 -2.77056,2.741 2.32761,11.40085 2.32761,11.40085 z"
     id="path232"
     style="opacity:0.05;fill:#323232;fill-opacity:1;stroke-width:0.86251724"
     inkscape:connector-curvature="0" />
  <path
     d="m 366.11489,620.95163 c -7.86873,9.58494 -26.38544,0 -26.38544,0 a 2.9529452,2.9123127 0 0 0 0.80772,-1.24201 c 3.39589,-9.10526 -11.45569,-52.63577 -11.45569,-52.63577 -12.49791,-5.93598 -13.89621,-20.08639 -13.89621,-20.08639 l -3.2743,-73.16758 -0.42557,-9.47358 19.48075,-7.33217 5.98406,-2.25276 19.93238,15.06693 a 36.104097,35.607305 0 0 1 1.25066,9.57637 c -0.25187,14.74144 -12.385,18.30474 -12.385,18.30474 0,0 5.55848,16.89142 0.46031,32.4209 -5.09817,15.52948 3.72592,29.18308 3.72592,29.18308 0,0 16.66677,47.48783 13.89622,50.22883 -2.77056,2.741 2.28419,11.40941 2.28419,11.40941 z"
     id="path234"
     style="fill:#323232;fill-opacity:1;stroke-width:0.86251724"
     inkscape:connector-curvature="0" />
  <path
     d="m 358.13325,479.40467 c -4.00385,-0.56533 -12.10708,-5.31925 -16.26726,-7.8975 -1.58937,-0.98505 -2.60554,-1.6446 -2.60554,-1.6446 0,0 -4.16886,-11.41798 -15.27714,-2.741 a 41.593101,41.02078 0 0 1 -12.07234,6.73258 28.244052,27.855414 0 0 1 -5.15028,1.27628 l 1.02484,-18.05634 12.96691,-7.76046 10.21371,7.70906 5.98406,-2.25276 19.93238,15.05837 a 36.104097,35.607305 0 0 1 1.25066,9.57637 z"
     id="path236"
     inkscape:connector-curvature="0"
     style="opacity:0.1;stroke-width:0.86251724" />
  <path
     d="m 383.18986,391.78689 c -1.65018,9.79908 -5.21108,29.97969 -9.20624,47.445 -5.55849,24.19789 -11.57729,18.71589 -14.34784,24.65187 -2.77056,5.93598 -0.46032,14.15041 -0.46032,14.15041 -4.62917,0.45398 -19.90632,-9.58493 -19.90632,-9.58493 0,0 -4.16886,-11.41798 -15.27715,-2.741 -11.10828,8.67698 -19.90632,8.21443 -19.90632,8.21443 -2.31893,-15.06693 14.81683,-55.24828 14.81683,-55.24828 0,0 16.66677,-31.05039 20.36664,-35.11907 a 17.370266,17.131251 0 0 0 3.57827,-6.93815 19.150718,18.887204 0 0 0 0.59059,-3.10076 c 6.0188,-0.45398 20.84432,-10.50146 20.84432,-10.50146 l 11.57728,-1.82447 v 5.93597 a 1.7370266,1.7131251 0 0 1 0.38215,0.23128 c 1.90204,1.43046 4.34257,7.52918 5.96669,12.3345 a 25.334532,24.985929 0 0 1 0.98142,12.09466 z"
     id="path238"
     style="fill:#969696;fill-opacity:1;stroke-width:0.86251724"
     inkscape:connector-curvature="0" />
  <path
     d="m 329.09016,434.66641 -5.98405,-0.68525 -45.86619,-5.25073 C 249.4475,420.05345 267.05226,406.811 267.05226,406.811 l 18.5167,17.35395 c 5.34136,1.05358 26.29859,-1.40476 35.68721,-2.56968 2.81399,-0.35976 4.59444,-0.5996 4.59444,-0.5996 z"
     id="path240"
     style="fill:#646464;fill-opacity:1;stroke-width:0.86251724"
     inkscape:connector-curvature="0" />
  <path
     d="m 373.98362,373.02817 c 0,0 -12.0376,-9.58493 -30.12873,21.45689 -18.09113,31.04183 -22.22525,26.02237 -22.22525,26.02237 0,0 3.69986,13.705 1.84993,16.43744 0,0 12.4979,-0.91652 17.12708,0 4.62918,0.91652 33.33354,-34.69935 33.33354,-34.69935 0,0 14.86026,-20.08639 0.0434,-29.21735 z"
     id="path242"
     inkscape:connector-curvature="0"
     style="opacity:0.1;stroke-width:0.86251724" />
  <path
     d="m 373.5233,371.20369 c 0,0 -12.03759,-9.58493 -30.09398,21.45689 -18.05639,31.04183 -22.22526,26.02237 -22.22526,26.02237 0,0 14.34784,15.52092 18.97702,16.43744 4.62917,0.91652 33.33354,-34.69935 33.33354,-34.69935 0,0 14.82552,-20.08639 0.009,-29.21735 z"
     id="path244"
     inkscape:connector-curvature="0"
     style="opacity:0.1;stroke-width:0.86251724" />
  <path
     d="m 323.09742,434.00686 c 0.19108,-3.38342 -1.10301,-9.32797 -1.84993,-12.41159 2.81398,-0.35976 4.59443,-0.5996 4.59443,-0.5996 l 3.23956,13.705 z"
     id="path246"
     inkscape:connector-curvature="0"
     style="opacity:0.1;stroke-width:0.86251724" />
  <path
     d="m 373.98362,372.11165 c 0,0 -12.0376,-9.58494 -30.12873,21.46546 -18.09113,31.05039 -22.22525,26.02237 -22.22525,26.02237 0,0 3.69986,13.705 1.84993,16.43743 0,0 12.4979,-0.91652 17.12708,0 4.62918,0.91652 33.33354,-34.69935 33.33354,-34.69935 0,0 14.86026,-20.09496 0.0434,-29.22591 z"
     id="path248"
     style="fill:#969696;fill-opacity:1;stroke-width:0.86251724"
     inkscape:connector-curvature="0" />
  <path
     d="m 370.7788,342.43176 -22.25999,12.77134 a 47.498991,46.845406 0 0 1 2.60554,4.18003 19.532864,19.264092 0 0 0 3.89094,0.38545 c 5.93194,0 8.68513,-6.14155 12.27209,-10.27875 -0.26056,-3.2892 2.46658,-3.37486 3.49142,-7.05807 z"
     id="path250"
     inkscape:connector-curvature="0"
     style="opacity:0.1;stroke-width:0.86251724" />
  <ellipse
     cx="354.5376"
     cy="339.69931"
     id="circle252"
     style="fill:#646464;fill-opacity:1;stroke-width:0.86251724"
     rx="19.446012"
     ry="19.178434" />
  <path
     d="m 329.95868,324.18697 a 13.288253,13.105407 0 0 1 7.27814,-3.76887 c 2.70108,-0.5739 5.66271,-0.74521 7.81662,-2.44977 2.44052,-1.92727 3.53485,-5.59335 6.54859,-6.41565 a 7.1826049,7.0837723 0 0 1 3.91699,0.30836 25.369273,25.020192 0 0 1 12.26341,8.06882 10.500326,10.355841 0 0 0 2.83135,2.78383 20.496913,20.214876 0 0 1 1.94547,0.93365 5.3066162,5.2335972 0 0 1 1.5807,2.04718 20.132138,19.85512 0 0 1 1.40699,13.93628 c -0.75561,2.74956 -2.11049,5.30212 -2.9182,8.04312 -0.80772,2.741 -1.00748,5.84176 0.46031,8.29152 -1.42436,0.71952 -3.22219,-0.18844 -4.11676,-1.49898 -0.89456,-1.31054 -1.1638,-2.92088 -1.6328,-4.43699 a 17.153137,16.91711 0 0 0 -5.02001,-7.70907 c -1.4591,-1.26771 -4.06464,-2.12427 -5.0808,-0.48824 -0.39083,0.63386 -0.36478,1.44759 -0.7035,2.10715 -0.66007,1.29341 -2.60554,1.55037 -3.84751,0.85656 a 5.8972052,5.8160597 0 0 1 -2.40578,-3.52047 c -1.90205,-6.36426 -5.15897,-10.36441 -12.05497,-7.64911 -2.60554,1.01075 -5.60191,1.71313 -8.07717,0 -3.17007,-2.29558 -2.53606,-6.84393 -0.19107,-9.43932 z"
     id="path254"
     inkscape:connector-curvature="0"
     style="opacity:0.1;stroke-width:0.86251724" />
  <path
     d="m 329.95868,323.72443 a 13.288253,13.105407 0 0 1 7.27814,-3.76888 c 2.70108,-0.57389 5.66271,-0.7452 7.81662,-2.44976 2.44052,-1.92727 3.53485,-5.59336 6.54859,-6.41566 a 7.1826049,7.0837723 0 0 1 3.91699,0.30836 25.369273,25.020192 0 0 1 12.26341,8.06882 10.500326,10.355841 0 0 0 2.83135,2.78383 20.496913,20.214876 0 0 1 1.94547,0.93366 5.3066162,5.2335972 0 0 1 1.5807,2.04718 20.132138,19.85512 0 0 1 1.40699,13.93627 c -0.75561,2.74957 -2.11049,5.30212 -2.9182,8.04312 -0.80772,2.741 -1.00748,5.84176 0.46031,8.29153 -1.42436,0.71951 -3.22219,-0.18844 -4.11676,-1.49898 -0.89456,-1.31054 -1.1638,-2.92088 -1.6328,-4.437 a 17.153137,16.91711 0 0 0 -5.02001,-7.70906 c -1.4591,-1.26771 -4.06464,-2.12428 -5.0808,-0.48824 -0.39083,0.63385 -0.36478,1.44759 -0.7035,2.10714 -0.66007,1.29341 -2.60554,1.55038 -3.84751,0.85656 a 5.8972052,5.8160597 0 0 1 -2.40578,-3.52047 c -1.90205,-6.36426 -5.15897,-10.3644 -12.05497,-7.6491 -2.60554,1.01074 -5.60191,1.71312 -8.07717,0 -3.17007,-2.28702 -2.53606,-6.83537 -0.19107,-9.43932 z"
     id="path256"
     style="fill:#323232;fill-opacity:1;stroke-width:0.86251724"
     inkscape:connector-curvature="0" />
  <path
     d="m 376.21569,367.32346 h -9.40599 c 0,0 -18.51671,9.13096 -18.97702,8.67698 -0.31266,-0.30836 -3.17876,0.22271 -4.99395,0.59103 a 19.150718,18.887204 0 0 0 0.59059,-3.10076 c 6.0188,-0.45397 20.84432,-10.50145 20.84432,-10.50145 l 11.57728,-1.82448 v 5.93598 a 1.7370266,1.7131251 0 0 1 0.36477,0.2227 z"
     id="path258"
     inkscape:connector-curvature="0"
     style="opacity:0.05;stroke-width:0.86251724" />
  <path
     d="m 370.39666,635.17914 a 25.534291,25.182939 0 0 1 -0.58191,4.95093 c 0,0 -38.42303,2.741 -50.46062,1.82448 -5.79298,-0.43685 -8.25088,-2.56969 -8.68513,-4.60831 -0.5298,2.34698 1.57201,5.43917 8.68513,5.99594 12.03759,0.91652 50.46062,-1.82448 50.46062,-1.82448 a 26.750209,26.382126 0 0 0 0.58191,-6.33856 z"
     id="path260"
     inkscape:connector-curvature="0"
     style="opacity:0.3;fill:#ffffff;stroke-width:0.86251724" />
  <g
     id="g266"
     transform="matrix(0.86851328,0,0,0.85656255,65.053442,53.753052)"
     style="opacity:0.05">
    <path
       d="m 378.06,565.48 c -7.19,5.7 -13.55,8 -17.73,9 0,0.4 0.08,0.79 0.14,1.17 0,0 10.13,0.53 22.92,-9.59 a 17.18,17.18 0 0 1 6.85,-3.58 c -2.79,-1.37 -6.77,-1.28 -12.18,3 z"
       transform="translate(-84.99,-85.07)"
       id="path262"
       inkscape:connector-curvature="0" />
    <path
       d="m 450.4,465.54 c -1.91,-5.61 -4.68,-12.72 -6.87,-14.4 a 2,2 0 0 0 -0.44,-0.27 c 0,0 -4.41,0.15 -4.26,0.27 2.19,1.67 4.33,8.26 6.24,13.86 a 29.17,29.17 0 0 1 1.16,14.16 c -1.9,11.44 -6,35 -10.6,55.39 -6.4,28.25 -13.33,21.85 -16.52,28.78 -2.62,5.68 -1.31,13.14 -0.74,15.65 a 13.41,13.41 0 0 0 5.54,1.41 c 0,0 -2.67,-9.59 0.53,-16.52 3.2,-6.93 10.13,-0.53 16.52,-28.78 4.63,-20.44 8.7,-44 10.6,-55.39 a 29.17,29.17 0 0 0 -1.16,-14.16 z"
       transform="translate(-84.99,-85.07)"
       id="path264"
       inkscape:connector-curvature="0" />
  </g>
  <path
     d="m 436.22128,464.93733 a 10.13555,9.9960849 0 0 0 3.3264,-4.95093 c 0.43426,-1.97009 -0.41688,-4.32564 -2.32761,-5.04515 -2.13654,-0.80517 -4.42073,0.65098 -6.14908,2.13284 -1.72834,1.48185 -3.71723,3.16071 -5.98405,2.84378 a 9.1020192,8.9767755 0 0 0 2.81398,-8.40287 3.5609045,3.5119064 0 0 0 -0.78166,-1.71313 c -1.18986,-1.25058 -3.33509,-0.71095 -4.75945,0.2741 -4.51627,3.13502 -5.77562,9.18235 -5.80167,14.63009 -0.45163,-1.96153 -0.0695,-4.00871 -0.0869,-5.99594 -0.0174,-1.98722 -0.57322,-4.28281 -2.29288,-5.32782 a 6.9481063,6.8525004 0 0 0 -3.47405,-0.81373 c -2.03232,-0.0771 -4.29046,0.12848 -5.68008,1.5932 -1.73703,1.81592 -1.27671,4.87385 0.22581,6.8525 1.50253,1.97866 3.77804,3.25494 5.87984,4.64257 a 13.027699,12.848438 0 0 1 4.2036,3.94876 3.9691057,3.9144908 0 0 1 0.31267,0.70238 h 12.72372 a 35.461397,34.973449 0 0 0 7.85136,-5.37065 z"
     id="path268"
     style="fill:#323232;fill-opacity:1;stroke-width:0.86251724"
     inkscape:connector-curvature="0" />
  <path
     d="m 459.59297,625.77408 c 2.02364,-1.85874 3.92568,-4.05154 4.51627,-6.71545 0.59059,-2.66391 -0.56453,-5.86745 -3.1527,-6.8525 -2.89215,-1.0964 -5.99275,0.85656 -8.33773,2.88662 -2.34499,2.03005 -5.03738,4.28281 -8.10323,3.85453 a 12.341574,12.171754 0 0 0 3.81277,-11.39229 4.8289339,4.7624878 0 0 0 -1.05958,-2.31271 c -1.60675,-1.71313 -4.52496,-0.96792 -6.44437,0.36832 -6.07959,4.28281 -7.81662,12.44585 -7.86005,19.82942 -0.61664,-2.66391 -0.0955,-5.43917 -0.1129,-8.17161 -0.0174,-2.73243 -0.77298,-5.7561 -3.10928,-7.22938 a 9.3712583,9.2423099 0 0 0 -4.74208,-1.0964 c -2.75319,-0.10279 -5.81904,0.17131 -7.69503,2.15853 -2.3363,2.4669 -1.73703,6.6041 0.30398,9.3194 2.041,2.71531 5.12423,4.41987 7.96426,6.29574 a 17.66556,17.422482 0 0 1 5.68877,5.35351 5.3760972,5.3021222 0 0 1 0.42557,0.95935 H 448.945 a 48.080895,47.419303 0 0 0 10.64797,-7.25508 z"
     id="path270"
     style="fill:#323232;fill-opacity:1;stroke-width:0.86251724"
     inkscape:connector-curvature="0" />
</svg>
