<?xml version="1.0" encoding="UTF-8" standalone="no"?>
<svg
   xmlns:dc="http://purl.org/dc/elements/1.1/"
   xmlns:cc="http://creativecommons.org/ns#"
   xmlns:rdf="http://www.w3.org/1999/02/22-rdf-syntax-ns#"
   xmlns:svg="http://www.w3.org/2000/svg"
   xmlns="http://www.w3.org/2000/svg"
   xmlns:xlink="http://www.w3.org/1999/xlink"
   xmlns:sodipodi="http://sodipodi.sourceforge.net/DTD/sodipodi-0.dtd"
   xmlns:inkscape="http://www.inkscape.org/namespaces/inkscape"
   id="d208afe9-d246-44b1-9723-4e792280c828"
   data-name="Layer 1"
   width="904"
   height="754.77"
   viewBox="0 0 904 754.77"
   version="1.1"
   sodipodi:docname="Web%3A%0ABack-End.svg"
   inkscape:version="0.92.4 (5da689c313, 2019-01-14)">
  <metadata
     id="metadata159">
    <rdf:RDF>
      <cc:Work
         rdf:about="">
        <dc:format>image/svg+xml</dc:format>
        <dc:type
           rdf:resource="http://purl.org/dc/dcmitype/StillImage" />
      </cc:Work>
    </rdf:RDF>
  </metadata>
  <sodipodi:namedview
     pagecolor="#ffffff"
     bordercolor="#666666"
     borderopacity="1"
     objecttolerance="10"
     gridtolerance="10"
     guidetolerance="10"
     inkscape:pageopacity="0"
     inkscape:pageshadow="2"
     inkscape:window-width="1920"
     inkscape:window-height="1017"
     id="namedview157"
     showgrid="false"
     inkscape:zoom="0.88438701"
     inkscape:cx="309.57469"
     inkscape:cy="400.99669"
     inkscape:window-x="-8"
     inkscape:window-y="-8"
     inkscape:window-maximized="1"
     inkscape:current-layer="d208afe9-d246-44b1-9723-4e792280c828" />
  <defs
     id="defs14">
    <linearGradient
       id="d0586609-2d1f-4894-831f-bc1bf1cfe805"
       x1="205.5"
       y1="458.72"
       x2="205.5"
       gradientUnits="userSpaceOnUse">
      <stop
         offset="0"
         stop-color="gray"
         stop-opacity="0.25"
         id="stop2" />
      <stop
         offset="0.54"
         stop-color="gray"
         stop-opacity="0.12"
         id="stop4" />
      <stop
         offset="1"
         stop-color="gray"
         stop-opacity="0.1"
         id="stop6" />
    </linearGradient>
    <linearGradient
       id="dc1a1433-8955-4fce-8d84-3a5c46e8d5cb"
       x1="347.94"
       y1="120.14"
       x2="347.94"
       y2="40.02"
       xlink:href="#d0586609-2d1f-4894-831f-bc1bf1cfe805"
       gradientTransform="matrix(0.86491319,0,0,0.84719302,58.797788,62.189968)" />
    <linearGradient
       id="6583b9bd-7f21-4a55-b428-c52c7257def0"
       x1="347.94"
       y1="269.14"
       x2="347.94"
       y2="189.02"
       xlink:href="#d0586609-2d1f-4894-831f-bc1bf1cfe805"
       gradientTransform="matrix(0.86491319,0,0,0.84719302,58.797788,62.189968)" />
    <linearGradient
       id="d5bb9150-ad00-4040-8c31-39c92932ad3e"
       x1="347.94"
       y1="417.14"
       x2="347.94"
       y2="337.02"
       xlink:href="#d0586609-2d1f-4894-831f-bc1bf1cfe805"
       gradientTransform="matrix(0.86491319,0,0,0.84719302,58.797788,62.189968)" />
    <linearGradient
       id="43ab44a3-beba-4304-ae82-955b08a7fed3"
       x1="660.91"
       y1="754.77"
       x2="660.91"
       y2="737.77"
       xlink:href="#d0586609-2d1f-4894-831f-bc1bf1cfe805"
       gradientTransform="matrix(0.86491319,0,0,0.84719302,58.797788,62.189968)" />
    <linearGradient
       id="e180fe82-c096-4b7f-a7fc-e0d67eafb4b3"
       x1="810"
       y1="732"
       x2="810"
       y2="417"
       xlink:href="#d0586609-2d1f-4894-831f-bc1bf1cfe805"
       gradientTransform="matrix(0.86491319,0,0,0.84719302,-69.209363,0.66681042)" />
    <linearGradient
       inkscape:collect="always"
       xlink:href="#d0586609-2d1f-4894-831f-bc1bf1cfe805"
       id="linearGradient935"
       gradientUnits="userSpaceOnUse"
       x1="205.5"
       y1="458.72"
       x2="205.5"
       gradientTransform="matrix(0.86491319,0,0,0.84719302,58.797788,62.189968)" />
  </defs>
  <title
     id="title16">server</title>
  <rect
     width="355.47934"
     height="388.62439"
     id="rect18"
     style="fill:url(#linearGradient935);stroke-width:0.85600728"
     x="58.797787"
     y="62.189968" />
  <rect
     x="64.67054"
     y="321.65973"
     width="343.72516"
     height="120.69112"
     id="rect20"
     style="fill:#ffffff;stroke-width:0.85600728" />
  <rect
     x="92.88401"
     y="350.28638"
     width="13.319662"
     height="61.845093"
     id="rect22"
     style="fill:#64ffda;stroke-width:0.85600728" />
  <g
     id="g26"
     transform="matrix(0.86491319,0,0,0.84719302,58.797788,62.189968)"
     style="opacity:0.7">
    <rect
       x="69.809998"
       y="340.06"
       width="15.4"
       height="73"
       id="rect24"
       style="fill:#64ffda" />
  </g>
  <g
     id="g30"
     transform="matrix(0.86491319,0,0,0.84719302,58.797788,62.189968)"
     style="opacity:0.6">
    <rect
       x="100.22"
       y="340.06"
       width="15.4"
       height="73"
       id="rect28"
       style="fill:#64ffda" />
  </g>
  <g
     id="g34"
     transform="matrix(0.86491319,0,0,0.84719302,58.797788,62.189968)"
     style="opacity:0.5">
    <rect
       x="130.62"
       y="340.06"
       width="15.4"
       height="73"
       id="rect32"
       style="fill:#64ffda" />
  </g>
  <g
     id="g38"
     transform="matrix(0.86491319,0,0,0.84719302,58.797788,62.189968)"
     style="opacity:0.5">
    <rect
       x="161.02"
       y="340.06"
       width="15.4"
       height="73"
       id="rect36"
       style="fill:#64ffda" />
  </g>
  <g
     id="g42"
     transform="matrix(0.86491319,0,0,0.84719302,58.797788,62.189968)"
     style="opacity:0.4">
    <rect
       x="191.42"
       y="340.06"
       width="15.4"
       height="73"
       id="rect40"
       style="fill:#64ffda" />
  </g>
  <g
     id="g46"
     transform="matrix(0.86491319,0,0,0.84719302,58.797788,62.189968)"
     style="opacity:0.3">
    <rect
       x="221.83"
       y="340.06"
       width="15.4"
       height="73"
       id="rect44"
       style="fill:#64ffda" />
  </g>
  <ellipse
     cx="359.73572"
     cy="380.81076"
     id="circle48"
     rx="32.140175"
     ry="31.481693"
     style="fill:#00bfa6;stroke-width:0.85600728" />
  <rect
     x="64.67054"
     y="196.26674"
     width="343.72516"
     height="120.69112"
     id="rect50"
     style="fill:#ffffff;stroke-width:0.85600728" />
  <rect
     x="92.88401"
     y="224.89339"
     width="13.319662"
     height="61.845093"
     id="rect52"
     style="fill:#64ffda;stroke-width:0.85600728" />
  <g
     id="g56"
     transform="matrix(0.86491319,0,0,0.84719302,58.797788,62.189968)"
     style="opacity:0.7">
    <rect
       x="69.809998"
       y="192.05"
       width="15.4"
       height="73"
       id="rect54"
       style="fill:#64ffda" />
  </g>
  <g
     id="g60"
     transform="matrix(0.86491319,0,0,0.84719302,58.797788,62.189968)"
     style="opacity:0.6">
    <rect
       x="100.22"
       y="192.05"
       width="15.4"
       height="73"
       id="rect58"
       style="fill:#64ffda" />
  </g>
  <g
     id="g64"
     transform="matrix(0.86491319,0,0,0.84719302,58.797788,62.189968)"
     style="opacity:0.5">
    <rect
       x="130.62"
       y="192.05"
       width="15.4"
       height="73"
       id="rect62"
       style="fill:#64ffda" />
  </g>
  <g
     id="g68"
     transform="matrix(0.86491319,0,0,0.84719302,58.797788,62.189968)"
     style="opacity:0.5">
    <rect
       x="161.02"
       y="192.05"
       width="15.4"
       height="73"
       id="rect66"
       style="fill:#64ffda" />
  </g>
  <g
     id="g72"
     transform="matrix(0.86491319,0,0,0.84719302,58.797788,62.189968)"
     style="opacity:0.4">
    <rect
       x="191.42"
       y="192.05"
       width="15.4"
       height="73"
       id="rect70"
       style="fill:#64ffda" />
  </g>
  <g
     id="g76"
     transform="matrix(0.86491319,0,0,0.84719302,58.797788,62.189968)"
     style="opacity:0.3">
    <rect
       x="221.83"
       y="192.05"
       width="15.4"
       height="73"
       id="rect74"
       style="fill:#64ffda" />
  </g>
  <ellipse
     cx="359.73572"
     cy="255.42625"
     id="circle78"
     rx="32.140175"
     ry="31.481693"
     style="fill:#00bfa6;stroke-width:0.85600728" />
  <rect
     x="64.67054"
     y="70.873703"
     width="343.72516"
     height="120.69112"
     id="rect80"
     style="fill:#ffffff;stroke-width:0.85600728" />
  <rect
     x="92.88401"
     y="99.50882"
     width="13.319662"
     height="61.845093"
     id="rect82"
     style="fill:#64ffda;stroke-width:0.85600728" />
  <g
     id="g86"
     transform="matrix(0.86491319,0,0,0.84719302,58.797788,62.189968)"
     style="opacity:0.7">
    <rect
       x="69.809998"
       y="44.049999"
       width="15.4"
       height="73"
       id="rect84"
       style="fill:#64ffda" />
  </g>
  <g
     id="g90"
     transform="matrix(0.86491319,0,0,0.84719302,58.797788,62.189968)"
     style="opacity:0.6">
    <rect
       x="100.22"
       y="44.049999"
       width="15.4"
       height="73"
       id="rect88"
       style="fill:#64ffda" />
  </g>
  <g
     id="g94"
     transform="matrix(0.86491319,0,0,0.84719302,58.797788,62.189968)"
     style="opacity:0.5">
    <rect
       x="130.62"
       y="44.049999"
       width="15.4"
       height="73"
       id="rect92"
       style="fill:#64ffda" />
  </g>
  <g
     id="g98"
     transform="matrix(0.86491319,0,0,0.84719302,58.797788,62.189968)"
     style="opacity:0.5">
    <rect
       x="161.02"
       y="44.049999"
       width="15.4"
       height="73"
       id="rect96"
       style="fill:#64ffda" />
  </g>
  <g
     id="g102"
     transform="matrix(0.86491319,0,0,0.84719302,58.797788,62.189968)"
     style="opacity:0.4">
    <rect
       x="191.42"
       y="44.049999"
       width="15.4"
       height="73"
       id="rect100"
       style="fill:#64ffda" />
  </g>
  <g
     id="g106"
     transform="matrix(0.86491319,0,0,0.84719302,58.797788,62.189968)"
     style="opacity:0.3">
    <rect
       x="221.83"
       y="44.049999"
       width="15.4"
       height="73"
       id="rect104"
       style="fill:#64ffda" />
  </g>
  <ellipse
     cx="359.73572"
     cy="130.03319"
     id="circle108"
     style="fill:url(#dc1a1433-8955-4fce-8d84-3a5c46e8d5cb);stroke-width:0.85600728"
     rx="34.648426"
     ry="33.938553" />
  <ellipse
     cx="359.73572"
     cy="256.26492"
     id="circle110"
     style="fill:url(#6583b9bd-7f21-4a55-b428-c52c7257def0);stroke-width:0.85600728"
     rx="34.648426"
     ry="33.938553" />
  <ellipse
     cx="359.73572"
     cy="381.64948"
     id="circle112"
     style="fill:url(#d5bb9150-ad00-4040-8c31-39c92932ad3e);stroke-width:0.85600728"
     rx="34.648426"
     ry="33.938553" />
  <ellipse
     cx="359.73572"
     cy="130.03319"
     id="circle114"
     rx="32.140175"
     ry="31.481693"
     style="fill:#00bfa6;stroke-width:0.85600728" />
  <g
     id="g126"
     transform="matrix(0.86491319,0,0,0.84719302,58.797788,62.189968)"
     style="opacity:0.7">
    <line
       x1="461"
       y1="158.67"
       x2="467"
       y2="158.67"
       id="line116"
       style="fill:none;stroke:#00bfa6;stroke-width:4;stroke-linecap:round;stroke-linejoin:round" />
    <line
       x1="500.38"
       y1="158.67"
       x2="667.31"
       y2="158.67"
       id="line118"
       style="fill:none;stroke:#00bfa6;stroke-width:4;stroke-linecap:round;stroke-linejoin:round;stroke-dasharray:12.52, 33.38" />
    <polyline
       points="684 158.67 690 158.67 690 164.67"
       id="polyline120"
       style="fill:none;stroke:#00bfa6;stroke-width:4;stroke-linecap:round;stroke-linejoin:round" />
    <line
       x1="690"
       y1="196.48"
       x2="690"
       y2="311.76999"
       id="line122"
       style="fill:none;stroke:#00bfa6;stroke-width:4;stroke-linecap:round;stroke-linejoin:round;stroke-dasharray:11.93, 31.8" />
    <line
       x1="690"
       y1="327.67001"
       x2="690"
       y2="333.67001"
       id="line124"
       style="fill:none;stroke:#00bfa6;stroke-width:4;stroke-linecap:round;stroke-linejoin:round" />
  </g>
  <g
     id="g138"
     transform="matrix(0.86491319,0,0,0.84719302,58.797788,62.189968)"
     style="opacity:0.7">
    <line
       x1="367.57999"
       y1="611.66998"
       x2="361.57999"
       y2="611.64001"
       id="line128"
       style="fill:none;stroke:#00bfa6;stroke-width:4;stroke-linecap:round;stroke-linejoin:round" />
    <line
       x1="328.20001"
       y1="611.47998"
       x2="161.28"
       y2="610.67999"
       id="line130"
       style="fill:none;stroke:#00bfa6;stroke-width:4;stroke-linecap:round;stroke-linejoin:round;stroke-dasharray:12.52, 33.38" />
    <polyline
       points="144.58 610.61 138.58 610.58 138.62 604.58"
       id="polyline132"
       style="fill:none;stroke:#00bfa6;stroke-width:4;stroke-linecap:round;stroke-linejoin:round" />
    <line
       x1="138.82001"
       y1="573.78998"
       x2="139.28"
       y2="504.51999"
       id="line134"
       style="fill:none;stroke:#00bfa6;stroke-width:4;stroke-linecap:round;stroke-linejoin:round;stroke-dasharray:11.55, 30.79" />
    <line
       x1="139.38"
       y1="489.12"
       x2="139.42"
       y2="483.12"
       id="line136"
       style="fill:none;stroke:#00bfa6;stroke-width:4;stroke-linecap:round;stroke-linejoin:round" />
  </g>
  <path
     d="m 682.58182,596.31128 c 0,0 10.30977,68.1821 71.15641,90.91228 H 507.23797 c 60.84664,-22.73018 71.15641,-90.91228 71.15641,-90.91228 z"
     id="path140"
     inkscape:connector-curvature="0"
     style="fill:#e0e0e0;stroke-width:0.85600728" />
  <rect
     x="506.03577"
     y="687.22363"
     width="248.79225"
     height="14.402282"
     id="rect142"
     style="fill:url(#43ab44a3-beba-4304-ae82-955b08a7fed3);stroke-width:0.85600728" />
  <rect
     x="507.27258"
     y="687.22363"
     width="246.46565"
     height="11.115172"
     id="rect144"
     style="fill:#f5f5f5;stroke-width:0.85600728" />
  <path
     d="M 831.38149,353.94629 H 431.35914 a 9.2978167,9.107325 0 0 0 -9.29782,9.10733 V 609.91719 A 11.122784,10.894902 0 0 0 433.1841,620.8121 H 829.55652 A 11.122784,10.894902 0 0 0 840.6793,609.91719 V 363.05362 a 9.2978167,9.107325 0 0 0 -9.29781,-9.10733 z"
     id="path146"
     style="fill:url(#e180fe82-c096-4b7f-a7fc-e0d67eafb4b3);stroke-width:0.85600728"
     inkscape:connector-curvature="0" />
  <path
     d="m 436.39293,357.67394 h 388.22493 a 9.2978167,9.107325 0 0 1 9.29782,9.10734 V 578.13052 H 427.09512 V 366.78974 a 9.2978167,9.107325 0 0 1 9.29781,-9.1158 z"
     id="path148"
     inkscape:connector-curvature="0"
     style="fill:#ffffff;stroke-width:0.85600728" />
  <path
     d="M 822.7929,614.49205 H 438.21789 a 11.122784,10.894902 0 0 1 -11.12277,-10.89491 v -25.46662 h 406.82056 v 25.46662 a 11.122784,10.894902 0 0 1 -11.12278,10.89491 z"
     id="path150"
     inkscape:connector-curvature="0"
     style="fill:#f5f5f5;stroke-width:0.85600728" />
  <rect
     x="447.43793"
     y="375.47345"
     width="368.1503"
     height="177.96136"
     id="rect152"
     style="fill:#000000;fill-opacity:1;stroke-width:0.85600728" />
  <polygon
     points="465.91,383.8 874.99,383.8 874.99,369.79 449.34,369.79 449.34,579.85 465.91,579.85 "
     id="polygon154"
     transform="matrix(0.86491319,0,0,0.84719302,58.797788,62.189968)"
     style="opacity:0.2;fill:#ffffff" />
  <path
     style="opacity:1;vector-effect:none;fill:#000000;fill-opacity:1;stroke:#000000;stroke-width:9.6791029;stroke-linecap:butt;stroke-linejoin:bevel;stroke-miterlimit:4;stroke-dasharray:none;stroke-dashoffset:0;stroke-opacity:1;paint-order:stroke fill markers"
     d="m 351.21306,159.98196 c -14.45038,-4.01022 -24.74335,-18.73488 -23.037,-32.95573 1.30136,-10.8458 8.80684,-20.91884 19.00163,-25.50196 6.91504,-3.108687 18.40133,-2.918147 25.68388,0.42606 6.65905,3.0579 11.74939,7.88737 15.30969,14.52511 2.34536,4.37267 2.68036,6.0747 2.68036,13.6187 0,7.49119 -0.34062,9.24943 -2.59812,13.41121 -3.34488,6.16643 -9.84183,12.30767 -15.69531,14.836 -5.82514,2.51606 -15.50858,3.26035 -21.34513,1.64061 z"
     id="path1002"
     inkscape:connector-curvature="0" />
  <path
     style="opacity:1;vector-effect:none;fill:#000000;fill-opacity:1;stroke:#000000;stroke-width:9.6791029;stroke-linecap:butt;stroke-linejoin:bevel;stroke-miterlimit:4;stroke-dasharray:none;stroke-dashoffset:0;stroke-opacity:1;paint-order:stroke fill markers"
     d="m 352.64071,285.68732 c -10.02293,-2.34878 -20.31415,-11.68191 -23.05366,-20.90745 -0.71949,-2.42296 -1.27586,-7.26296 -1.23635,-10.75557 0.24206,-21.40395 24.81172,-35.96712 44.91528,-26.62264 19.20779,8.92812 24.0332,33.75396 9.51567,48.95638 -7.61392,7.97314 -19.81395,11.74932 -30.14094,9.32928 z"
     id="path1004"
     inkscape:connector-curvature="0" />
  <path
     style="opacity:1;vector-effect:none;fill:#000000;fill-opacity:1;stroke:#000000;stroke-width:9.6791029;stroke-linecap:butt;stroke-linejoin:bevel;stroke-miterlimit:4;stroke-dasharray:none;stroke-dashoffset:0;stroke-opacity:1;paint-order:stroke fill markers"
     d="m 352.1703,410.95139 c -14.73308,-4.0647 -23.83651,-15.6712 -23.80857,-30.35496 0.0166,-8.74707 2.49316,-14.82579 8.52127,-20.91593 6.12598,-6.18901 12.42395,-9.01091 21.22428,-9.50987 9.65039,-0.54718 16.72608,1.95269 23.28465,8.22657 7.13594,6.8262 9.4777,12.31118 9.4777,22.19923 0,6.97913 -0.3913,8.92304 -2.73871,13.6053 -6.52904,13.02322 -22.50157,20.46287 -35.96062,16.74966 z"
     id="path1006"
     inkscape:connector-curvature="0" />
  <path
     style="opacity:1;vector-effect:none;fill:#000000;fill-opacity:1;stroke:none;stroke-width:1.71103978;stroke-linecap:butt;stroke-linejoin:bevel;stroke-miterlimit:4;stroke-dasharray:none;stroke-dashoffset:0;stroke-opacity:1;paint-order:stroke fill markers"
     d="M 92.971803,130.4321 V 99.611833 h 6.5696 6.569597 v 30.820267 30.82027 h -6.569597 -6.5696 z"
     id="path1010"
     inkscape:connector-curvature="0" />
  <path
     style="opacity:1;vector-effect:none;fill:#000000;fill-opacity:1;stroke:none;stroke-width:6.84415913;stroke-linecap:butt;stroke-linejoin:bevel;stroke-miterlimit:4;stroke-dasharray:none;stroke-dashoffset:0;stroke-opacity:1;paint-order:stroke fill markers"
     d="m 92.824483,255.94245 v -30.48159 h 6.56959 6.569607 v 30.48159 30.48157 h -6.569607 -6.56959 z"
     id="path1024"
     inkscape:connector-curvature="0" />
  <path
     style="opacity:1;vector-effect:none;fill:#000000;fill-opacity:1;stroke:none;stroke-width:6.84415913;stroke-linecap:butt;stroke-linejoin:bevel;stroke-miterlimit:4;stroke-dasharray:none;stroke-dashoffset:0;stroke-opacity:1;paint-order:stroke fill markers"
     d="m 92.824483,381.25562 v -30.48159 h 6.56959 6.569607 v 30.48159 30.48159 h -6.569607 -6.56959 z"
     id="path1026"
     inkscape:connector-curvature="0" />
  <path
     style="opacity:1;vector-effect:none;fill:#000000;fill-opacity:1;stroke:none;stroke-width:6.84415913;stroke-linecap:butt;stroke-linejoin:bevel;stroke-miterlimit:4;stroke-dasharray:none;stroke-dashoffset:0;stroke-opacity:1;paint-order:stroke fill markers"
     d="M 119.10287,130.29057 V 99.470303 h 6.56959 6.5696 v 30.820267 30.82028 h -6.5696 -6.56959 z"
     id="path1028"
     inkscape:connector-curvature="0" />
  <path
     style="opacity:1;vector-effect:none;fill:#000000;fill-opacity:1;stroke:none;stroke-width:6.84415913;stroke-linecap:butt;stroke-linejoin:bevel;stroke-miterlimit:4;stroke-dasharray:none;stroke-dashoffset:0;stroke-opacity:1;paint-order:stroke fill markers"
     d="m 119.26871,255.7731 0.17992,-30.65093 6.39671,-0.19476 6.39672,-0.19476 v 30.84568 30.84569 h -6.57664 -6.57665 z"
     id="path1030"
     inkscape:connector-curvature="0" />
  <path
     style="opacity:1;vector-effect:none;fill:#141414;fill-opacity:1;stroke:none;stroke-width:6.84415913;stroke-linecap:butt;stroke-linejoin:bevel;stroke-miterlimit:4;stroke-dasharray:none;stroke-dashoffset:0;stroke-opacity:1;paint-order:stroke fill markers"
     d="m 119.10287,381.25562 v -30.48159 h 6.56959 6.5696 v 30.48159 30.48159 h -6.5696 -6.56959 z"
     id="path1032"
     inkscape:connector-curvature="0" />
  <path
     style="opacity:1;vector-effect:none;fill:#646464;fill-opacity:1;stroke:none;stroke-width:6.84415913;stroke-linecap:butt;stroke-linejoin:bevel;stroke-miterlimit:4;stroke-dasharray:none;stroke-dashoffset:0;stroke-opacity:1;paint-order:stroke fill markers"
     d="M 145.38125,130.29057 V 99.470303 h 6.56961 6.56959 v 30.820267 30.82028 h -6.56959 -6.56961 z"
     id="path1038"
     inkscape:connector-curvature="0" />
  <path
     style="opacity:1;vector-effect:none;fill:#646464;fill-opacity:1;stroke:none;stroke-width:6.84415913;stroke-linecap:butt;stroke-linejoin:bevel;stroke-miterlimit:4;stroke-dasharray:none;stroke-dashoffset:0;stroke-opacity:1;paint-order:stroke fill markers"
     d="m 145.5471,255.7731 0.17992,-30.65093 6.39672,-0.19476 6.39671,-0.19476 v 30.84568 30.84569 h -6.57665 -6.57664 z"
     id="path1040"
     inkscape:connector-curvature="0" />
  <path
     style="opacity:1;vector-effect:none;fill:#646464;fill-opacity:1;stroke:none;stroke-width:6.84415913;stroke-linecap:butt;stroke-linejoin:bevel;stroke-miterlimit:4;stroke-dasharray:none;stroke-dashoffset:0;stroke-opacity:1;paint-order:stroke fill markers"
     d="m 145.38125,381.25562 v -30.48159 h 6.56961 6.56959 v 30.48159 30.48159 h -6.56959 -6.56961 z"
     id="path1042"
     inkscape:connector-curvature="0" />
  <path
     style="opacity:1;vector-effect:none;fill:#646464;fill-opacity:1;stroke:none;stroke-width:6.84415913;stroke-linecap:butt;stroke-linejoin:bevel;stroke-miterlimit:4;stroke-dasharray:none;stroke-dashoffset:0;stroke-opacity:1;paint-order:stroke fill markers"
     d="m 171.82549,381.08628 0.17992,-30.65092 6.39672,-0.19477 6.3967,-0.19476 v 30.84569 30.84569 h -6.57663 -6.57665 z"
     id="path1044"
     inkscape:connector-curvature="0" />
  <path
     style="opacity:1;vector-effect:none;fill:#646464;fill-opacity:1;stroke:none;stroke-width:6.84415913;stroke-linecap:butt;stroke-linejoin:bevel;stroke-miterlimit:4;stroke-dasharray:none;stroke-dashoffset:0;stroke-opacity:1;paint-order:stroke fill markers"
     d="m 171.82549,255.7731 0.17992,-30.65093 6.39672,-0.19476 6.3967,-0.19476 v 30.84568 30.84569 h -6.57663 -6.57665 z"
     id="path1046"
     inkscape:connector-curvature="0" />
  <path
     style="opacity:1;vector-effect:none;fill:#646464;fill-opacity:1;stroke:none;stroke-width:6.84415913;stroke-linecap:butt;stroke-linejoin:bevel;stroke-miterlimit:4;stroke-dasharray:none;stroke-dashoffset:0;stroke-opacity:1;paint-order:stroke fill markers"
     d="M 171.65964,130.29057 V 99.470303 h 6.5696 6.56959 v 30.820267 30.82028 h -6.56959 -6.5696 z"
     id="path1048"
     inkscape:connector-curvature="0" />
  <path
     style="opacity:1;vector-effect:none;fill:#646464;fill-opacity:1;stroke:none;stroke-width:6.84415913;stroke-linecap:butt;stroke-linejoin:bevel;stroke-miterlimit:4;stroke-dasharray:none;stroke-dashoffset:0;stroke-opacity:1;paint-order:stroke fill markers"
     d="M 197.93804,130.29057 V 99.470303 h 6.56959 6.56961 v 30.820267 30.82028 h -6.56961 -6.56959 z"
     id="path1050"
     inkscape:connector-curvature="0" />
  <path
     style="opacity:1;vector-effect:none;fill:#646464;fill-opacity:1;stroke:none;stroke-width:6.84415913;stroke-linecap:butt;stroke-linejoin:bevel;stroke-miterlimit:4;stroke-dasharray:none;stroke-dashoffset:0;stroke-opacity:1;paint-order:stroke fill markers"
     d="m 198.10387,255.7731 0.17993,-30.65093 6.39672,-0.19476 6.39672,-0.19476 v 30.84568 30.84569 h -6.57665 -6.57664 z"
     id="path1052"
     inkscape:connector-curvature="0" />
  <path
     style="opacity:1;vector-effect:none;fill:#646464;fill-opacity:1;stroke:none;stroke-width:6.84415913;stroke-linecap:butt;stroke-linejoin:bevel;stroke-miterlimit:4;stroke-dasharray:none;stroke-dashoffset:0;stroke-opacity:1;paint-order:stroke fill markers"
     d="m 198.10387,381.08628 0.17993,-30.65092 6.39672,-0.19477 6.39672,-0.19476 v 30.84569 30.84569 h -6.57665 -6.57664 z"
     id="path1054"
     inkscape:connector-curvature="0" />
  <path
     style="opacity:1;vector-effect:none;fill:#b4b4b4;fill-opacity:1;stroke:none;stroke-width:6.84415913;stroke-linecap:butt;stroke-linejoin:bevel;stroke-miterlimit:4;stroke-dasharray:none;stroke-dashoffset:0;stroke-opacity:1;paint-order:stroke fill markers"
     d="M 224.21642,130.29057 V 99.470303 h 6.56959 6.56962 v 30.820267 30.82028 h -6.56962 -6.56959 z"
     id="path1056"
     inkscape:connector-curvature="0" />
  <path
     style="opacity:1;vector-effect:none;fill:#b4b4b4;fill-opacity:1;stroke:none;stroke-width:6.84415913;stroke-linecap:butt;stroke-linejoin:bevel;stroke-miterlimit:4;stroke-dasharray:none;stroke-dashoffset:0;stroke-opacity:1;paint-order:stroke fill markers"
     d="m 224.38227,381.08628 0.17992,-30.65092 6.39671,-0.19477 6.39673,-0.19476 v 30.84569 30.84569 h -6.57665 -6.57665 z"
     id="path1060"
     inkscape:connector-curvature="0" />
  <path
     style="opacity:1;vector-effect:none;fill:#b4b4b4;fill-opacity:1;stroke:none;stroke-width:6.84415913;stroke-linecap:butt;stroke-linejoin:bevel;stroke-miterlimit:4;stroke-dasharray:none;stroke-dashoffset:0;stroke-opacity:1;paint-order:stroke fill markers"
     d="m 224.21642,255.60376 v -30.82028 h 6.56959 6.56962 v 30.82028 30.82026 h -6.56962 -6.56959 z"
     id="path1062"
     inkscape:connector-curvature="0" />
  <path
     style="opacity:1;vector-effect:none;fill:#b4b4b4;fill-opacity:1;stroke:none;stroke-width:6.84415913;stroke-linecap:butt;stroke-linejoin:bevel;stroke-miterlimit:4;stroke-dasharray:none;stroke-dashoffset:0;stroke-opacity:1;paint-order:stroke fill markers"
     d="M 250.49482,130.26604 V 99.421253 l 6.74248,0.19388 6.74248,0.19387 0.17993,30.650917 0.17993,30.65093 h -6.9224 -6.92242 z"
     id="path1064"
     inkscape:connector-curvature="0" />
  <path
     style="opacity:1;vector-effect:none;fill:#b4b4b4;fill-opacity:1;stroke:none;stroke-width:6.84415913;stroke-linecap:butt;stroke-linejoin:bevel;stroke-miterlimit:4;stroke-dasharray:none;stroke-dashoffset:0;stroke-opacity:1;paint-order:stroke fill markers"
     d="m 250.49482,255.57923 v -30.84479 l 6.74248,0.19386 6.74248,0.19387 0.17993,30.65093 0.17993,30.65092 h -6.9224 -6.92242 z"
     id="path1066"
     inkscape:connector-curvature="0" />
  <path
     style="opacity:1;vector-effect:none;fill:#b4b4b4;fill-opacity:1;stroke:none;stroke-width:6.84415913;stroke-linecap:butt;stroke-linejoin:bevel;stroke-miterlimit:4;stroke-dasharray:none;stroke-dashoffset:0;stroke-opacity:1;paint-order:stroke fill markers"
     d="m 250.97994,411.9866 c -0.26681,-0.26134 -0.48512,-14.30454 -0.48512,-31.20709 V 350.0476 l 6.74248,0.19389 6.74248,0.19387 v 30.82026 30.82027 l -6.25735,0.19295 c -3.44154,0.10612 -6.47566,-0.0209 -6.74249,-0.28224 z"
     id="path1068"
     inkscape:connector-curvature="0" />
  <path
     style="opacity:1;vector-effect:none;fill:#000000;fill-opacity:1;stroke:none;stroke-width:0.85551989;stroke-linecap:butt;stroke-linejoin:bevel;stroke-miterlimit:4;stroke-dasharray:none;stroke-dashoffset:0;stroke-opacity:1;paint-order:stroke fill markers"
     d="m 178.76453,478.12155 c -0.44087,-0.16034 -0.79868,-0.50667 -0.9655,-0.93454 -0.11555,-0.29635 -0.13169,-0.77746 -0.10959,-3.26659 0.0291,-3.27671 0.0173,-3.21322 0.69906,-3.75298 0.27013,-0.21385 0.4227,-0.26513 0.87252,-0.29318 0.77698,-0.0484 1.29195,0.22149 1.61867,0.84854 0.15136,0.2905 0.16369,0.53652 0.16369,3.26769 0,2.92845 -0.002,2.95672 -0.20113,3.32671 -0.39532,0.73345 -1.30469,1.0855 -2.07772,0.80435 z"
     id="path1162"
     inkscape:connector-curvature="0" />
  <path
     style="opacity:1;vector-effect:none;fill:#000000;fill-opacity:1;stroke:none;stroke-width:0.85551989;stroke-linecap:butt;stroke-linejoin:bevel;stroke-miterlimit:4;stroke-dasharray:none;stroke-dashoffset:0;stroke-opacity:1;paint-order:stroke fill markers"
     d="m 178.40529,513.9386 c -0.34663,-0.14795 -0.77525,-0.63691 -0.9107,-1.03892 -0.0861,-0.25562 -0.0968,-1.42395 -0.05,-5.48883 0.0575,-5.00643 0.0649,-5.17528 0.24041,-5.53043 0.45088,-0.91233 1.80343,-1.1597 2.58058,-0.47198 0.65663,0.58107 0.64044,0.4046 0.57283,6.23992 -0.0583,5.03568 -0.0652,5.19084 -0.24249,5.54996 -0.26309,0.53269 -0.8169,0.85933 -1.4495,0.85497 -0.26407,-0.002 -0.59754,-0.0535 -0.74106,-0.11469 z"
     id="path1164"
     inkscape:connector-curvature="0" />
  <path
     style="opacity:1;vector-effect:none;fill:#000000;fill-opacity:1;stroke:none;stroke-width:1.20988786;stroke-linecap:butt;stroke-linejoin:bevel;stroke-miterlimit:4;stroke-dasharray:none;stroke-dashoffset:0;stroke-opacity:1;paint-order:stroke fill markers"
     d="m 177.7422,549.47618 -0.45664,-0.40981 -0.0374,-5.30791 c -0.0251,-3.57757 0.006,-5.45328 0.0957,-5.75381 0.38195,-1.28023 2.22821,-1.49666 3.02002,-0.35406 0.20861,0.30104 0.21971,0.65576 0.17848,5.70942 -0.0472,5.80098 -0.0435,5.76736 -0.70359,6.27592 -0.23776,0.18321 -0.50037,0.25006 -0.9822,0.25006 -0.57834,0 -0.71277,-0.0495 -1.11431,-0.40981 z"
     id="path1166"
     inkscape:connector-curvature="0" />
  <path
     style="opacity:1;vector-effect:none;fill:#000000;fill-opacity:1;stroke:none;stroke-width:1.20988786;stroke-linecap:butt;stroke-linejoin:bevel;stroke-miterlimit:4;stroke-dasharray:none;stroke-dashoffset:0;stroke-opacity:1;paint-order:stroke fill markers"
     d="m 177.96036,580.92916 c -0.23399,-0.11514 -0.5503,-0.39244 -0.70292,-0.61622 -0.26916,-0.39466 -0.2775,-0.49284 -0.2775,-3.26684 0,-3.09595 0.0465,-3.36957 0.66646,-3.92997 0.2745,-0.2481 0.45346,-0.29936 1.04501,-0.29936 0.59155,0 0.77052,0.0513 1.04501,0.29936 0.57464,0.51935 0.66646,0.9124 0.66646,2.85301 v 1.783 l 1.92935,0.0603 c 1.46502,0.0457 2.02373,0.10811 2.32155,0.25895 1.14478,0.57987 1.14386,2.14455 -0.002,2.82867 -0.3683,0.21997 -0.62019,0.23797 -3.33236,0.23821 -2.54987,2.2e-4 -2.98963,-0.0271 -3.35937,-0.20911 z"
     id="path1168"
     inkscape:connector-curvature="0" />
  <path
     style="opacity:1;vector-effect:none;fill:#000000;fill-opacity:1;stroke:none;stroke-width:1.20988786;stroke-linecap:butt;stroke-linejoin:bevel;stroke-miterlimit:4;stroke-dasharray:none;stroke-dashoffset:0;stroke-opacity:1;paint-order:stroke fill markers"
     d="m 217.81063,581.25865 c -6.17549,-0.065 -6.04565,-0.0498 -6.48521,-0.75603 -0.47622,-0.76502 -0.16357,-1.93497 0.62099,-2.32383 0.22894,-0.11348 1.72077,-0.14999 6.16983,-0.15099 5.60235,-8.4e-4 5.88556,0.01 6.25855,0.23201 1.3561,0.80992 1.05483,2.68248 -0.47959,2.9809 -0.22003,0.0428 -2.95809,0.0508 -6.08457,0.018 z"
     id="path1170"
     inkscape:connector-curvature="0" />
  <path
     style="opacity:1;vector-effect:none;fill:#000000;fill-opacity:1;stroke:none;stroke-width:1.20988786;stroke-linecap:butt;stroke-linejoin:bevel;stroke-miterlimit:4;stroke-dasharray:none;stroke-dashoffset:0;stroke-opacity:1;paint-order:stroke fill markers"
     d="m 251.97882,581.3662 c -0.74812,-0.22511 -1.16154,-0.77395 -1.16089,-1.54116 5.8e-4,-0.69144 0.3252,-1.21728 0.92303,-1.49514 0.43106,-0.20037 0.86669,-0.21169 6.25041,-0.1625 5.55013,0.0507 5.80045,0.0627 6.11431,0.29223 0.58265,0.42609 0.80982,0.8292 0.80068,1.42078 -0.01,0.63751 -0.25185,1.05546 -0.80112,1.38351 -0.37313,0.22286 -0.6457,0.23286 -6.07516,0.22297 -3.12649,-0.006 -5.84955,-0.06 -6.05126,-0.12069 z"
     id="path1172"
     inkscape:connector-curvature="0" />
  <path
     style="opacity:1;vector-effect:none;fill:#000000;fill-opacity:1;stroke:none;stroke-width:1.20988786;stroke-linecap:butt;stroke-linejoin:bevel;stroke-miterlimit:4;stroke-dasharray:none;stroke-dashoffset:0;stroke-opacity:1;paint-order:stroke fill markers"
     d="m 295.70333,581.62159 -4.31877,-0.0636 -0.41093,-0.43938 c -0.551,-0.58915 -0.64808,-1.13843 -0.31891,-1.80447 0.47683,-0.96482 0.21715,-0.92933 6.80058,-0.92933 6.46194,0 6.41196,-0.006 6.90467,0.77527 0.3878,0.61462 0.33472,1.39301 -0.13038,1.91186 -0.499,0.55671 -0.98252,0.66941 -2.74051,0.63878 -0.80685,-0.0141 -3.41042,-0.0542 -5.78575,-0.0892 z"
     id="path1174"
     inkscape:connector-curvature="0" />
  <path
     style="opacity:1;vector-effect:none;fill:#000000;fill-opacity:1;stroke:none;stroke-width:1.20988786;stroke-linecap:butt;stroke-linejoin:bevel;stroke-miterlimit:4;stroke-dasharray:none;stroke-dashoffset:0;stroke-opacity:1;paint-order:stroke fill markers"
     d="m 331.13655,581.64764 c -0.55958,-0.27539 -0.98042,-0.90496 -0.98042,-1.46668 0,-0.55811 0.41714,-1.18629 0.98042,-1.47644 0.40142,-0.20677 0.75277,-0.2147 6.22559,-0.14061 4.70061,0.0636 5.86494,0.11134 6.14179,0.25157 1.05302,0.53337 1.07727,2.17343 0.0414,2.80051 -0.38509,0.23312 -0.59682,0.24137 -6.19106,0.24119 -5.27059,-1.6e-4 -5.83064,-0.0191 -6.21776,-0.20954 z"
     id="path1176"
     inkscape:connector-curvature="0" />
  <path
     style="opacity:1;vector-effect:none;fill:#000000;fill-opacity:1;stroke:none;stroke-width:1.20988786;stroke-linecap:butt;stroke-linejoin:bevel;stroke-miterlimit:4;stroke-dasharray:none;stroke-dashoffset:0;stroke-opacity:1;paint-order:stroke fill markers"
     d="m 373.67626,581.97711 c -1.94937,-0.0424 -2.8326,-0.10571 -3.03217,-0.21719 -0.71185,-0.3977 -0.97178,-1.53263 -0.51796,-2.26167 0.44615,-0.71672 0.64544,-0.75425 4.00249,-0.75375 2.78937,4.2e-4 3.06292,0.0191 3.42236,0.23376 0.78856,0.47097 1.04089,1.25964 0.66754,2.08636 -0.26211,0.5804 -0.65663,0.84813 -1.36383,0.92553 -0.23532,0.0257 -1.66562,0.0199 -3.17843,-0.013 z"
     id="path1178"
     inkscape:connector-curvature="0" />
  <path
     style="opacity:1;vector-effect:none;fill:#000000;fill-opacity:1;stroke:none;stroke-width:2.41977572;stroke-linecap:butt;stroke-linejoin:bevel;stroke-miterlimit:4;stroke-dasharray:none;stroke-dashoffset:0;stroke-opacity:1;paint-order:stroke fill markers"
     d="m 654.44359,345.9955 c -0.33451,-0.36205 -0.40463,-0.99897 -0.40463,-3.67492 0,-3.61612 0.16991,-4.02964 1.65573,-4.02964 1.29523,0 1.5227,0.61612 1.5227,4.12455 0,2.74071 -0.051,3.11 -0.489,3.53899 -0.6109,0.5984 -1.75092,0.61885 -2.2848,0.041 z"
     id="path1180"
     inkscape:connector-curvature="0" />
  <path
     style="opacity:1;vector-effect:none;fill:#000000;fill-opacity:1;stroke:none;stroke-width:2.41977572;stroke-linecap:butt;stroke-linejoin:bevel;stroke-miterlimit:4;stroke-dasharray:none;stroke-dashoffset:0;stroke-opacity:1;paint-order:stroke fill markers"
     d="m 654.44359,313.90438 c -0.35297,-0.38204 -0.40463,-1.17535 -0.40463,-6.21305 0,-5.69635 0.008,-5.78019 0.54339,-6.14791 0.74117,-0.50851 1.55987,-0.46801 2.14604,0.10616 0.46099,0.45153 0.489,0.79829 0.489,6.05361 0,4.65787 -0.0627,5.66216 -0.3806,6.10689 -0.47983,0.671 -1.81187,0.7235 -2.3932,0.0943 z"
     id="path1182"
     inkscape:connector-curvature="0" />
  <path
     style="opacity:1;vector-effect:none;fill:#000000;fill-opacity:1;stroke:none;stroke-width:2.41977572;stroke-linecap:butt;stroke-linejoin:bevel;stroke-miterlimit:4;stroke-dasharray:none;stroke-dashoffset:0;stroke-opacity:1;paint-order:stroke fill markers"
     d="m 655.01693,277.2953 c -0.91371,-0.31985 -0.97797,-0.75259 -0.97797,-6.58517 0,-5.38258 0.0275,-5.72872 0.48899,-6.18087 0.62474,-0.61194 1.23518,-0.60675 2.04523,0.0174 l 0.64421,0.49635 v 5.71291 5.71289 l -0.64421,0.49636 c -0.65588,0.50535 -0.90489,0.55818 -1.55625,0.33015 z"
     id="path1184"
     inkscape:connector-curvature="0" />
  <path
     style="opacity:1;vector-effect:none;fill:#000000;fill-opacity:1;stroke:none;stroke-width:2.41977572;stroke-linecap:butt;stroke-linejoin:bevel;stroke-miterlimit:4;stroke-dasharray:none;stroke-dashoffset:0;stroke-opacity:1;paint-order:stroke fill markers"
     d="m 654.58235,239.96837 c -0.53617,-0.36784 -0.54339,-0.45019 -0.54339,-6.18951 0,-5.33099 0.0374,-5.84981 0.44711,-6.21306 0.65566,-0.5812 1.88891,-0.50989 2.35072,0.13592 0.31801,0.44473 0.3806,1.44902 0.3806,6.10688 0,5.25532 -0.0281,5.60207 -0.489,6.0536 -0.58617,0.57417 -1.40487,0.61468 -2.14604,0.10617 z"
     id="path1186"
     inkscape:connector-curvature="0" />
  <path
     style="opacity:1;vector-effect:none;fill:#000000;fill-opacity:1;stroke:none;stroke-width:2.41977572;stroke-linecap:butt;stroke-linejoin:bevel;stroke-miterlimit:4;stroke-dasharray:none;stroke-dashoffset:0;stroke-opacity:1;paint-order:stroke fill markers"
     d="m 654.44359,202.7829 c -0.31103,-0.33664 -0.40463,-0.91833 -0.40463,-2.5146 v -2.07664 h -2.16257 c -1.83992,0 -2.22749,-0.0703 -2.59776,-0.47104 -0.55682,-0.60267 -0.55682,-1.56857 0,-2.17124 0.39133,-0.42357 0.76403,-0.47104 3.69799,-0.47104 4.35183,0 4.24077,-0.10522 4.24077,4.01797 0,3.53949 -0.22202,4.12455 -1.56519,4.12455 -0.46837,0 -0.97287,-0.18282 -1.20861,-0.43796 z"
     id="path1188"
     inkscape:connector-curvature="0" />
  <path
     style="opacity:1;vector-effect:none;fill:#000000;fill-opacity:1;stroke:none;stroke-width:2.41977572;stroke-linecap:butt;stroke-linejoin:bevel;stroke-miterlimit:4;stroke-dasharray:none;stroke-dashoffset:0;stroke-opacity:1;paint-order:stroke fill markers"
     d="m 609.54085,197.71269 c -0.62518,-0.61236 -0.62518,-1.54303 0,-2.15538 0.46283,-0.45335 0.81498,-0.47897 6.58362,-0.47897 h 6.09463 l 0.50673,0.63101 c 0.63396,0.78945 0.63396,1.06185 0,1.8513 l -0.50673,0.63101 h -6.09463 c -5.76864,0 -6.12079,-0.0255 -6.58362,-0.47897 z"
     id="path1190"
     inkscape:connector-curvature="0" />
  <path
     style="opacity:1;vector-effect:none;fill:#000000;fill-opacity:1;stroke:none;stroke-width:2.41977572;stroke-linecap:butt;stroke-linejoin:bevel;stroke-miterlimit:4;stroke-dasharray:none;stroke-dashoffset:0;stroke-opacity:1;paint-order:stroke fill markers"
     d="m 569.98704,197.81885 c -0.68504,-0.47 -0.73863,-1.77475 -0.0963,-2.34416 0.39097,-0.34658 1.21525,-0.39635 6.56348,-0.39635 5.61492,0 6.14953,0.0359 6.521,0.43795 0.59336,0.64222 0.52055,1.85021 -0.13876,2.30256 -0.80768,0.55412 -12.04177,0.55412 -12.84944,0 z"
     id="path1192"
     inkscape:connector-curvature="0" />
  <path
     style="opacity:1;vector-effect:none;fill:#000000;fill-opacity:1;stroke:none;stroke-width:2.41977572;stroke-linecap:butt;stroke-linejoin:bevel;stroke-miterlimit:4;stroke-dasharray:none;stroke-dashoffset:0;stroke-opacity:1;paint-order:stroke fill markers"
     d="m 530.09768,197.56065 c -0.2787,-0.34707 -0.50674,-0.73134 -0.50674,-0.85395 0,-0.33307 0.5241,-1.24422 0.83121,-1.44507 0.14797,-0.0968 2.99209,-0.1776 6.32027,-0.17962 5.72797,-0.004 6.07739,0.0219 6.54026,0.4753 0.62691,0.61407 0.62317,1.445 -0.01,2.11022 -0.48704,0.51206 -0.63861,0.52413 -6.58363,0.52413 h -6.08511 z"
     id="path1194"
     inkscape:connector-curvature="0" />
  <path
     style="opacity:1;vector-effect:none;fill:#000000;fill-opacity:1;stroke:none;stroke-width:2.41977572;stroke-linecap:butt;stroke-linejoin:bevel;stroke-miterlimit:4;stroke-dasharray:none;stroke-dashoffset:0;stroke-opacity:1;paint-order:stroke fill markers"
     d="m 490.47173,197.71269 c -0.58618,-0.57417 -0.62753,-1.3761 -0.10839,-2.1021 0.37625,-0.52615 0.45144,-0.53225 6.56348,-0.53225 5.67935,0 6.21582,0.0357 6.5875,0.43795 0.53708,0.58131 0.51464,1.78516 -0.0424,2.27902 -0.39062,0.34626 -1.2094,0.39635 -6.47912,0.39635 -5.70601,0 -6.05844,-0.0259 -6.521,-0.47897 z"
     id="path1196"
     inkscape:connector-curvature="0" />
  <path
     style="opacity:1;vector-effect:none;fill:#000000;fill-opacity:1;stroke:none;stroke-width:2.41977572;stroke-linecap:butt;stroke-linejoin:bevel;stroke-miterlimit:4;stroke-dasharray:none;stroke-dashoffset:0;stroke-opacity:1;paint-order:stroke fill markers"
     d="m 456.40255,197.7537 c -0.53707,-0.5813 -0.51463,-1.78516 0.0424,-2.27901 0.36997,-0.32796 1.02153,-0.39635 3.77581,-0.39635 3.16261,0 3.34768,0.0266 3.7093,0.53225 0.51914,0.726 0.47779,1.52793 -0.10839,2.1021 -0.44013,0.43111 -0.81498,0.47897 -3.75177,0.47897 -2.85043,0 -3.31394,-0.0553 -3.66743,-0.43796 z"
     id="path1198"
     inkscape:connector-curvature="0" />
</svg>
