<svg xmlns="http://www.w3.org/2000/svg" id="svg3589" viewBox="0 0 700 700" width="700" height="700"><defs id="defs11"/><g id="layer1"><g id="g3628" transform="translate(-50.929045 -442.38945)matrix(6.0225086 0 0 6.7012137 -2173.0415 -1614.146)"><path id="path3297" d="m470.2 326.7c-4.9 0-8.8 4-8.8 8.9v10.4c2.1 1 4.4 1.6 6.8 1.6 8.9 0 16-7.6 16-16.9 0-1.4-0.2-2.7-0.5-4h-13.6z" style="fill:#fff;stroke-linejoin:round;stroke-width:4;stroke:#000"/><path id="path2278" d="m443.5 309.9c-13 0-23.6 10.9-23.6 24.3 0 7.7 3.5 14.6 9 19.1-3.2-0.3-6.6-0.5-9.9-0.5-4.9 0-9.6 0.5-14.2 1.1-3.9-8.1-12.9-15.1-20.4-17.2-10.1 11.2-12.1 22.9-12 33.3 0.1 12.1 3.6 21.6 8.6 28.9 11.5 6.5 25.4 10.3 40.2 10.3 12.5 0 24.2-2.7 34.5-7.4 6.6-7.9 10.5-18 10.5-29 0-7.9-2-15.2-5.6-21.7 4.1-4.4 6.6-10.3 6.6-16.8 0-13.4-10.6-24.3-23.6-24.3z" style="fill:#00c7eb;stroke-linejoin:round;stroke-width:6;stroke:#000"/><ellipse id="path3307" transform="matrix(1.6225 0 0 1.5047 383.44 305.48)" cx="40.7" cy="14.6" rx="2.5" ry="2.5" style="fill:#050505;stroke-linejoin:round;stroke-width:2;stroke:#000"/></g></g><metadata id="metadata8"/></svg>