<?xml version="1.0" encoding="UTF-8" standalone="no"?>
<!-- Created with Inkscape (http://www.inkscape.org/) -->

<svg
   xmlns:dc="http://purl.org/dc/elements/1.1/"
   xmlns:cc="http://creativecommons.org/ns#"
   xmlns:rdf="http://www.w3.org/1999/02/22-rdf-syntax-ns#"
   xmlns:svg="http://www.w3.org/2000/svg"
   xmlns="http://www.w3.org/2000/svg"
   xmlns:sodipodi="http://sodipodi.sourceforge.net/DTD/sodipodi-0.dtd"
   xmlns:inkscape="http://www.inkscape.org/namespaces/inkscape"
   width="8000"
   height="1200"
   viewBox="0 0 2116.6667 317.50001"
   version="1.1"
   id="svg8"
   inkscape:version="0.92.4 (5da689c313, 2019-01-14)"
   sodipodi:docname="duck-strip.svg">
  <defs
     id="defs2" />
  <sodipodi:namedview
     id="base"
     pagecolor="#ffffff"
     bordercolor="#666666"
     borderopacity="1.0"
     inkscape:pageopacity="0.0"
     inkscape:pageshadow="2"
     inkscape:zoom="0.36"
     inkscape:cx="434.58462"
     inkscape:cy="275.58684"
     inkscape:document-units="mm"
     inkscape:current-layer="g3628"
     showgrid="true"
     units="px"
     inkscape:window-width="1278"
     inkscape:window-height="779"
     inkscape:window-x="0"
     inkscape:window-y="19"
     inkscape:window-maximized="0"
     inkscape:snap-global="false"
     showguides="false">
    <inkscape:grid
       type="xygrid"
       id="grid4632"
       spacingx="264.58334"
       dotted="false"
       visible="true"
       snapvisiblegridlinesonly="true"
       enabled="true" />
  </sodipodi:namedview>
  <metadata
     id="metadata5">
    <rdf:RDF>
      <cc:Work
         rdf:about="">
        <dc:format>image/svg+xml</dc:format>
        <dc:type
           rdf:resource="http://purl.org/dc/dcmitype/StillImage" />
        <dc:title></dc:title>
      </cc:Work>
    </rdf:RDF>
  </metadata>
  <g
     inkscape:label="Layer 1"
     inkscape:groupmode="layer"
     id="layer1"
     transform="translate(0,20.500041)">
    <g
       id="g3628"
       transform="matrix(1.5934554,0,0,1.7730295,-550.03126,-395.02277)">
      <path
         style="fill:none;stroke:#000000;stroke-width:7.4179244;stroke-linecap:butt;stroke-linejoin:round;stroke-miterlimit:4;stroke-dasharray:none;stroke-opacity:1"
         d="m 379.21693,278.79635 c -20.53601,26.9602 -11.84769,63.43578 -11.84769,63.43578 34.28657,18.15052 72.58066,16.12003 103.07486,4.75767 3.31744,-14.12903 20.20188,-24.52099 -0.99275,-60.39173 20.39979,-62.33732 -68.25565,-47.38174 -36.13001,1.71364 l -28.82936,1.58589 c -14.45924,-25.23966 -20.11223,-19.0453 -25.27505,-11.10125 z"
         id="path38"
         inkscape:connector-curvature="0"
         sodipodi:nodetypes="ccccccc" />
      <path
         style="fill:none;stroke:#000000;stroke-width:4.75950766;stroke-linecap:round;stroke-linejoin:round;stroke-miterlimit:4;stroke-dasharray:none;stroke-opacity:1;paint-order:normal"
         d="m 473.20072,269.99059 c 8.49663,3.37525 17.67562,4.57308 17.67562,4.57308 -2.95174,7.02392 -11.38193,10.10897 -21.42499,12.0344 z"
         id="path4549"
         inkscape:connector-curvature="0"
         sodipodi:nodetypes="cccc" />
      <ellipse
         style="stroke-width:4.75950813;stroke-linecap:round;stroke-linejoin:round;stroke-miterlimit:4;stroke-dasharray:none;paint-order:normal"
         id="path4560"
         cx="451.80475"
         cy="264.12012"
         rx="6.8292193"
         ry="6.1375499" />
      <path
         style="fill:none;stroke:#000000;stroke-width:4.62189293;stroke-linecap:butt;stroke-linejoin:miter;stroke-miterlimit:4;stroke-dasharray:none;stroke-opacity:1"
         d="m 389.16929,310.51938 13.12498,4.37305 -10.47075,8.29334 13.57602,4.99109 -9.64997,8.33988 c 37.56482,4.66984 56.23428,-3.13201 49.32149,-25.2717 -7.14997,-14.31424 -31.58289,-13.47747 -55.90177,-0.72566 z"
         id="path4562"
         inkscape:connector-curvature="0"
         sodipodi:nodetypes="ccccccc" />
      <path
         style="fill:none;stroke:#000000;stroke-width:4.26165581;stroke-linecap:round;stroke-linejoin:round;stroke-miterlimit:4;stroke-dasharray:none;stroke-opacity:1"
         d="m 442.34599,366.75172 c -0.25409,6.54369 21.60415,-0.86406 21.60415,-0.86406 l -5.07357,6.6467 6.45726,6.31438 -28.59642,-2.65869 -0.46124,-22.26648 h 6.56796 z"
         id="path4583"
         inkscape:connector-curvature="0"
         sodipodi:nodetypes="sccccccs" />
      <path
         style="fill:none;stroke:#000000;stroke-width:4.33182764;stroke-linecap:round;stroke-linejoin:round;stroke-miterlimit:4;stroke-dasharray:none;stroke-opacity:1"
         d="m 398.13648,365.84105 c -2.50895,6.42518 21.16282,3.93105 21.16282,3.93105 l -7.19893,5.45935 4.05177,7.68512 -26.69695,-8.96963 7.2569,-22.15701 6.34292,1.45528 z"
         id="path4583-3"
         inkscape:connector-curvature="0"
         sodipodi:nodetypes="sccccccs" />
      <path
         style="fill:#00ffff;stroke-width:13.22085571;stroke-linecap:round;stroke-linejoin:round;stroke-miterlimit:4;stroke-dasharray:none;paint-order:normal"
         d="m 450.40789,248.6316 c -10.29779,-0.0819 -19.86375,7.42082 -20.81853,16.69814 -1.17579,7.69493 2.71934,14.90585 6.28159,21.6416 1.39037,2.2322 -0.80209,4.84842 -3.56004,4.46037 -9.18665,0.52698 -18.54018,1.42351 -27.71189,1.33803 -3.58568,-0.2374 -4.04456,-4.27404 -5.9264,-6.34265 -2.86951,-3.96602 -5.44543,-8.55703 -10.03928,-11.11895 -2.93169,-0.76632 -4.56456,2.57818 -6.09884,4.20529 -10.69758,13.93819 -14.62882,31.25627 -13.6489,47.9833 0.36192,4.14308 -0.0609,8.54966 1.57589,12.48603 10.09265,5.73564 21.81436,8.88435 33.45102,11.04865 11.28413,2.04039 22.91073,1.29161 34.30694,0.58702 10.06959,-1.25815 20.02514,-3.73658 29.39301,-7.1322 3.72496,-8.26675 8.50927,-16.58035 9.23703,-25.64877 0.33676,-11.0828 -5.08564,-21.33225 -10.08586,-31.16743 -0.95856,-2.24731 0.90923,-4.60866 1.11705,-6.9019 1.73928,-7.84394 2.73586,-16.69961 -1.71248,-23.98353 -3.23815,-4.93714 -9.29724,-8.32765 -15.76031,-8.153 z m 1.72241,9.99703 c 5.45922,-0.11075 7.66876,6.94527 3.55114,9.77924 -3.60871,2.99713 -10.13242,0.19033 -9.95614,-4.17919 -0.10112,-3.14858 2.88019,-5.8562 6.405,-5.60005 z m -28.09375,40.45847 c 8.89758,-0.19407 18.90007,3.42998 22.30853,11.37174 2.97336,7.35276 2.72592,16.83084 -4.29433,22.32895 -8.52079,6.50647 -20.3361,6.72368 -30.87286,6.51733 -6.49169,-0.11734 -12.93728,-0.63638 -19.31862,-1.59897 2.98092,-3.06291 6.83232,-5.51901 9.53544,-8.70651 -2.19411,-1.87382 -5.8204,-2.27881 -8.56523,-3.57522 -0.98239,-0.71111 -4.55645,-1.05274 -3.91632,-2.07847 2.63671,-2.56486 6.39102,-4.38845 8.27911,-7.47327 -0.41828,-1.76469 -3.40335,-1.5485 -4.84019,-2.43232 -2.52683,-0.84571 -5.05862,-1.67938 -7.58787,-2.51924 11.84936,-6.56617 25.21059,-11.83671 39.27234,-11.83402 z"
         id="path4008"
         inkscape:connector-curvature="0" />
      <path
         style="fill:#00ff00;stroke-width:13.22085571;stroke-linecap:round;stroke-linejoin:round;stroke-miterlimit:4;stroke-dasharray:none;paint-order:normal"
         d="m 422.6934,303.11246 c -9.44305,0.23731 -18.53251,3.14213 -26.95328,6.81851 2.16063,1.53493 5.82806,2.04418 8.58685,3.22143 1.18433,0.40837 3.26927,0.83092 1.42398,1.82629 -2.76746,2.58044 -6.30646,4.66543 -8.84514,7.38541 4.01649,2.06986 8.68937,3.1504 12.86317,5.02685 -2.63883,2.38271 -5.27771,4.76538 -7.91663,7.14802 2.70951,1.10896 6.52645,0.42182 9.68679,0.63716 8.55402,-0.0344 17.73187,0.42337 25.31014,-3.82539 6.11089,-2.973 8.3828,-9.81105 6.90293,-15.65254 -0.64835,-7.0927 -8.37731,-11.68483 -15.7267,-12.33476 -1.76574,-0.21515 -3.55131,-0.2865 -5.33211,-0.25098 z"
         id="path4030"
         inkscape:connector-curvature="0" />
      <path
         style="fill:#ff6600;stroke-width:13.22085571;stroke-linecap:round;stroke-linejoin:round;stroke-miterlimit:4;stroke-dasharray:none;paint-order:normal"
         d="m 476.65223,273.25741 c -2.16111,0.94115 -1.35437,3.8675 -2.01339,5.60329 0.20279,1.3676 -1.99642,4.07355 0.48916,4.36135 4.38376,-0.95325 8.85411,-2.91094 11.78576,-6.06477 1.15279,-1.90259 -2.18124,-1.71449 -3.35385,-2.15598 -2.33014,-0.4747 -4.59694,-1.2842 -6.90768,-1.74389 z"
         id="path4062"
         inkscape:connector-curvature="0" />
      <path
         style="fill:none;stroke:#000000;stroke-width:7.4179244;stroke-linecap:butt;stroke-linejoin:round;stroke-miterlimit:4;stroke-dasharray:none;stroke-opacity:1"
         d="m 229.99874,241.28801 c -20.53601,26.9602 -11.84769,63.43578 -11.84769,63.43578 34.28657,18.15052 72.58066,16.12003 103.07486,4.75767 3.31744,-14.12903 20.20188,-24.52099 -0.99275,-60.39173 20.39979,-62.33732 -68.25565,-47.38174 -36.13001,1.71364 l -28.82936,1.58589 c -14.45924,-25.23966 -20.11223,-19.0453 -25.27505,-11.10125 z"
         id="path38-0"
         inkscape:connector-curvature="0"
         sodipodi:nodetypes="ccccccc" />
      <path
         style="fill:none;stroke:#000000;stroke-width:4.75950766;stroke-linecap:round;stroke-linejoin:round;stroke-miterlimit:4;stroke-dasharray:none;stroke-opacity:1;paint-order:normal"
         d="m 323.98253,232.48225 c 8.49663,3.37525 17.67562,4.57308 17.67562,4.57308 -2.95174,7.02392 -11.38193,10.10897 -21.42499,12.0344 z"
         id="path4549-9"
         inkscape:connector-curvature="0"
         sodipodi:nodetypes="cccc" />
      <ellipse
         style="stroke-width:4.75950813;stroke-linecap:round;stroke-linejoin:round;stroke-miterlimit:4;stroke-dasharray:none;paint-order:normal"
         id="path4560-3"
         cx="302.58658"
         cy="226.61179"
         rx="6.8292193"
         ry="6.1375504" />
      <path
         style="fill:none;stroke:#000000;stroke-width:4.62189293;stroke-linecap:butt;stroke-linejoin:miter;stroke-miterlimit:4;stroke-dasharray:none;stroke-opacity:1"
         d="m 239.9511,273.01104 13.12498,4.37305 -10.47075,8.29334 13.57602,4.99109 -9.64997,8.33988 c 37.56482,4.66984 56.23428,-3.13201 49.32149,-25.2717 -7.14997,-14.31424 -31.58289,-13.47747 -55.90177,-0.72566 z"
         id="path4562-6"
         inkscape:connector-curvature="0"
         sodipodi:nodetypes="ccccccc" />
      <path
         style="fill:none;stroke:#000000;stroke-width:4.26165581;stroke-linecap:round;stroke-linejoin:round;stroke-miterlimit:4;stroke-dasharray:none;stroke-opacity:1"
         d="m 293.1278,329.24338 c -0.25409,6.54369 21.60415,-0.86406 21.60415,-0.86406 l -5.07357,6.6467 6.45726,6.31438 -28.59642,-2.65869 -0.46124,-22.26648 h 6.56796 z"
         id="path4583-0"
         inkscape:connector-curvature="0"
         sodipodi:nodetypes="sccccccs" />
      <path
         style="fill:none;stroke:#000000;stroke-width:4.33182764;stroke-linecap:round;stroke-linejoin:round;stroke-miterlimit:4;stroke-dasharray:none;stroke-opacity:1"
         d="m 248.91829,328.33271 c -2.50895,6.42518 21.16282,3.93105 21.16282,3.93105 l -7.19893,5.45935 4.05177,7.68512 -26.69695,-8.96963 7.2569,-22.15701 6.34292,1.45528 z"
         id="path4583-3-62"
         inkscape:connector-curvature="0"
         sodipodi:nodetypes="sccccccs" />
      <path
         style="fill:none;stroke:#000000;stroke-width:7.4179244;stroke-linecap:butt;stroke-linejoin:round;stroke-miterlimit:4;stroke-dasharray:none;stroke-opacity:1"
         d="m 545.26069,278.79635 c -20.53601,26.9602 -11.84769,63.43578 -11.84769,63.43578 34.28657,18.15052 72.58066,16.12003 103.07486,4.75767 3.31744,-14.12903 20.20188,-24.52099 -0.99275,-60.39173 20.39979,-62.33732 -68.25565,-47.38174 -36.13001,1.71364 l -28.82936,1.58589 C 556.0765,264.65794 550.42351,270.8523 545.26069,278.79635 Z"
         id="path38-7"
         inkscape:connector-curvature="0"
         sodipodi:nodetypes="ccccccc" />
      <path
         style="fill:none;stroke:#000000;stroke-width:4.75950766;stroke-linecap:round;stroke-linejoin:round;stroke-miterlimit:4;stroke-dasharray:none;stroke-opacity:1;paint-order:normal"
         d="m 639.24448,269.99059 c 8.49663,3.37525 17.67562,4.57308 17.67562,4.57308 -2.95174,7.02392 -11.38193,10.10897 -21.42499,12.0344 z"
         id="path4549-5"
         inkscape:connector-curvature="0"
         sodipodi:nodetypes="cccc" />
      <ellipse
         style="stroke-width:4.75950813;stroke-linecap:round;stroke-linejoin:round;stroke-miterlimit:4;stroke-dasharray:none;paint-order:normal"
         id="path4560-9"
         cx="617.84845"
         cy="264.12015"
         rx="6.8292193"
         ry="6.1375504" />
      <path
         style="fill:none;stroke:#000000;stroke-width:4.62189293;stroke-linecap:butt;stroke-linejoin:miter;stroke-miterlimit:4;stroke-dasharray:none;stroke-opacity:1"
         d="m 555.21305,310.51938 13.12498,4.37305 -10.47075,8.29334 13.57602,4.99109 -9.64997,8.33988 c 37.56482,4.66984 56.23428,-3.13201 49.32149,-25.2717 -7.14997,-14.31424 -31.58289,-13.47747 -55.90177,-0.72566 z"
         id="path4562-2"
         inkscape:connector-curvature="0"
         sodipodi:nodetypes="ccccccc" />
      <path
         style="fill:none;stroke:#000000;stroke-width:4.26165581;stroke-linecap:round;stroke-linejoin:round;stroke-miterlimit:4;stroke-dasharray:none;stroke-opacity:1"
         d="m 608.38975,366.75172 c -0.25409,6.54369 21.60415,-0.86406 21.60415,-0.86406 l -5.07357,6.6467 6.45726,6.31438 -28.59642,-2.65869 -0.46124,-22.26648 h 6.56796 z"
         id="path4583-2"
         inkscape:connector-curvature="0"
         sodipodi:nodetypes="sccccccs" />
      <path
         style="fill:none;stroke:#000000;stroke-width:4.33182764;stroke-linecap:round;stroke-linejoin:round;stroke-miterlimit:4;stroke-dasharray:none;stroke-opacity:1"
         d="m 564.18024,365.84105 c -2.50895,6.42518 21.16282,3.93105 21.16282,3.93105 l -7.19893,5.45935 4.05177,7.68512 -26.69695,-8.96963 7.2569,-22.15701 6.34292,1.45528 z"
         id="path4583-3-8"
         inkscape:connector-curvature="0"
         sodipodi:nodetypes="sccccccs" />
      <path
         style="fill:#00ffff;stroke-width:13.22085571;stroke-linecap:round;stroke-linejoin:round;stroke-miterlimit:4;stroke-dasharray:none;paint-order:normal"
         d="m 616.45166,248.63161 c -10.29779,-0.082 -19.86375,7.42081 -20.81853,16.69814 -1.1758,7.69492 2.71933,14.90584 6.28159,21.64159 1.39036,2.2322 -0.80209,4.84842 -3.56005,4.46037 -9.18664,0.52698 -18.54018,1.42351 -27.71189,1.33803 -3.58568,-0.23739 -4.04456,-4.27403 -5.9264,-6.34265 -2.86951,-3.96602 -5.44543,-8.55702 -10.03928,-11.11894 -2.93168,-0.76632 -4.56455,2.57818 -6.09884,4.20528 -10.69758,13.9382 -14.62881,31.25627 -13.6489,47.9833 0.36193,4.14308 -0.0609,8.54966 1.5759,12.48603 10.09264,5.73564 21.81435,8.88435 33.45102,11.04865 11.28412,2.04039 22.91072,1.29161 34.30694,0.58702 10.06958,-1.25815 20.02514,-3.73658 29.393,-7.1322 3.72497,-8.26675 8.50928,-16.58035 9.23704,-25.64877 0.33675,-11.0828 -5.08564,-21.33225 -10.08586,-31.16743 -0.95857,-2.24731 0.90922,-4.60866 1.11705,-6.9019 1.73928,-7.84393 2.73586,-16.69961 -1.71249,-23.98352 -3.23814,-4.93715 -9.29723,-8.32766 -15.7603,-8.153 z m 1.72241,9.99702 c 5.45921,-0.11074 7.66876,6.94528 3.55113,9.77924 -3.6087,2.99714 -10.13242,0.19034 -9.95614,-4.17919 -0.10111,-3.14858 2.88019,-5.8562 6.40501,-5.60005 z m -28.09376,40.45847 c 8.89758,-0.19407 18.90008,3.42998 22.30853,11.37174 2.97337,7.35276 2.72592,16.83085 -4.29432,22.32895 -8.5208,6.50647 -20.33611,6.72368 -30.87287,6.51733 -6.49169,-0.11734 -12.93727,-0.63638 -19.31862,-1.59897 2.98092,-3.0629 6.83232,-5.51901 9.53544,-8.70651 -2.19411,-1.87382 -5.8204,-2.27881 -8.56523,-3.57522 -0.98239,-0.71111 -4.55645,-1.05273 -3.91632,-2.07846 2.63672,-2.56487 6.39103,-4.38845 8.27911,-7.47328 -0.41827,-1.76469 -3.40335,-1.54849 -4.84019,-2.43231 -2.52682,-0.84572 -5.05861,-1.67939 -7.58787,-2.51924 11.84937,-6.56618 25.21059,-11.83672 39.27234,-11.83403 z"
         id="path4008-9"
         inkscape:connector-curvature="0" />
      <path
         style="fill:#00ff00;stroke-width:13.22085571;stroke-linecap:round;stroke-linejoin:round;stroke-miterlimit:4;stroke-dasharray:none;paint-order:normal"
         d="m 588.73717,303.11247 c -9.44305,0.2373 -18.53252,3.14212 -26.95329,6.8185 2.16063,1.53493 5.82806,2.04418 8.58686,3.22143 1.18433,0.40837 3.26927,0.83092 1.42398,1.82629 -2.76746,2.58044 -6.30647,4.66543 -8.84514,7.38541 4.01648,2.06986 8.68936,3.1504 12.86316,5.02685 -2.63883,2.38271 -5.27771,4.76538 -7.91662,7.14802 2.7095,1.10896 6.52644,0.42182 9.68678,0.63716 8.55403,-0.0344 17.73187,0.42337 25.31015,-3.82539 6.11088,-2.973 8.3828,-9.81105 6.90293,-15.65254 -0.64836,-7.0927 -8.37732,-11.68483 -15.72671,-12.33475 -1.76573,-0.21516 -3.55131,-0.28651 -5.3321,-0.25098 z"
         id="path4030-7"
         inkscape:connector-curvature="0" />
      <path
         style="fill:#ff6600;stroke-width:13.22085571;stroke-linecap:round;stroke-linejoin:round;stroke-miterlimit:4;stroke-dasharray:none;paint-order:normal"
         d="m 642.696,273.25741 c -2.16111,0.94115 -1.35437,3.8675 -2.01339,5.60329 0.20278,1.3676 -1.99643,4.07355 0.48916,4.36135 4.38375,-0.95325 8.85411,-2.91093 11.78575,-6.06476 1.1528,-1.9026 -2.18123,-1.7145 -3.35384,-2.15598 -2.33015,-0.4747 -4.59695,-1.2842 -6.90768,-1.7439 z"
         id="path4062-3"
         inkscape:connector-curvature="0" />
      <path
         style="fill:none;stroke:#000000;stroke-width:7.4179244;stroke-linecap:butt;stroke-linejoin:round;stroke-miterlimit:4;stroke-dasharray:none;stroke-opacity:1"
         d="m 711.30446,278.79635 c -20.53601,26.9602 -11.84769,63.43578 -11.84769,63.43578 34.28657,18.15052 72.58066,16.12003 103.07486,4.75767 3.31744,-14.12903 20.20188,-24.52099 -0.99275,-60.39173 20.39979,-62.33732 -68.25565,-47.38174 -36.13001,1.71364 l -28.82936,1.58589 c -14.45924,-25.23966 -20.11223,-19.0453 -25.27505,-11.10125 z"
         id="path38-6"
         inkscape:connector-curvature="0"
         sodipodi:nodetypes="ccccccc" />
      <path
         style="fill:none;stroke:#000000;stroke-width:4.75950766;stroke-linecap:round;stroke-linejoin:round;stroke-miterlimit:4;stroke-dasharray:none;stroke-opacity:1;paint-order:normal"
         d="m 805.28825,269.99059 c 8.49663,3.37525 17.67562,4.57308 17.67562,4.57308 -2.95174,7.02392 -11.38193,10.10897 -21.42499,12.0344 z"
         id="path4549-1"
         inkscape:connector-curvature="0"
         sodipodi:nodetypes="cccc" />
      <ellipse
         style="stroke-width:4.75950813;stroke-linecap:round;stroke-linejoin:round;stroke-miterlimit:4;stroke-dasharray:none;paint-order:normal"
         id="path4560-2"
         cx="783.89227"
         cy="264.12012"
         rx="6.8292193"
         ry="6.1375504" />
      <path
         style="fill:none;stroke:#000000;stroke-width:4.62189293;stroke-linecap:butt;stroke-linejoin:miter;stroke-miterlimit:4;stroke-dasharray:none;stroke-opacity:1"
         d="m 721.25682,310.51938 13.12498,4.37305 -10.47075,8.29334 13.57602,4.99109 -9.64997,8.33988 c 37.56482,4.66984 56.23428,-3.13201 49.32149,-25.2717 -7.14997,-14.31424 -31.58289,-13.47747 -55.90177,-0.72566 z"
         id="path4562-9"
         inkscape:connector-curvature="0"
         sodipodi:nodetypes="ccccccc" />
      <path
         style="fill:none;stroke:#000000;stroke-width:4.26165581;stroke-linecap:round;stroke-linejoin:round;stroke-miterlimit:4;stroke-dasharray:none;stroke-opacity:1"
         d="m 774.43352,366.75172 c -0.25409,6.54369 21.60415,-0.86406 21.60415,-0.86406 l -5.07357,6.6467 6.45726,6.31438 -28.59642,-2.65869 -0.46124,-22.26648 h 6.56796 z"
         id="path4583-31"
         inkscape:connector-curvature="0"
         sodipodi:nodetypes="sccccccs" />
      <path
         style="fill:none;stroke:#000000;stroke-width:4.33182764;stroke-linecap:round;stroke-linejoin:round;stroke-miterlimit:4;stroke-dasharray:none;stroke-opacity:1"
         d="m 730.22401,365.84105 c -2.50895,6.42518 21.16282,3.93105 21.16282,3.93105 l -7.19893,5.45935 4.05177,7.68512 -26.69695,-8.96963 7.2569,-22.15701 6.34292,1.45528 z"
         id="path4583-3-9"
         inkscape:connector-curvature="0"
         sodipodi:nodetypes="sccccccs" />
      <path
         style="fill:#00ffff;stroke-width:13.22085571;stroke-linecap:round;stroke-linejoin:round;stroke-miterlimit:4;stroke-dasharray:none;paint-order:normal"
         d="m 782.49542,248.6316 c -10.29779,-0.0819 -19.86375,7.42082 -20.81853,16.69814 -1.17579,7.69493 2.71934,14.90585 6.28159,21.6416 1.39037,2.2322 -0.80209,4.84842 -3.56004,4.46037 -9.18665,0.52698 -18.54018,1.42351 -27.71189,1.33803 -3.58568,-0.2374 -4.04456,-4.27404 -5.9264,-6.34265 -2.86951,-3.96602 -5.44543,-8.55703 -10.03928,-11.11895 -2.93169,-0.76632 -4.56456,2.57818 -6.09884,4.20529 -10.69758,13.93819 -14.62882,31.25627 -13.6489,47.9833 0.36192,4.14308 -0.0609,8.54966 1.57589,12.48603 10.09265,5.73564 21.81436,8.88435 33.45102,11.04865 11.28413,2.04039 22.91073,1.29161 34.30694,0.58702 10.06959,-1.25815 20.02514,-3.73658 29.39301,-7.1322 3.72496,-8.26675 8.50927,-16.58035 9.23703,-25.64877 0.33676,-11.0828 -5.08564,-21.33225 -10.08586,-31.16743 -0.95856,-2.24731 0.90923,-4.60866 1.11705,-6.9019 1.73928,-7.84394 2.73586,-16.69961 -1.71248,-23.98353 -3.23815,-4.93714 -9.29724,-8.32765 -15.76031,-8.153 z m 1.72241,9.99703 c 5.45922,-0.11075 7.66876,6.94527 3.55114,9.77924 -3.60871,2.99713 -10.13242,0.19033 -9.95614,-4.17919 -0.10112,-3.14858 2.88019,-5.8562 6.405,-5.60005 z m -28.09375,40.45847 c 8.89758,-0.19407 18.90007,3.42998 22.30853,11.37174 2.97336,7.35276 2.72592,16.83084 -4.29433,22.32895 -8.52079,6.50647 -20.3361,6.72368 -30.87286,6.51733 -6.49169,-0.11734 -12.93728,-0.63638 -19.31862,-1.59897 2.98092,-3.06291 6.83232,-5.51901 9.53544,-8.70651 -2.19411,-1.87382 -5.8204,-2.27881 -8.56523,-3.57522 -0.98239,-0.71111 -4.55645,-1.05274 -3.91632,-2.07847 2.63671,-2.56486 6.39102,-4.38845 8.27911,-7.47327 -0.41828,-1.76469 -3.40335,-1.5485 -4.84019,-2.43232 -2.52683,-0.84571 -5.05862,-1.67938 -7.58787,-2.51924 11.84936,-6.56617 25.21059,-11.83671 39.27234,-11.83402 z"
         id="path4008-4"
         inkscape:connector-curvature="0" />
      <path
         style="fill:#00ff00;stroke-width:13.22085571;stroke-linecap:round;stroke-linejoin:round;stroke-miterlimit:4;stroke-dasharray:none;paint-order:normal"
         d="m 754.78093,303.11246 c -9.44305,0.23731 -18.53251,3.14213 -26.95328,6.81851 2.16063,1.53493 5.82806,2.04418 8.58685,3.22143 1.18433,0.40837 3.26927,0.83092 1.42398,1.82629 -2.76746,2.58044 -6.30646,4.66543 -8.84514,7.38541 4.01649,2.06986 8.68937,3.1504 12.86317,5.02685 -2.63883,2.38271 -5.27771,4.76538 -7.91663,7.14802 2.70951,1.10896 6.52645,0.42182 9.68679,0.63716 8.55402,-0.0344 17.73187,0.42337 25.31014,-3.82539 6.11089,-2.973 8.3828,-9.81105 6.90293,-15.65254 -0.64835,-7.0927 -8.37731,-11.68483 -15.7267,-12.33476 -1.76574,-0.21515 -3.55131,-0.2865 -5.33211,-0.25098 z"
         id="path4030-78"
         inkscape:connector-curvature="0" />
      <path
         style="fill:#ff6600;stroke-width:13.22085571;stroke-linecap:round;stroke-linejoin:round;stroke-miterlimit:4;stroke-dasharray:none;paint-order:normal"
         d="m 808.73976,273.25741 c -2.16111,0.94115 -1.35437,3.8675 -2.01339,5.60329 0.20279,1.3676 -1.99642,4.07355 0.48916,4.36135 4.38376,-0.95325 8.85411,-2.91094 11.78576,-6.06477 1.15279,-1.90259 -2.18124,-1.71449 -3.35385,-2.15598 -2.33014,-0.4747 -4.59694,-1.2842 -6.90768,-1.74389 z"
         id="path4062-4"
         inkscape:connector-curvature="0" />
      <path
         style="fill:none;stroke:#000000;stroke-width:7.4179244;stroke-linecap:butt;stroke-linejoin:round;stroke-miterlimit:4;stroke-dasharray:none;stroke-opacity:1"
         d="m 877.34823,278.79635 c -20.53602,26.9602 -11.84769,63.43578 -11.84769,63.43578 34.28656,18.15052 72.58065,16.12003 103.07485,4.75767 3.31744,-14.12903 20.20188,-24.52099 -0.99276,-60.39173 20.39981,-62.33732 -68.25564,-47.38174 -36.13001,1.71364 l -28.82935,1.58589 c -14.45924,-25.23966 -20.11223,-19.0453 -25.27504,-11.10125 z"
         id="path38-7-5"
         inkscape:connector-curvature="0"
         sodipodi:nodetypes="ccccccc" />
      <path
         style="fill:none;stroke:#000000;stroke-width:4.75950766;stroke-linecap:round;stroke-linejoin:round;stroke-miterlimit:4;stroke-dasharray:none;stroke-opacity:1;paint-order:normal"
         d="m 971.33202,269.99059 c 8.49662,3.37525 17.67561,4.57308 17.67561,4.57308 -2.95175,7.02392 -11.38192,10.10897 -21.425,12.0344 z"
         id="path4549-5-0"
         inkscape:connector-curvature="0"
         sodipodi:nodetypes="cccc" />
      <ellipse
         style="stroke-width:4.75950813;stroke-linecap:round;stroke-linejoin:round;stroke-miterlimit:4;stroke-dasharray:none;paint-order:normal"
         id="path4560-9-3"
         cx="949.93597"
         cy="264.12015"
         rx="6.8292193"
         ry="6.1375504" />
      <path
         style="fill:none;stroke:#000000;stroke-width:4.62189293;stroke-linecap:butt;stroke-linejoin:miter;stroke-miterlimit:4;stroke-dasharray:none;stroke-opacity:1"
         d="m 887.30057,310.51938 13.125,4.37305 -10.47075,8.29334 13.57602,4.99109 -9.64999,8.33988 c 37.56483,4.66984 56.2343,-3.13201 49.32149,-25.2717 -7.14996,-14.31424 -31.58288,-13.47747 -55.90177,-0.72566 z"
         id="path4562-2-6"
         inkscape:connector-curvature="0"
         sodipodi:nodetypes="ccccccc" />
      <path
         style="fill:none;stroke:#000000;stroke-width:4.26165581;stroke-linecap:round;stroke-linejoin:round;stroke-miterlimit:4;stroke-dasharray:none;stroke-opacity:1"
         d="m 940.47728,366.75172 c -0.25409,6.54369 21.60416,-0.86406 21.60416,-0.86406 l -5.07359,6.6467 6.45726,6.31438 -28.5964,-2.65869 -0.46126,-22.26648 h 6.56797 z"
         id="path4583-2-1"
         inkscape:connector-curvature="0"
         sodipodi:nodetypes="sccccccs" />
      <path
         style="fill:none;stroke:#000000;stroke-width:4.33182764;stroke-linecap:round;stroke-linejoin:round;stroke-miterlimit:4;stroke-dasharray:none;stroke-opacity:1"
         d="m 896.26777,365.84105 c -2.50894,6.42518 21.16282,3.93105 21.16282,3.93105 l -7.19892,5.45935 4.05176,7.68512 -26.69695,-8.96963 7.2569,-22.15701 6.34292,1.45528 z"
         id="path4583-3-8-0"
         inkscape:connector-curvature="0"
         sodipodi:nodetypes="sccccccs" />
      <path
         style="fill:#00ffff;stroke-width:13.22085571;stroke-linecap:round;stroke-linejoin:round;stroke-miterlimit:4;stroke-dasharray:none;paint-order:normal"
         d="m 948.53919,248.63161 c -10.29778,-0.082 -19.86375,7.42081 -20.81853,16.69814 -1.17579,7.69492 2.71933,14.90584 6.2816,21.64159 1.39035,2.2322 -0.80209,4.84842 -3.56006,4.46037 -9.18664,0.52698 -18.54018,1.42351 -27.71189,1.33803 -3.58569,-0.23739 -4.04456,-4.27403 -5.9264,-6.34265 -2.86951,-3.96602 -5.44543,-8.55702 -10.03928,-11.11894 -2.93168,-0.76632 -4.56456,2.57818 -6.09883,4.20528 -10.69759,13.9382 -14.62882,31.25627 -13.64892,47.9833 0.36195,4.14308 -0.0609,8.54966 1.57591,12.48603 10.09264,5.73564 21.81435,8.88435 33.45102,11.04865 11.28412,2.04039 22.91072,1.29161 34.30694,0.58702 10.06957,-1.25815 20.02514,-3.73658 29.393,-7.1322 3.72497,-8.26675 8.50928,-16.58035 9.23705,-25.64877 0.33673,-11.0828 -5.08564,-21.33225 -10.08587,-31.16743 -0.95857,-2.24731 0.90923,-4.60866 1.11705,-6.9019 1.73929,-7.84393 2.73587,-16.69961 -1.7125,-23.98352 -3.23813,-4.93715 -9.29722,-8.32766 -15.76029,-8.153 z m 1.72241,9.99702 c 5.45922,-0.11074 7.66876,6.94528 3.55112,9.77924 -3.60869,2.99714 -10.1324,0.19034 -9.95613,-4.17919 -0.1011,-3.14858 2.8802,-5.8562 6.40501,-5.60005 z m -28.09376,40.45847 c 8.89759,-0.19407 18.90008,3.42998 22.30853,11.37174 2.97337,7.35276 2.72592,16.83085 -4.29431,22.32895 -8.5208,6.50647 -20.33611,6.72368 -30.87288,6.51733 -6.49168,-0.11734 -12.93727,-0.63638 -19.31861,-1.59897 2.98091,-3.0629 6.83231,-5.51901 9.53542,-8.70651 -2.1941,-1.87382 -5.82039,-2.27881 -8.56521,-3.57522 -0.9824,-0.71111 -4.55646,-1.05273 -3.91633,-2.07846 2.63673,-2.56487 6.39103,-4.38845 8.27911,-7.47328 -0.41827,-1.76469 -3.40335,-1.54849 -4.84019,-2.43231 -2.52682,-0.84572 -5.05861,-1.67939 -7.58787,-2.51924 11.84936,-6.56618 25.21059,-11.83672 39.27234,-11.83403 z"
         id="path4008-9-6"
         inkscape:connector-curvature="0" />
      <path
         style="fill:#00ff00;stroke-width:13.22085571;stroke-linecap:round;stroke-linejoin:round;stroke-miterlimit:4;stroke-dasharray:none;paint-order:normal"
         d="m 920.82469,303.11247 c -9.44304,0.2373 -18.53251,3.14212 -26.95328,6.8185 2.16062,1.53493 5.82807,2.04418 8.58687,3.22143 1.18432,0.40837 3.26927,0.83092 1.42397,1.82629 -2.76747,2.58044 -6.30647,4.66543 -8.84513,7.38541 4.01646,2.06986 8.68935,3.1504 12.86316,5.02685 -2.63884,2.38271 -5.27772,4.76538 -7.91664,7.14802 2.70951,1.10896 6.52645,0.42182 9.6868,0.63716 8.55402,-0.0344 17.73186,0.42337 25.31015,-3.82539 6.11087,-2.973 8.38278,-9.81105 6.90292,-15.65254 -0.64835,-7.0927 -8.37732,-11.68483 -15.7267,-12.33475 -1.76575,-0.21516 -3.55131,-0.28651 -5.33212,-0.25098 z"
         id="path4030-7-3"
         inkscape:connector-curvature="0" />
      <path
         style="fill:#ff6600;stroke-width:13.22085571;stroke-linecap:round;stroke-linejoin:round;stroke-miterlimit:4;stroke-dasharray:none;paint-order:normal"
         d="m 974.78354,273.25741 c -2.16111,0.94115 -1.35437,3.8675 -2.0134,5.60329 0.20277,1.3676 -1.99643,4.07355 0.48916,4.36135 4.38374,-0.95325 8.85411,-2.91093 11.78576,-6.06476 1.15279,-1.9026 -2.18124,-1.7145 -3.35385,-2.15598 -2.33015,-0.4747 -4.59694,-1.2842 -6.90767,-1.7439 z"
         id="path4062-3-2"
         inkscape:connector-curvature="0" />
      <path
         style="fill:none;stroke:#000000;stroke-width:7.4179244;stroke-linecap:butt;stroke-linejoin:round;stroke-miterlimit:4;stroke-dasharray:none;stroke-opacity:1"
         d="m 1043.392,278.79635 c -20.536,26.9602 -11.8477,63.43578 -11.8477,63.43578 34.2866,18.15052 72.5807,16.12003 103.0749,4.75767 3.3174,-14.12903 20.2018,-24.52099 -0.9928,-60.39173 20.3998,-62.33732 -68.2556,-47.38174 -36.13,1.71364 l -28.8294,1.58589 c -14.4592,-25.23966 -20.1122,-19.0453 -25.275,-11.10125 z"
         id="path38-06"
         inkscape:connector-curvature="0"
         sodipodi:nodetypes="ccccccc" />
      <path
         style="fill:none;stroke:#000000;stroke-width:4.75950766;stroke-linecap:round;stroke-linejoin:round;stroke-miterlimit:4;stroke-dasharray:none;stroke-opacity:1;paint-order:normal"
         d="m 1137.3758,269.99059 c 8.4966,3.37525 17.6756,4.57308 17.6756,4.57308 -2.9517,7.02392 -11.3819,10.10897 -21.425,12.0344 z"
         id="path4549-15"
         inkscape:connector-curvature="0"
         sodipodi:nodetypes="cccc" />
      <ellipse
         style="stroke-width:4.75950813;stroke-linecap:round;stroke-linejoin:round;stroke-miterlimit:4;stroke-dasharray:none;paint-order:normal"
         id="path4560-5"
         cx="1115.98"
         cy="264.12009"
         rx="6.8292193"
         ry="6.1375504" />
      <path
         style="fill:none;stroke:#000000;stroke-width:4.62189293;stroke-linecap:butt;stroke-linejoin:miter;stroke-miterlimit:4;stroke-dasharray:none;stroke-opacity:1"
         d="m 1053.3443,310.51938 13.125,4.37305 -10.4707,8.29334 13.576,4.99109 -9.65,8.33988 c 37.5648,4.66984 56.2343,-3.13201 49.3215,-25.2717 -7.15,-14.31424 -31.5829,-13.47747 -55.9018,-0.72566 z"
         id="path4562-4"
         inkscape:connector-curvature="0"
         sodipodi:nodetypes="ccccccc" />
      <path
         style="fill:none;stroke:#000000;stroke-width:4.26165581;stroke-linecap:round;stroke-linejoin:round;stroke-miterlimit:4;stroke-dasharray:none;stroke-opacity:1"
         d="m 1106.521,366.75172 c -0.254,6.54369 21.6042,-0.86406 21.6042,-0.86406 l -5.0736,6.6467 6.4573,6.31438 -28.5964,-2.65869 -0.4613,-22.26648 h 6.568 z"
         id="path4583-7"
         inkscape:connector-curvature="0"
         sodipodi:nodetypes="sccccccs" />
      <path
         style="fill:none;stroke:#000000;stroke-width:4.33182764;stroke-linecap:round;stroke-linejoin:round;stroke-miterlimit:4;stroke-dasharray:none;stroke-opacity:1"
         d="m 1062.3115,365.84105 c -2.5089,6.42518 21.1629,3.93105 21.1629,3.93105 l -7.199,5.45935 4.0518,7.68512 -26.697,-8.96963 7.2569,-22.15701 6.343,1.45528 z"
         id="path4583-3-6"
         inkscape:connector-curvature="0"
         sodipodi:nodetypes="sccccccs" />
      <path
         style="fill:#00ffff;stroke-width:13.22085571;stroke-linecap:round;stroke-linejoin:round;stroke-miterlimit:4;stroke-dasharray:none;paint-order:normal"
         d="m 1114.5829,248.6316 c -10.2977,-0.0819 -19.8637,7.42082 -20.8185,16.69814 -1.1758,7.69493 2.7194,14.90585 6.2816,21.6416 1.3904,2.2322 -0.8021,4.84842 -3.56,4.46037 -9.1867,0.52698 -18.5402,1.42351 -27.7119,1.33803 -3.5857,-0.2374 -4.0446,-4.27404 -5.9264,-6.34265 -2.8695,-3.96602 -5.4455,-8.55703 -10.0393,-11.11895 -2.9317,-0.76632 -4.5646,2.57818 -6.0988,4.20529 -10.6976,13.93819 -14.6289,31.25627 -13.6489,47.9833 0.3619,4.14308 -0.061,8.54966 1.5758,12.48603 10.0927,5.73564 21.8144,8.88435 33.4511,11.04865 11.2841,2.04039 22.9107,1.29161 34.3069,0.58702 10.0696,-1.25815 20.0251,-3.73658 29.393,-7.1322 3.725,-8.26675 8.5093,-16.58035 9.237,-25.64877 0.3368,-11.0828 -5.0856,-21.33225 -10.0858,-31.16743 -0.9586,-2.24731 0.9092,-4.60866 1.117,-6.9019 1.7393,-7.84394 2.7359,-16.69961 -1.7124,-23.98353 -3.2382,-4.93714 -9.2973,-8.32765 -15.7604,-8.153 z m 1.7225,9.99703 c 5.4592,-0.11075 7.6687,6.94527 3.5511,9.77924 -3.6087,2.99713 -10.1324,0.19033 -9.9561,-4.17919 -0.1012,-3.14858 2.8801,-5.8562 6.405,-5.60005 z m -28.0938,40.45847 c 8.8976,-0.19407 18.9001,3.42998 22.3085,11.37174 2.9734,7.35276 2.726,16.83084 -4.2943,22.32895 -8.5208,6.50647 -20.3361,6.72368 -30.8729,6.51733 -6.4916,-0.11734 -12.9372,-0.63638 -19.3186,-1.59897 2.9809,-3.06291 6.8323,-5.51901 9.5355,-8.70651 -2.1941,-1.87382 -5.8204,-2.27881 -8.5653,-3.57522 -0.9824,-0.71111 -4.5564,-1.05274 -3.9163,-2.07847 2.6367,-2.56486 6.391,-4.38845 8.2791,-7.47327 -0.4183,-1.76469 -3.4033,-1.5485 -4.8402,-2.43232 -2.5268,-0.84571 -5.0586,-1.67938 -7.5878,-2.51924 11.8493,-6.56617 25.2106,-11.83671 39.2723,-11.83402 z"
         id="path4008-5"
         inkscape:connector-curvature="0" />
      <path
         style="fill:#00ff00;stroke-width:13.22085571;stroke-linecap:round;stroke-linejoin:round;stroke-miterlimit:4;stroke-dasharray:none;paint-order:normal"
         d="m 1086.8685,303.11246 c -9.4431,0.23731 -18.5326,3.14213 -26.9533,6.81851 2.1606,1.53493 5.828,2.04418 8.5868,3.22143 1.1844,0.40837 3.2693,0.83092 1.424,1.82629 -2.7675,2.58044 -6.3065,4.66543 -8.8451,7.38541 4.0165,2.06986 8.6893,3.1504 12.8631,5.02685 -2.6388,2.38271 -5.2777,4.76538 -7.9166,7.14802 2.7095,1.10896 6.5265,0.42182 9.6868,0.63716 8.554,-0.0344 17.7319,0.42337 25.3101,-3.82539 6.1109,-2.973 8.3828,-9.81105 6.903,-15.65254 -0.6484,-7.0927 -8.3773,-11.68483 -15.7267,-12.33476 -1.7658,-0.21515 -3.5513,-0.2865 -5.3321,-0.25098 z"
         id="path4030-6"
         inkscape:connector-curvature="0" />
      <path
         style="fill:#ff6600;stroke-width:13.22085571;stroke-linecap:round;stroke-linejoin:round;stroke-miterlimit:4;stroke-dasharray:none;paint-order:normal"
         d="m 1140.8273,273.25741 c -2.1611,0.94115 -1.3544,3.8675 -2.0134,5.60329 0.2028,1.3676 -1.9964,4.07355 0.4892,4.36135 4.3837,-0.95325 8.8541,-2.91094 11.7857,-6.06477 1.1528,-1.90259 -2.1812,-1.71449 -3.3538,-2.15598 -2.3302,-0.4747 -4.597,-1.2842 -6.9077,-1.74389 z"
         id="path4062-9"
         inkscape:connector-curvature="0" />
      <path
         style="fill:none;stroke:#000000;stroke-width:7.4179244;stroke-linecap:butt;stroke-linejoin:round;stroke-miterlimit:4;stroke-dasharray:none;stroke-opacity:1"
         d="m 1209.4358,278.79635 c -20.5361,26.9602 -11.8477,63.43578 -11.8477,63.43578 34.2865,18.15052 72.5806,16.12003 103.0748,4.75767 3.3175,-14.12903 20.2019,-24.52099 -0.9927,-60.39173 20.3998,-62.33732 -68.2557,-47.38174 -36.1301,1.71364 l -28.8293,1.58589 c -14.4592,-25.23966 -20.1122,-19.0453 -25.275,-11.10125 z"
         id="path38-7-3"
         inkscape:connector-curvature="0"
         sodipodi:nodetypes="ccccccc" />
      <path
         style="fill:none;stroke:#000000;stroke-width:4.75950766;stroke-linecap:round;stroke-linejoin:round;stroke-miterlimit:4;stroke-dasharray:none;stroke-opacity:1;paint-order:normal"
         d="m 1303.4195,269.99059 c 8.4967,3.37525 17.6757,4.57308 17.6757,4.57308 -2.9518,7.02392 -11.382,10.10897 -21.425,12.0344 z"
         id="path4549-5-7"
         inkscape:connector-curvature="0"
         sodipodi:nodetypes="cccc" />
      <ellipse
         style="stroke-width:4.75950813;stroke-linecap:round;stroke-linejoin:round;stroke-miterlimit:4;stroke-dasharray:none;paint-order:normal"
         id="path4560-9-4"
         cx="1282.0237"
         cy="264.12012"
         rx="6.8292193"
         ry="6.1375504" />
      <path
         style="fill:none;stroke:#000000;stroke-width:4.62189293;stroke-linecap:butt;stroke-linejoin:miter;stroke-miterlimit:4;stroke-dasharray:none;stroke-opacity:1"
         d="m 1219.3881,310.51938 13.125,4.37305 -10.4708,8.29334 13.5761,4.99109 -9.65,8.33988 c 37.5648,4.66984 56.2343,-3.13201 49.3215,-25.2717 -7.15,-14.31424 -31.5829,-13.47747 -55.9018,-0.72566 z"
         id="path4562-2-5"
         inkscape:connector-curvature="0"
         sodipodi:nodetypes="ccccccc" />
      <path
         style="fill:none;stroke:#000000;stroke-width:4.26165581;stroke-linecap:round;stroke-linejoin:round;stroke-miterlimit:4;stroke-dasharray:none;stroke-opacity:1"
         d="m 1272.5648,366.75172 c -0.2541,6.54369 21.6042,-0.86406 21.6042,-0.86406 l -5.0736,6.6467 6.4572,6.31438 -28.5964,-2.65869 -0.4612,-22.26648 h 6.5679 z"
         id="path4583-2-2"
         inkscape:connector-curvature="0"
         sodipodi:nodetypes="sccccccs" />
      <path
         style="fill:none;stroke:#000000;stroke-width:4.33182764;stroke-linecap:round;stroke-linejoin:round;stroke-miterlimit:4;stroke-dasharray:none;stroke-opacity:1"
         d="m 1228.3553,365.84105 c -2.5089,6.42518 21.1628,3.93105 21.1628,3.93105 l -7.1989,5.45935 4.0518,7.68512 -26.697,-8.96963 7.2569,-22.15701 6.3429,1.45528 z"
         id="path4583-3-8-5"
         inkscape:connector-curvature="0"
         sodipodi:nodetypes="sccccccs" />
      <path
         style="fill:#00ffff;stroke-width:13.22085571;stroke-linecap:round;stroke-linejoin:round;stroke-miterlimit:4;stroke-dasharray:none;paint-order:normal"
         d="m 1280.6267,248.63161 c -10.2978,-0.082 -19.8637,7.42081 -20.8185,16.69814 -1.1758,7.69492 2.7193,14.90584 6.2816,21.64159 1.3903,2.2322 -0.8021,4.84842 -3.5601,4.46037 -9.1866,0.52698 -18.5402,1.42351 -27.7119,1.33803 -3.5857,-0.23739 -4.0445,-4.27403 -5.9264,-6.34265 -2.8695,-3.96602 -5.4454,-8.55702 -10.0392,-11.11894 -2.9317,-0.76632 -4.5646,2.57818 -6.0989,4.20528 -10.6976,13.9382 -14.6288,31.25627 -13.6489,47.9833 0.362,4.14308 -0.061,8.54966 1.5759,12.48603 10.0927,5.73564 21.8144,8.88435 33.451,11.04865 11.2842,2.04039 22.9108,1.29161 34.307,0.58702 10.0695,-1.25815 20.0251,-3.73658 29.393,-7.1322 3.7249,-8.26675 8.5093,-16.58035 9.237,-25.64877 0.3368,-11.0828 -5.0856,-21.33225 -10.0858,-31.16743 -0.9586,-2.24731 0.9092,-4.60866 1.117,-6.9019 1.7393,-7.84393 2.7359,-16.69961 -1.7125,-23.98352 -3.2381,-4.93715 -9.2972,-8.32766 -15.7603,-8.153 z m 1.7224,9.99702 c 5.4592,-0.11074 7.6688,6.94528 3.5511,9.77924 -3.6086,2.99714 -10.1324,0.19034 -9.9561,-4.17919 -0.1011,-3.14858 2.8802,-5.8562 6.405,-5.60005 z m -28.0937,40.45847 c 8.8976,-0.19407 18.9,3.42998 22.3085,11.37174 2.9734,7.35276 2.7259,16.83085 -4.2943,22.32895 -8.5208,6.50647 -20.3361,6.72368 -30.8729,6.51733 -6.4917,-0.11734 -12.9373,-0.63638 -19.3186,-1.59897 2.9809,-3.0629 6.8323,-5.51901 9.5354,-8.70651 -2.1941,-1.87382 -5.8204,-2.27881 -8.5652,-3.57522 -0.9824,-0.71111 -4.5565,-1.05273 -3.9163,-2.07846 2.6367,-2.56487 6.391,-4.38845 8.2791,-7.47328 -0.4183,-1.76469 -3.4034,-1.54849 -4.8402,-2.43231 -2.5268,-0.84572 -5.0586,-1.67939 -7.5879,-2.51924 11.8494,-6.56618 25.2106,-11.83672 39.2724,-11.83403 z"
         id="path4008-9-4"
         inkscape:connector-curvature="0" />
      <path
         style="fill:#00ff00;stroke-width:13.22085571;stroke-linecap:round;stroke-linejoin:round;stroke-miterlimit:4;stroke-dasharray:none;paint-order:normal"
         d="m 1252.9122,303.11247 c -9.443,0.2373 -18.5325,3.14212 -26.9533,6.8185 2.1607,1.53493 5.8281,2.04418 8.5869,3.22143 1.1843,0.40837 3.2693,0.83092 1.424,1.82629 -2.7675,2.58044 -6.3065,4.66543 -8.8452,7.38541 4.0165,2.06986 8.6894,3.1504 12.8632,5.02685 -2.6388,2.38271 -5.2777,4.76538 -7.9166,7.14802 2.7095,1.10896 6.5264,0.42182 9.6868,0.63716 8.554,-0.0344 17.7318,0.42337 25.3101,-3.82539 6.1109,-2.973 8.3828,-9.81105 6.9029,-15.65254 -0.6483,-7.0927 -8.3773,-11.68483 -15.7267,-12.33475 -1.7657,-0.21516 -3.5513,-0.28651 -5.3321,-0.25098 z"
         id="path4030-7-7"
         inkscape:connector-curvature="0" />
      <path
         style="fill:#ff6600;stroke-width:13.22085571;stroke-linecap:round;stroke-linejoin:round;stroke-miterlimit:4;stroke-dasharray:none;paint-order:normal"
         d="m 1306.8711,273.25741 c -2.1611,0.94115 -1.3544,3.8675 -2.0134,5.60329 0.2027,1.3676 -1.9965,4.07355 0.4891,4.36135 4.3838,-0.95325 8.8541,-2.91093 11.7858,-6.06476 1.1528,-1.9026 -2.1813,-1.7145 -3.3539,-2.15598 -2.3301,-0.4747 -4.5969,-1.2842 -6.9076,-1.7439 z"
         id="path4062-3-4"
         inkscape:connector-curvature="0" />
      <path
         style="fill:none;stroke:#000000;stroke-width:7.4179244;stroke-linecap:butt;stroke-linejoin:round;stroke-miterlimit:4;stroke-dasharray:none;stroke-opacity:1"
         d="m 1375.4795,278.79635 c -20.536,26.9602 -11.8476,63.43578 -11.8476,63.43578 34.2865,18.15052 72.5806,16.12003 103.0748,4.75767 3.3175,-14.12903 20.2019,-24.52099 -0.9927,-60.39173 20.3998,-62.33732 -68.2557,-47.38174 -36.13,1.71364 l -28.8294,1.58589 c -14.4592,-25.23966 -20.1122,-19.0453 -25.2751,-11.10125 z"
         id="path38-6-4"
         inkscape:connector-curvature="0"
         sodipodi:nodetypes="ccccccc" />
      <path
         style="fill:none;stroke:#000000;stroke-width:4.75950766;stroke-linecap:round;stroke-linejoin:round;stroke-miterlimit:4;stroke-dasharray:none;stroke-opacity:1;paint-order:normal"
         d="m 1469.4633,269.99059 c 8.4967,3.37525 17.6757,4.57308 17.6757,4.57308 -2.9518,7.02392 -11.382,10.10897 -21.425,12.0344 z"
         id="path4549-1-3"
         inkscape:connector-curvature="0"
         sodipodi:nodetypes="cccc" />
      <ellipse
         style="stroke-width:4.75950813;stroke-linecap:round;stroke-linejoin:round;stroke-miterlimit:4;stroke-dasharray:none;paint-order:normal"
         id="path4560-2-0"
         cx="1448.0674"
         cy="264.12009"
         rx="6.8292193"
         ry="6.1375504" />
      <path
         style="fill:none;stroke:#000000;stroke-width:4.62189293;stroke-linecap:butt;stroke-linejoin:miter;stroke-miterlimit:4;stroke-dasharray:none;stroke-opacity:1"
         d="m 1385.4319,310.51938 13.125,4.37305 -10.4708,8.29334 13.5761,4.99109 -9.65,8.33988 c 37.5648,4.66984 56.2343,-3.13201 49.3215,-25.2717 -7.15,-14.31424 -31.5829,-13.47747 -55.9018,-0.72566 z"
         id="path4562-9-7"
         inkscape:connector-curvature="0"
         sodipodi:nodetypes="ccccccc" />
      <path
         style="fill:none;stroke:#000000;stroke-width:4.26165581;stroke-linecap:round;stroke-linejoin:round;stroke-miterlimit:4;stroke-dasharray:none;stroke-opacity:1"
         d="m 1438.6086,366.75172 c -0.2541,6.54369 21.6042,-0.86406 21.6042,-0.86406 l -5.0736,6.6467 6.4572,6.31438 -28.5964,-2.65869 -0.4612,-22.26648 h 6.568 z"
         id="path4583-31-8"
         inkscape:connector-curvature="0"
         sodipodi:nodetypes="sccccccs" />
      <path
         style="fill:none;stroke:#000000;stroke-width:4.33182764;stroke-linecap:round;stroke-linejoin:round;stroke-miterlimit:4;stroke-dasharray:none;stroke-opacity:1"
         d="m 1394.3991,365.84105 c -2.509,6.42518 21.1628,3.93105 21.1628,3.93105 l -7.1989,5.45935 4.0518,7.68512 -26.697,-8.96963 7.2569,-22.15701 6.3429,1.45528 z"
         id="path4583-3-9-6"
         inkscape:connector-curvature="0"
         sodipodi:nodetypes="sccccccs" />
      <path
         style="fill:#00ffff;stroke-width:13.22085571;stroke-linecap:round;stroke-linejoin:round;stroke-miterlimit:4;stroke-dasharray:none;paint-order:normal"
         d="m 1446.6705,248.6316 c -10.2978,-0.0819 -19.8637,7.42082 -20.8185,16.69814 -1.1758,7.69493 2.7193,14.90585 6.2816,21.6416 1.3903,2.2322 -0.8021,4.84842 -3.5601,4.46037 -9.1866,0.52698 -18.5401,1.42351 -27.7119,1.33803 -3.5856,-0.2374 -4.0445,-4.27404 -5.9264,-6.34265 -2.8695,-3.96602 -5.4454,-8.55703 -10.0392,-11.11895 -2.9317,-0.76632 -4.5646,2.57818 -6.0989,4.20529 -10.6976,13.93819 -14.6288,31.25627 -13.6489,47.9833 0.3619,4.14308 -0.061,8.54966 1.5759,12.48603 10.0927,5.73564 21.8144,8.88435 33.451,11.04865 11.2842,2.04039 22.9108,1.29161 34.307,0.58702 10.0696,-1.25815 20.0251,-3.73658 29.393,-7.1322 3.7249,-8.26675 8.5092,-16.58035 9.237,-25.64877 0.3368,-11.0828 -5.0856,-21.33225 -10.0858,-31.16743 -0.9586,-2.24731 0.9092,-4.60866 1.117,-6.9019 1.7393,-7.84394 2.7358,-16.69961 -1.7125,-23.98353 -3.2381,-4.93714 -9.2972,-8.32765 -15.7603,-8.153 z m 1.7224,9.99703 c 5.4592,-0.11075 7.6688,6.94527 3.5512,9.77924 -3.6088,2.99713 -10.1325,0.19033 -9.9562,-4.17919 -0.1011,-3.14858 2.8802,-5.8562 6.405,-5.60005 z m -28.0937,40.45847 c 8.8975,-0.19407 18.9,3.42998 22.3085,11.37174 2.9734,7.35276 2.7259,16.83084 -4.2943,22.32895 -8.5208,6.50647 -20.3361,6.72368 -30.8729,6.51733 -6.4917,-0.11734 -12.9373,-0.63638 -19.3186,-1.59897 2.9809,-3.06291 6.8323,-5.51901 9.5354,-8.70651 -2.1941,-1.87382 -5.8204,-2.27881 -8.5652,-3.57522 -0.9824,-0.71111 -4.5565,-1.05274 -3.9163,-2.07847 2.6367,-2.56486 6.391,-4.38845 8.2791,-7.47327 -0.4183,-1.76469 -3.4034,-1.5485 -4.8402,-2.43232 -2.5268,-0.84571 -5.0586,-1.67938 -7.5879,-2.51924 11.8494,-6.56617 25.2106,-11.83671 39.2724,-11.83402 z"
         id="path4008-4-8"
         inkscape:connector-curvature="0" />
      <path
         style="fill:#00ff00;stroke-width:13.22085571;stroke-linecap:round;stroke-linejoin:round;stroke-miterlimit:4;stroke-dasharray:none;paint-order:normal"
         d="m 1418.956,303.11246 c -9.443,0.23731 -18.5325,3.14213 -26.9533,6.81851 2.1607,1.53493 5.8281,2.04418 8.5869,3.22143 1.1843,0.40837 3.2692,0.83092 1.424,1.82629 -2.7675,2.58044 -6.3065,4.66543 -8.8452,7.38541 4.0165,2.06986 8.6894,3.1504 12.8632,5.02685 -2.6388,2.38271 -5.2777,4.76538 -7.9166,7.14802 2.7095,1.10896 6.5264,0.42182 9.6868,0.63716 8.554,-0.0344 17.7318,0.42337 25.3101,-3.82539 6.1109,-2.973 8.3828,-9.81105 6.9029,-15.65254 -0.6483,-7.0927 -8.3773,-11.68483 -15.7267,-12.33476 -1.7657,-0.21515 -3.5513,-0.2865 -5.3321,-0.25098 z"
         id="path4030-78-8"
         inkscape:connector-curvature="0" />
      <path
         style="fill:#ff6600;stroke-width:13.22085571;stroke-linecap:round;stroke-linejoin:round;stroke-miterlimit:4;stroke-dasharray:none;paint-order:normal"
         d="m 1472.9148,273.25741 c -2.1611,0.94115 -1.3543,3.8675 -2.0133,5.60329 0.2027,1.3676 -1.9965,4.07355 0.4891,4.36135 4.3838,-0.95325 8.8541,-2.91094 11.7858,-6.06477 1.1528,-1.90259 -2.1813,-1.71449 -3.3539,-2.15598 -2.3301,-0.4747 -4.5969,-1.2842 -6.9077,-1.74389 z"
         id="path4062-4-4"
         inkscape:connector-curvature="0" />
      <path
         style="fill:none;stroke:#000000;stroke-width:7.4179244;stroke-linecap:butt;stroke-linejoin:round;stroke-miterlimit:4;stroke-dasharray:none;stroke-opacity:1"
         d="m 1541.5233,278.79635 c -20.536,26.9602 -11.8477,63.43578 -11.8477,63.43578 34.2866,18.15052 72.5807,16.12003 103.0749,4.75767 3.3174,-14.12903 20.2019,-24.52099 -0.9928,-60.39173 20.3998,-62.33732 -68.2556,-47.38174 -36.13,1.71364 l -28.8293,1.58589 c -14.4593,-25.23966 -20.1123,-19.0453 -25.2751,-11.10125 z"
         id="path38-7-5-3"
         inkscape:connector-curvature="0"
         sodipodi:nodetypes="ccccccc" />
      <path
         style="fill:none;stroke:#000000;stroke-width:4.75950766;stroke-linecap:round;stroke-linejoin:round;stroke-miterlimit:4;stroke-dasharray:none;stroke-opacity:1;paint-order:normal"
         d="m 1635.5071,269.99059 c 8.4966,3.37525 17.6756,4.57308 17.6756,4.57308 -2.9517,7.02392 -11.3819,10.10897 -21.425,12.0344 z"
         id="path4549-5-0-1"
         inkscape:connector-curvature="0"
         sodipodi:nodetypes="cccc" />
      <ellipse
         style="stroke-width:4.75950813;stroke-linecap:round;stroke-linejoin:round;stroke-miterlimit:4;stroke-dasharray:none;paint-order:normal"
         id="path4560-9-3-4"
         cx="1614.1111"
         cy="264.12012"
         rx="6.8292193"
         ry="6.1375504" />
      <path
         style="fill:none;stroke:#000000;stroke-width:4.62189293;stroke-linecap:butt;stroke-linejoin:miter;stroke-miterlimit:4;stroke-dasharray:none;stroke-opacity:1"
         d="m 1551.4757,310.51938 13.125,4.37305 -10.4708,8.29334 13.576,4.99109 -9.65,8.33988 c 37.5649,4.66984 56.2343,-3.13201 49.3215,-25.2717 -7.1499,-14.31424 -31.5829,-13.47747 -55.9017,-0.72566 z"
         id="path4562-2-6-9"
         inkscape:connector-curvature="0"
         sodipodi:nodetypes="ccccccc" />
      <path
         style="fill:none;stroke:#000000;stroke-width:4.26165581;stroke-linecap:round;stroke-linejoin:round;stroke-miterlimit:4;stroke-dasharray:none;stroke-opacity:1"
         d="m 1604.6524,366.75172 c -0.2541,6.54369 21.6041,-0.86406 21.6041,-0.86406 l -5.0736,6.6467 6.4573,6.31438 -28.5964,-2.65869 -0.4613,-22.26648 h 6.568 z"
         id="path4583-2-1-2"
         inkscape:connector-curvature="0"
         sodipodi:nodetypes="sccccccs" />
      <path
         style="fill:none;stroke:#000000;stroke-width:4.33182764;stroke-linecap:round;stroke-linejoin:round;stroke-miterlimit:4;stroke-dasharray:none;stroke-opacity:1"
         d="m 1560.4429,365.84105 c -2.509,6.42518 21.1628,3.93105 21.1628,3.93105 l -7.199,5.45935 4.0518,7.68512 -26.6969,-8.96963 7.2569,-22.15701 6.3429,1.45528 z"
         id="path4583-3-8-0-0"
         inkscape:connector-curvature="0"
         sodipodi:nodetypes="sccccccs" />
      <path
         style="fill:#00ffff;stroke-width:13.22085571;stroke-linecap:round;stroke-linejoin:round;stroke-miterlimit:4;stroke-dasharray:none;paint-order:normal"
         d="m 1612.7143,248.63161 c -10.2978,-0.082 -19.8638,7.42081 -20.8186,16.69814 -1.1757,7.69492 2.7194,14.90584 6.2816,21.64159 1.3904,2.2322 -0.802,4.84842 -3.56,4.46037 -9.1867,0.52698 -18.5402,1.42351 -27.7119,1.33803 -3.5857,-0.23739 -4.0446,-4.27403 -5.9264,-6.34265 -2.8695,-3.96602 -5.4454,-8.55702 -10.0393,-11.11894 -2.9317,-0.76632 -4.5645,2.57818 -6.0988,4.20528 -10.6976,13.9382 -14.6288,31.25627 -13.6489,47.9833 0.3619,4.14308 -0.061,8.54966 1.5759,12.48603 10.0926,5.73564 21.8143,8.88435 33.451,11.04865 11.2841,2.04039 22.9107,1.29161 34.3069,0.58702 10.0696,-1.25815 20.0252,-3.73658 29.393,-7.1322 3.725,-8.26675 8.5093,-16.58035 9.2371,-25.64877 0.3367,-11.0828 -5.0857,-21.33225 -10.0859,-31.16743 -0.9586,-2.24731 0.9092,-4.60866 1.1171,-6.9019 1.7393,-7.84393 2.7358,-16.69961 -1.7125,-23.98352 -3.2382,-4.93715 -9.2973,-8.32766 -15.7603,-8.153 z m 1.7224,9.99702 c 5.4592,-0.11074 7.6687,6.94528 3.5511,9.77924 -3.6087,2.99714 -10.1324,0.19034 -9.9561,-4.17919 -0.1011,-3.14858 2.8802,-5.8562 6.405,-5.60005 z m -28.0938,40.45847 c 8.8976,-0.19407 18.9001,3.42998 22.3085,11.37174 2.9734,7.35276 2.726,16.83085 -4.2943,22.32895 -8.5208,6.50647 -20.3361,6.72368 -30.8728,6.51733 -6.4917,-0.11734 -12.9373,-0.63638 -19.3187,-1.59897 2.981,-3.0629 6.8324,-5.51901 9.5355,-8.70651 -2.1941,-1.87382 -5.8204,-2.27881 -8.5652,-3.57522 -0.9824,-0.71111 -4.5565,-1.05273 -3.9164,-2.07846 2.6368,-2.56487 6.3911,-4.38845 8.2791,-7.47328 -0.4182,-1.76469 -3.4033,-1.54849 -4.8401,-2.43231 -2.5269,-0.84572 -5.0587,-1.67939 -7.5879,-2.51924 11.8493,-6.56618 25.2106,-11.83672 39.2723,-11.83403 z"
         id="path4008-9-6-6"
         inkscape:connector-curvature="0" />
      <path
         style="fill:#00ff00;stroke-width:13.22085571;stroke-linecap:round;stroke-linejoin:round;stroke-miterlimit:4;stroke-dasharray:none;paint-order:normal"
         d="m 1584.9998,303.11247 c -9.4431,0.2373 -18.5325,3.14212 -26.9533,6.8185 2.1606,1.53493 5.8281,2.04418 8.5869,3.22143 1.1843,0.40837 3.2692,0.83092 1.4239,1.82629 -2.7674,2.58044 -6.3064,4.66543 -8.8451,7.38541 4.0165,2.06986 8.6894,3.1504 12.8632,5.02685 -2.6389,2.38271 -5.2778,4.76538 -7.9167,7.14802 2.7095,1.10896 6.5265,0.42182 9.6868,0.63716 8.554,-0.0344 17.7319,0.42337 25.3102,-3.82539 6.1108,-2.973 8.3828,-9.81105 6.9029,-15.65254 -0.6484,-7.0927 -8.3773,-11.68483 -15.7267,-12.33475 -1.7658,-0.21516 -3.5513,-0.28651 -5.3321,-0.25098 z"
         id="path4030-7-3-8"
         inkscape:connector-curvature="0" />
      <path
         style="fill:#ff6600;stroke-width:13.22085571;stroke-linecap:round;stroke-linejoin:round;stroke-miterlimit:4;stroke-dasharray:none;paint-order:normal"
         d="m 1638.9586,273.25741 c -2.1611,0.94115 -1.3543,3.8675 -2.0134,5.60329 0.2028,1.3676 -1.9964,4.07355 0.4892,4.36135 4.3837,-0.95325 8.8541,-2.91093 11.7857,-6.06476 1.1528,-1.9026 -2.1812,-1.7145 -3.3538,-2.15598 -2.3302,-0.4747 -4.5969,-1.2842 -6.9077,-1.7439 z"
         id="path4062-3-2-9"
         inkscape:connector-curvature="0" />
    </g>
  </g>
</svg>
